<?xml version="1.0" encoding="utf-8" standalone="no"?>
<!DOCTYPE svg PUBLIC "-//W3C//DTD SVG 1.1//EN"
  "http://www.w3.org/Graphics/SVG/1.1/DTD/svg11.dtd">
<svg xmlns:xlink="http://www.w3.org/1999/xlink" width="1440pt" height="720pt" viewBox="0 0 1440 720" xmlns="http://www.w3.org/2000/svg" version="1.1">
 <metadata>
  <rdf:RDF xmlns:dc="http://purl.org/dc/elements/1.1/" xmlns:cc="http://creativecommons.org/ns#" xmlns:rdf="http://www.w3.org/1999/02/22-rdf-syntax-ns#">
   <cc:Work>
    <dc:type rdf:resource="http://purl.org/dc/dcmitype/StillImage"/>
    <dc:date>2025-04-23T02:44:59.765879</dc:date>
    <dc:format>image/svg+xml</dc:format>
    <dc:creator>
     <cc:Agent>
      <dc:title>Matplotlib v3.10.1, https://matplotlib.org/</dc:title>
     </cc:Agent>
    </dc:creator>
   </cc:Work>
  </rdf:RDF>
 </metadata>
 <defs>
  <style type="text/css">*{stroke-linejoin: round; stroke-linecap: butt}</style>
 </defs>
 <g id="figure_1">
  <g id="patch_1">
   <path d="M 0 720 
L 1440 720 
L 1440 0 
L 0 0 
z
" style="fill: #ffffff"/>
  </g>
  <g id="axes_1">
   <g id="patch_2">
    <path d="M 259.127699 552.865604 
Q 288.613906 494.273658 318.602705 434.683013 
" style="fill: none; stroke: #000000; stroke-linecap: round"/>
    <path d="M 261.955771 550.75599 
L 259.127699 552.865604 
L 259.136852 549.337378 
" style="fill: none; stroke: #000000; stroke-linecap: round"/>
   </g>
   <g id="text_1">
    <g id="patch_3">
     <path d="M 205.183021 586.628624 
L 294.316979 586.628624 
Q 296.683793 586.628624 296.683793 584.26181 
L 296.683793 558.518766 
Q 296.683793 556.151953 294.316979 556.151953 
L 205.183021 556.151953 
Q 202.816207 556.151953 202.816207 558.518766 
L 202.816207 584.26181 
Q 202.816207 586.628624 205.183021 586.628624 
z
" style="fill: #f2be99; stroke: #000000; stroke-linejoin: miter"/>
    </g>
    <!-- squared_error = 0.248 -->
    <g transform="translate(205.183021 564.732885) scale(0.078894 -0.078894)">
     <defs>
      <path id="DejaVuSans-73" d="M 2834 3397 
L 2834 2853 
Q 2591 2978 2328 3040 
Q 2066 3103 1784 3103 
Q 1356 3103 1142 2972 
Q 928 2841 928 2578 
Q 928 2378 1081 2264 
Q 1234 2150 1697 2047 
L 1894 2003 
Q 2506 1872 2764 1633 
Q 3022 1394 3022 966 
Q 3022 478 2636 193 
Q 2250 -91 1575 -91 
Q 1294 -91 989 -36 
Q 684 19 347 128 
L 347 722 
Q 666 556 975 473 
Q 1284 391 1588 391 
Q 1994 391 2212 530 
Q 2431 669 2431 922 
Q 2431 1156 2273 1281 
Q 2116 1406 1581 1522 
L 1381 1569 
Q 847 1681 609 1914 
Q 372 2147 372 2553 
Q 372 3047 722 3315 
Q 1072 3584 1716 3584 
Q 2034 3584 2315 3537 
Q 2597 3491 2834 3397 
z
" transform="scale(0.015625)"/>
      <path id="DejaVuSans-71" d="M 947 1747 
Q 947 1113 1208 752 
Q 1469 391 1925 391 
Q 2381 391 2643 752 
Q 2906 1113 2906 1747 
Q 2906 2381 2643 2742 
Q 2381 3103 1925 3103 
Q 1469 3103 1208 2742 
Q 947 2381 947 1747 
z
M 2906 525 
Q 2725 213 2448 61 
Q 2172 -91 1784 -91 
Q 1150 -91 751 415 
Q 353 922 353 1747 
Q 353 2572 751 3078 
Q 1150 3584 1784 3584 
Q 2172 3584 2448 3432 
Q 2725 3281 2906 2969 
L 2906 3500 
L 3481 3500 
L 3481 -1331 
L 2906 -1331 
L 2906 525 
z
" transform="scale(0.015625)"/>
      <path id="DejaVuSans-75" d="M 544 1381 
L 544 3500 
L 1119 3500 
L 1119 1403 
Q 1119 906 1312 657 
Q 1506 409 1894 409 
Q 2359 409 2629 706 
Q 2900 1003 2900 1516 
L 2900 3500 
L 3475 3500 
L 3475 0 
L 2900 0 
L 2900 538 
Q 2691 219 2414 64 
Q 2138 -91 1772 -91 
Q 1169 -91 856 284 
Q 544 659 544 1381 
z
M 1991 3584 
L 1991 3584 
z
" transform="scale(0.015625)"/>
      <path id="DejaVuSans-61" d="M 2194 1759 
Q 1497 1759 1228 1600 
Q 959 1441 959 1056 
Q 959 750 1161 570 
Q 1363 391 1709 391 
Q 2188 391 2477 730 
Q 2766 1069 2766 1631 
L 2766 1759 
L 2194 1759 
z
M 3341 1997 
L 3341 0 
L 2766 0 
L 2766 531 
Q 2569 213 2275 61 
Q 1981 -91 1556 -91 
Q 1019 -91 701 211 
Q 384 513 384 1019 
Q 384 1609 779 1909 
Q 1175 2209 1959 2209 
L 2766 2209 
L 2766 2266 
Q 2766 2663 2505 2880 
Q 2244 3097 1772 3097 
Q 1472 3097 1187 3025 
Q 903 2953 641 2809 
L 641 3341 
Q 956 3463 1253 3523 
Q 1550 3584 1831 3584 
Q 2591 3584 2966 3190 
Q 3341 2797 3341 1997 
z
" transform="scale(0.015625)"/>
      <path id="DejaVuSans-72" d="M 2631 2963 
Q 2534 3019 2420 3045 
Q 2306 3072 2169 3072 
Q 1681 3072 1420 2755 
Q 1159 2438 1159 1844 
L 1159 0 
L 581 0 
L 581 3500 
L 1159 3500 
L 1159 2956 
Q 1341 3275 1631 3429 
Q 1922 3584 2338 3584 
Q 2397 3584 2469 3576 
Q 2541 3569 2628 3553 
L 2631 2963 
z
" transform="scale(0.015625)"/>
      <path id="DejaVuSans-65" d="M 3597 1894 
L 3597 1613 
L 953 1613 
Q 991 1019 1311 708 
Q 1631 397 2203 397 
Q 2534 397 2845 478 
Q 3156 559 3463 722 
L 3463 178 
Q 3153 47 2828 -22 
Q 2503 -91 2169 -91 
Q 1331 -91 842 396 
Q 353 884 353 1716 
Q 353 2575 817 3079 
Q 1281 3584 2069 3584 
Q 2775 3584 3186 3129 
Q 3597 2675 3597 1894 
z
M 3022 2063 
Q 3016 2534 2758 2815 
Q 2500 3097 2075 3097 
Q 1594 3097 1305 2825 
Q 1016 2553 972 2059 
L 3022 2063 
z
" transform="scale(0.015625)"/>
      <path id="DejaVuSans-64" d="M 2906 2969 
L 2906 4863 
L 3481 4863 
L 3481 0 
L 2906 0 
L 2906 525 
Q 2725 213 2448 61 
Q 2172 -91 1784 -91 
Q 1150 -91 751 415 
Q 353 922 353 1747 
Q 353 2572 751 3078 
Q 1150 3584 1784 3584 
Q 2172 3584 2448 3432 
Q 2725 3281 2906 2969 
z
M 947 1747 
Q 947 1113 1208 752 
Q 1469 391 1925 391 
Q 2381 391 2643 752 
Q 2906 1113 2906 1747 
Q 2906 2381 2643 2742 
Q 2381 3103 1925 3103 
Q 1469 3103 1208 2742 
Q 947 2381 947 1747 
z
" transform="scale(0.015625)"/>
      <path id="DejaVuSans-5f" d="M 3263 -1063 
L 3263 -1509 
L -63 -1509 
L -63 -1063 
L 3263 -1063 
z
" transform="scale(0.015625)"/>
      <path id="DejaVuSans-6f" d="M 1959 3097 
Q 1497 3097 1228 2736 
Q 959 2375 959 1747 
Q 959 1119 1226 758 
Q 1494 397 1959 397 
Q 2419 397 2687 759 
Q 2956 1122 2956 1747 
Q 2956 2369 2687 2733 
Q 2419 3097 1959 3097 
z
M 1959 3584 
Q 2709 3584 3137 3096 
Q 3566 2609 3566 1747 
Q 3566 888 3137 398 
Q 2709 -91 1959 -91 
Q 1206 -91 779 398 
Q 353 888 353 1747 
Q 353 2609 779 3096 
Q 1206 3584 1959 3584 
z
" transform="scale(0.015625)"/>
      <path id="DejaVuSans-20" transform="scale(0.015625)"/>
      <path id="DejaVuSans-3d" d="M 678 2906 
L 4684 2906 
L 4684 2381 
L 678 2381 
L 678 2906 
z
M 678 1631 
L 4684 1631 
L 4684 1100 
L 678 1100 
L 678 1631 
z
" transform="scale(0.015625)"/>
      <path id="DejaVuSans-30" d="M 2034 4250 
Q 1547 4250 1301 3770 
Q 1056 3291 1056 2328 
Q 1056 1369 1301 889 
Q 1547 409 2034 409 
Q 2525 409 2770 889 
Q 3016 1369 3016 2328 
Q 3016 3291 2770 3770 
Q 2525 4250 2034 4250 
z
M 2034 4750 
Q 2819 4750 3233 4129 
Q 3647 3509 3647 2328 
Q 3647 1150 3233 529 
Q 2819 -91 2034 -91 
Q 1250 -91 836 529 
Q 422 1150 422 2328 
Q 422 3509 836 4129 
Q 1250 4750 2034 4750 
z
" transform="scale(0.015625)"/>
      <path id="DejaVuSans-2e" d="M 684 794 
L 1344 794 
L 1344 0 
L 684 0 
L 684 794 
z
" transform="scale(0.015625)"/>
      <path id="DejaVuSans-32" d="M 1228 531 
L 3431 531 
L 3431 0 
L 469 0 
L 469 531 
Q 828 903 1448 1529 
Q 2069 2156 2228 2338 
Q 2531 2678 2651 2914 
Q 2772 3150 2772 3378 
Q 2772 3750 2511 3984 
Q 2250 4219 1831 4219 
Q 1534 4219 1204 4116 
Q 875 4013 500 3803 
L 500 4441 
Q 881 4594 1212 4672 
Q 1544 4750 1819 4750 
Q 2544 4750 2975 4387 
Q 3406 4025 3406 3419 
Q 3406 3131 3298 2873 
Q 3191 2616 2906 2266 
Q 2828 2175 2409 1742 
Q 1991 1309 1228 531 
z
" transform="scale(0.015625)"/>
      <path id="DejaVuSans-34" d="M 2419 4116 
L 825 1625 
L 2419 1625 
L 2419 4116 
z
M 2253 4666 
L 3047 4666 
L 3047 1625 
L 3713 1625 
L 3713 1100 
L 3047 1100 
L 3047 0 
L 2419 0 
L 2419 1100 
L 313 1100 
L 313 1709 
L 2253 4666 
z
" transform="scale(0.015625)"/>
      <path id="DejaVuSans-38" d="M 2034 2216 
Q 1584 2216 1326 1975 
Q 1069 1734 1069 1313 
Q 1069 891 1326 650 
Q 1584 409 2034 409 
Q 2484 409 2743 651 
Q 3003 894 3003 1313 
Q 3003 1734 2745 1975 
Q 2488 2216 2034 2216 
z
M 1403 2484 
Q 997 2584 770 2862 
Q 544 3141 544 3541 
Q 544 4100 942 4425 
Q 1341 4750 2034 4750 
Q 2731 4750 3128 4425 
Q 3525 4100 3525 3541 
Q 3525 3141 3298 2862 
Q 3072 2584 2669 2484 
Q 3125 2378 3379 2068 
Q 3634 1759 3634 1313 
Q 3634 634 3220 271 
Q 2806 -91 2034 -91 
Q 1263 -91 848 271 
Q 434 634 434 1313 
Q 434 1759 690 2068 
Q 947 2378 1403 2484 
z
M 1172 3481 
Q 1172 3119 1398 2916 
Q 1625 2713 2034 2713 
Q 2441 2713 2670 2916 
Q 2900 3119 2900 3481 
Q 2900 3844 2670 4047 
Q 2441 4250 2034 4250 
Q 1625 4250 1398 4047 
Q 1172 3844 1172 3481 
z
" transform="scale(0.015625)"/>
     </defs>
     <use xlink:href="#DejaVuSans-73"/>
     <use xlink:href="#DejaVuSans-71" transform="translate(52.099609 0)"/>
     <use xlink:href="#DejaVuSans-75" transform="translate(115.576172 0)"/>
     <use xlink:href="#DejaVuSans-61" transform="translate(178.955078 0)"/>
     <use xlink:href="#DejaVuSans-72" transform="translate(240.234375 0)"/>
     <use xlink:href="#DejaVuSans-65" transform="translate(279.097656 0)"/>
     <use xlink:href="#DejaVuSans-64" transform="translate(340.621094 0)"/>
     <use xlink:href="#DejaVuSans-5f" transform="translate(404.097656 0)"/>
     <use xlink:href="#DejaVuSans-65" transform="translate(454.097656 0)"/>
     <use xlink:href="#DejaVuSans-72" transform="translate(515.621094 0)"/>
     <use xlink:href="#DejaVuSans-72" transform="translate(554.984375 0)"/>
     <use xlink:href="#DejaVuSans-6f" transform="translate(593.847656 0)"/>
     <use xlink:href="#DejaVuSans-72" transform="translate(655.029297 0)"/>
     <use xlink:href="#DejaVuSans-20" transform="translate(696.142578 0)"/>
     <use xlink:href="#DejaVuSans-3d" transform="translate(727.929688 0)"/>
     <use xlink:href="#DejaVuSans-20" transform="translate(811.71875 0)"/>
     <use xlink:href="#DejaVuSans-30" transform="translate(843.505859 0)"/>
     <use xlink:href="#DejaVuSans-2e" transform="translate(907.128906 0)"/>
     <use xlink:href="#DejaVuSans-32" transform="translate(938.916016 0)"/>
     <use xlink:href="#DejaVuSans-34" transform="translate(1002.539062 0)"/>
     <use xlink:href="#DejaVuSans-38" transform="translate(1066.162109 0)"/>
    </g>
    <!-- samples = 5211 -->
    <g transform="translate(217.500931 573.786687) scale(0.078894 -0.078894)">
     <defs>
      <path id="DejaVuSans-6d" d="M 3328 2828 
Q 3544 3216 3844 3400 
Q 4144 3584 4550 3584 
Q 5097 3584 5394 3201 
Q 5691 2819 5691 2113 
L 5691 0 
L 5113 0 
L 5113 2094 
Q 5113 2597 4934 2840 
Q 4756 3084 4391 3084 
Q 3944 3084 3684 2787 
Q 3425 2491 3425 1978 
L 3425 0 
L 2847 0 
L 2847 2094 
Q 2847 2600 2669 2842 
Q 2491 3084 2119 3084 
Q 1678 3084 1418 2786 
Q 1159 2488 1159 1978 
L 1159 0 
L 581 0 
L 581 3500 
L 1159 3500 
L 1159 2956 
Q 1356 3278 1631 3431 
Q 1906 3584 2284 3584 
Q 2666 3584 2933 3390 
Q 3200 3197 3328 2828 
z
" transform="scale(0.015625)"/>
      <path id="DejaVuSans-70" d="M 1159 525 
L 1159 -1331 
L 581 -1331 
L 581 3500 
L 1159 3500 
L 1159 2969 
Q 1341 3281 1617 3432 
Q 1894 3584 2278 3584 
Q 2916 3584 3314 3078 
Q 3713 2572 3713 1747 
Q 3713 922 3314 415 
Q 2916 -91 2278 -91 
Q 1894 -91 1617 61 
Q 1341 213 1159 525 
z
M 3116 1747 
Q 3116 2381 2855 2742 
Q 2594 3103 2138 3103 
Q 1681 3103 1420 2742 
Q 1159 2381 1159 1747 
Q 1159 1113 1420 752 
Q 1681 391 2138 391 
Q 2594 391 2855 752 
Q 3116 1113 3116 1747 
z
" transform="scale(0.015625)"/>
      <path id="DejaVuSans-6c" d="M 603 4863 
L 1178 4863 
L 1178 0 
L 603 0 
L 603 4863 
z
" transform="scale(0.015625)"/>
      <path id="DejaVuSans-35" d="M 691 4666 
L 3169 4666 
L 3169 4134 
L 1269 4134 
L 1269 2991 
Q 1406 3038 1543 3061 
Q 1681 3084 1819 3084 
Q 2600 3084 3056 2656 
Q 3513 2228 3513 1497 
Q 3513 744 3044 326 
Q 2575 -91 1722 -91 
Q 1428 -91 1123 -41 
Q 819 9 494 109 
L 494 744 
Q 775 591 1075 516 
Q 1375 441 1709 441 
Q 2250 441 2565 725 
Q 2881 1009 2881 1497 
Q 2881 1984 2565 2268 
Q 2250 2553 1709 2553 
Q 1456 2553 1204 2497 
Q 953 2441 691 2322 
L 691 4666 
z
" transform="scale(0.015625)"/>
      <path id="DejaVuSans-31" d="M 794 531 
L 1825 531 
L 1825 4091 
L 703 3866 
L 703 4441 
L 1819 4666 
L 2450 4666 
L 2450 531 
L 3481 531 
L 3481 0 
L 794 0 
L 794 531 
z
" transform="scale(0.015625)"/>
     </defs>
     <use xlink:href="#DejaVuSans-73"/>
     <use xlink:href="#DejaVuSans-61" transform="translate(52.099609 0)"/>
     <use xlink:href="#DejaVuSans-6d" transform="translate(113.378906 0)"/>
     <use xlink:href="#DejaVuSans-70" transform="translate(210.791016 0)"/>
     <use xlink:href="#DejaVuSans-6c" transform="translate(274.267578 0)"/>
     <use xlink:href="#DejaVuSans-65" transform="translate(302.050781 0)"/>
     <use xlink:href="#DejaVuSans-73" transform="translate(363.574219 0)"/>
     <use xlink:href="#DejaVuSans-20" transform="translate(415.673828 0)"/>
     <use xlink:href="#DejaVuSans-3d" transform="translate(447.460938 0)"/>
     <use xlink:href="#DejaVuSans-20" transform="translate(531.25 0)"/>
     <use xlink:href="#DejaVuSans-35" transform="translate(563.037109 0)"/>
     <use xlink:href="#DejaVuSans-32" transform="translate(626.660156 0)"/>
     <use xlink:href="#DejaVuSans-31" transform="translate(690.283203 0)"/>
     <use xlink:href="#DejaVuSans-31" transform="translate(753.90625 0)"/>
    </g>
    <!-- value = 0.547 -->
    <g transform="translate(221.869058 582.621066) scale(0.078894 -0.078894)">
     <defs>
      <path id="DejaVuSans-76" d="M 191 3500 
L 800 3500 
L 1894 563 
L 2988 3500 
L 3597 3500 
L 2284 0 
L 1503 0 
L 191 3500 
z
" transform="scale(0.015625)"/>
      <path id="DejaVuSans-37" d="M 525 4666 
L 3525 4666 
L 3525 4397 
L 1831 0 
L 1172 0 
L 2766 4134 
L 525 4134 
L 525 4666 
z
" transform="scale(0.015625)"/>
     </defs>
     <use xlink:href="#DejaVuSans-76"/>
     <use xlink:href="#DejaVuSans-61" transform="translate(59.179688 0)"/>
     <use xlink:href="#DejaVuSans-6c" transform="translate(120.458984 0)"/>
     <use xlink:href="#DejaVuSans-75" transform="translate(148.242188 0)"/>
     <use xlink:href="#DejaVuSans-65" transform="translate(211.621094 0)"/>
     <use xlink:href="#DejaVuSans-20" transform="translate(273.144531 0)"/>
     <use xlink:href="#DejaVuSans-3d" transform="translate(304.931641 0)"/>
     <use xlink:href="#DejaVuSans-20" transform="translate(388.720703 0)"/>
     <use xlink:href="#DejaVuSans-30" transform="translate(420.507812 0)"/>
     <use xlink:href="#DejaVuSans-2e" transform="translate(484.130859 0)"/>
     <use xlink:href="#DejaVuSans-35" transform="translate(515.917969 0)"/>
     <use xlink:href="#DejaVuSans-34" transform="translate(579.541016 0)"/>
     <use xlink:href="#DejaVuSans-37" transform="translate(643.164062 0)"/>
    </g>
   </g>
   <g id="patch_4">
    <path d="M 379.872301 552.865604 
Q 350.386094 494.273658 320.397295 434.683013 
" style="fill: none; stroke: #000000; stroke-linecap: round"/>
    <path d="M 379.863148 549.337378 
L 379.872301 552.865604 
L 377.044229 550.75599 
" style="fill: none; stroke: #000000; stroke-linecap: round"/>
   </g>
   <g id="text_2">
    <g id="patch_5">
     <path d="M 344.683021 586.628624 
L 433.816979 586.628624 
Q 436.183793 586.628624 436.183793 584.26181 
L 436.183793 558.518766 
Q 436.183793 556.151953 433.816979 556.151953 
L 344.683021 556.151953 
Q 342.316207 556.151953 342.316207 558.518766 
L 342.316207 584.26181 
Q 342.316207 586.628624 344.683021 586.628624 
z
" style="fill: #f5d0b5; stroke: #000000; stroke-linejoin: miter"/>
    </g>
    <!-- squared_error = 0.243 -->
    <g transform="translate(344.683021 564.732885) scale(0.078894 -0.078894)">
     <defs>
      <path id="DejaVuSans-33" d="M 2597 2516 
Q 3050 2419 3304 2112 
Q 3559 1806 3559 1356 
Q 3559 666 3084 287 
Q 2609 -91 1734 -91 
Q 1441 -91 1130 -33 
Q 819 25 488 141 
L 488 750 
Q 750 597 1062 519 
Q 1375 441 1716 441 
Q 2309 441 2620 675 
Q 2931 909 2931 1356 
Q 2931 1769 2642 2001 
Q 2353 2234 1838 2234 
L 1294 2234 
L 1294 2753 
L 1863 2753 
Q 2328 2753 2575 2939 
Q 2822 3125 2822 3475 
Q 2822 3834 2567 4026 
Q 2313 4219 1838 4219 
Q 1578 4219 1281 4162 
Q 984 4106 628 3988 
L 628 4550 
Q 988 4650 1302 4700 
Q 1616 4750 1894 4750 
Q 2613 4750 3031 4423 
Q 3450 4097 3450 3541 
Q 3450 3153 3228 2886 
Q 3006 2619 2597 2516 
z
" transform="scale(0.015625)"/>
     </defs>
     <use xlink:href="#DejaVuSans-73"/>
     <use xlink:href="#DejaVuSans-71" transform="translate(52.099609 0)"/>
     <use xlink:href="#DejaVuSans-75" transform="translate(115.576172 0)"/>
     <use xlink:href="#DejaVuSans-61" transform="translate(178.955078 0)"/>
     <use xlink:href="#DejaVuSans-72" transform="translate(240.234375 0)"/>
     <use xlink:href="#DejaVuSans-65" transform="translate(279.097656 0)"/>
     <use xlink:href="#DejaVuSans-64" transform="translate(340.621094 0)"/>
     <use xlink:href="#DejaVuSans-5f" transform="translate(404.097656 0)"/>
     <use xlink:href="#DejaVuSans-65" transform="translate(454.097656 0)"/>
     <use xlink:href="#DejaVuSans-72" transform="translate(515.621094 0)"/>
     <use xlink:href="#DejaVuSans-72" transform="translate(554.984375 0)"/>
     <use xlink:href="#DejaVuSans-6f" transform="translate(593.847656 0)"/>
     <use xlink:href="#DejaVuSans-72" transform="translate(655.029297 0)"/>
     <use xlink:href="#DejaVuSans-20" transform="translate(696.142578 0)"/>
     <use xlink:href="#DejaVuSans-3d" transform="translate(727.929688 0)"/>
     <use xlink:href="#DejaVuSans-20" transform="translate(811.71875 0)"/>
     <use xlink:href="#DejaVuSans-30" transform="translate(843.505859 0)"/>
     <use xlink:href="#DejaVuSans-2e" transform="translate(907.128906 0)"/>
     <use xlink:href="#DejaVuSans-32" transform="translate(938.916016 0)"/>
     <use xlink:href="#DejaVuSans-34" transform="translate(1002.539062 0)"/>
     <use xlink:href="#DejaVuSans-33" transform="translate(1066.162109 0)"/>
    </g>
    <!-- samples = 2982 -->
    <g transform="translate(357.000931 573.786687) scale(0.078894 -0.078894)">
     <defs>
      <path id="DejaVuSans-39" d="M 703 97 
L 703 672 
Q 941 559 1184 500 
Q 1428 441 1663 441 
Q 2288 441 2617 861 
Q 2947 1281 2994 2138 
Q 2813 1869 2534 1725 
Q 2256 1581 1919 1581 
Q 1219 1581 811 2004 
Q 403 2428 403 3163 
Q 403 3881 828 4315 
Q 1253 4750 1959 4750 
Q 2769 4750 3195 4129 
Q 3622 3509 3622 2328 
Q 3622 1225 3098 567 
Q 2575 -91 1691 -91 
Q 1453 -91 1209 -44 
Q 966 3 703 97 
z
M 1959 2075 
Q 2384 2075 2632 2365 
Q 2881 2656 2881 3163 
Q 2881 3666 2632 3958 
Q 2384 4250 1959 4250 
Q 1534 4250 1286 3958 
Q 1038 3666 1038 3163 
Q 1038 2656 1286 2365 
Q 1534 2075 1959 2075 
z
" transform="scale(0.015625)"/>
     </defs>
     <use xlink:href="#DejaVuSans-73"/>
     <use xlink:href="#DejaVuSans-61" transform="translate(52.099609 0)"/>
     <use xlink:href="#DejaVuSans-6d" transform="translate(113.378906 0)"/>
     <use xlink:href="#DejaVuSans-70" transform="translate(210.791016 0)"/>
     <use xlink:href="#DejaVuSans-6c" transform="translate(274.267578 0)"/>
     <use xlink:href="#DejaVuSans-65" transform="translate(302.050781 0)"/>
     <use xlink:href="#DejaVuSans-73" transform="translate(363.574219 0)"/>
     <use xlink:href="#DejaVuSans-20" transform="translate(415.673828 0)"/>
     <use xlink:href="#DejaVuSans-3d" transform="translate(447.460938 0)"/>
     <use xlink:href="#DejaVuSans-20" transform="translate(531.25 0)"/>
     <use xlink:href="#DejaVuSans-32" transform="translate(563.037109 0)"/>
     <use xlink:href="#DejaVuSans-39" transform="translate(626.660156 0)"/>
     <use xlink:href="#DejaVuSans-38" transform="translate(690.283203 0)"/>
     <use xlink:href="#DejaVuSans-32" transform="translate(753.90625 0)"/>
    </g>
    <!-- value = 0.418 -->
    <g transform="translate(361.369058 582.621066) scale(0.078894 -0.078894)">
     <use xlink:href="#DejaVuSans-76"/>
     <use xlink:href="#DejaVuSans-61" transform="translate(59.179688 0)"/>
     <use xlink:href="#DejaVuSans-6c" transform="translate(120.458984 0)"/>
     <use xlink:href="#DejaVuSans-75" transform="translate(148.242188 0)"/>
     <use xlink:href="#DejaVuSans-65" transform="translate(211.621094 0)"/>
     <use xlink:href="#DejaVuSans-20" transform="translate(273.144531 0)"/>
     <use xlink:href="#DejaVuSans-3d" transform="translate(304.931641 0)"/>
     <use xlink:href="#DejaVuSans-20" transform="translate(388.720703 0)"/>
     <use xlink:href="#DejaVuSans-30" transform="translate(420.507812 0)"/>
     <use xlink:href="#DejaVuSans-2e" transform="translate(484.130859 0)"/>
     <use xlink:href="#DejaVuSans-34" transform="translate(515.917969 0)"/>
     <use xlink:href="#DejaVuSans-31" transform="translate(579.541016 0)"/>
     <use xlink:href="#DejaVuSans-38" transform="translate(643.164062 0)"/>
    </g>
   </g>
   <g id="patch_6">
    <path d="M 538.127699 552.865604 
Q 567.613906 494.273658 597.602705 434.683013 
" style="fill: none; stroke: #000000; stroke-linecap: round"/>
    <path d="M 540.955771 550.75599 
L 538.127699 552.865604 
L 538.136852 549.337378 
" style="fill: none; stroke: #000000; stroke-linecap: round"/>
   </g>
   <g id="text_3">
    <g id="patch_7">
     <path d="M 484.183021 586.628624 
L 573.316979 586.628624 
Q 575.683793 586.628624 575.683793 584.26181 
L 575.683793 558.518766 
Q 575.683793 556.151953 573.316979 556.151953 
L 484.183021 556.151953 
Q 481.816207 556.151953 481.816207 558.518766 
L 481.816207 584.26181 
Q 481.816207 586.628624 484.183021 586.628624 
z
" style="fill: #ffffff; stroke: #000000; stroke-linejoin: miter"/>
    </g>
    <!-- squared_error = 0.063 -->
    <g transform="translate(484.183021 564.732885) scale(0.078894 -0.078894)">
     <defs>
      <path id="DejaVuSans-36" d="M 2113 2584 
Q 1688 2584 1439 2293 
Q 1191 2003 1191 1497 
Q 1191 994 1439 701 
Q 1688 409 2113 409 
Q 2538 409 2786 701 
Q 3034 994 3034 1497 
Q 3034 2003 2786 2293 
Q 2538 2584 2113 2584 
z
M 3366 4563 
L 3366 3988 
Q 3128 4100 2886 4159 
Q 2644 4219 2406 4219 
Q 1781 4219 1451 3797 
Q 1122 3375 1075 2522 
Q 1259 2794 1537 2939 
Q 1816 3084 2150 3084 
Q 2853 3084 3261 2657 
Q 3669 2231 3669 1497 
Q 3669 778 3244 343 
Q 2819 -91 2113 -91 
Q 1303 -91 875 529 
Q 447 1150 447 2328 
Q 447 3434 972 4092 
Q 1497 4750 2381 4750 
Q 2619 4750 2861 4703 
Q 3103 4656 3366 4563 
z
" transform="scale(0.015625)"/>
     </defs>
     <use xlink:href="#DejaVuSans-73"/>
     <use xlink:href="#DejaVuSans-71" transform="translate(52.099609 0)"/>
     <use xlink:href="#DejaVuSans-75" transform="translate(115.576172 0)"/>
     <use xlink:href="#DejaVuSans-61" transform="translate(178.955078 0)"/>
     <use xlink:href="#DejaVuSans-72" transform="translate(240.234375 0)"/>
     <use xlink:href="#DejaVuSans-65" transform="translate(279.097656 0)"/>
     <use xlink:href="#DejaVuSans-64" transform="translate(340.621094 0)"/>
     <use xlink:href="#DejaVuSans-5f" transform="translate(404.097656 0)"/>
     <use xlink:href="#DejaVuSans-65" transform="translate(454.097656 0)"/>
     <use xlink:href="#DejaVuSans-72" transform="translate(515.621094 0)"/>
     <use xlink:href="#DejaVuSans-72" transform="translate(554.984375 0)"/>
     <use xlink:href="#DejaVuSans-6f" transform="translate(593.847656 0)"/>
     <use xlink:href="#DejaVuSans-72" transform="translate(655.029297 0)"/>
     <use xlink:href="#DejaVuSans-20" transform="translate(696.142578 0)"/>
     <use xlink:href="#DejaVuSans-3d" transform="translate(727.929688 0)"/>
     <use xlink:href="#DejaVuSans-20" transform="translate(811.71875 0)"/>
     <use xlink:href="#DejaVuSans-30" transform="translate(843.505859 0)"/>
     <use xlink:href="#DejaVuSans-2e" transform="translate(907.128906 0)"/>
     <use xlink:href="#DejaVuSans-30" transform="translate(938.916016 0)"/>
     <use xlink:href="#DejaVuSans-36" transform="translate(1002.539062 0)"/>
     <use xlink:href="#DejaVuSans-33" transform="translate(1066.162109 0)"/>
    </g>
    <!-- samples = 283 -->
    <g transform="translate(499.010739 573.786687) scale(0.078894 -0.078894)">
     <use xlink:href="#DejaVuSans-73"/>
     <use xlink:href="#DejaVuSans-61" transform="translate(52.099609 0)"/>
     <use xlink:href="#DejaVuSans-6d" transform="translate(113.378906 0)"/>
     <use xlink:href="#DejaVuSans-70" transform="translate(210.791016 0)"/>
     <use xlink:href="#DejaVuSans-6c" transform="translate(274.267578 0)"/>
     <use xlink:href="#DejaVuSans-65" transform="translate(302.050781 0)"/>
     <use xlink:href="#DejaVuSans-73" transform="translate(363.574219 0)"/>
     <use xlink:href="#DejaVuSans-20" transform="translate(415.673828 0)"/>
     <use xlink:href="#DejaVuSans-3d" transform="translate(447.460938 0)"/>
     <use xlink:href="#DejaVuSans-20" transform="translate(531.25 0)"/>
     <use xlink:href="#DejaVuSans-32" transform="translate(563.037109 0)"/>
     <use xlink:href="#DejaVuSans-38" transform="translate(626.660156 0)"/>
     <use xlink:href="#DejaVuSans-33" transform="translate(690.283203 0)"/>
    </g>
    <!-- value = 0.067 -->
    <g transform="translate(500.869058 582.621066) scale(0.078894 -0.078894)">
     <use xlink:href="#DejaVuSans-76"/>
     <use xlink:href="#DejaVuSans-61" transform="translate(59.179688 0)"/>
     <use xlink:href="#DejaVuSans-6c" transform="translate(120.458984 0)"/>
     <use xlink:href="#DejaVuSans-75" transform="translate(148.242188 0)"/>
     <use xlink:href="#DejaVuSans-65" transform="translate(211.621094 0)"/>
     <use xlink:href="#DejaVuSans-20" transform="translate(273.144531 0)"/>
     <use xlink:href="#DejaVuSans-3d" transform="translate(304.931641 0)"/>
     <use xlink:href="#DejaVuSans-20" transform="translate(388.720703 0)"/>
     <use xlink:href="#DejaVuSans-30" transform="translate(420.507812 0)"/>
     <use xlink:href="#DejaVuSans-2e" transform="translate(484.130859 0)"/>
     <use xlink:href="#DejaVuSans-30" transform="translate(515.917969 0)"/>
     <use xlink:href="#DejaVuSans-36" transform="translate(579.541016 0)"/>
     <use xlink:href="#DejaVuSans-37" transform="translate(643.164062 0)"/>
    </g>
   </g>
   <g id="patch_8">
    <path d="M 658.872301 552.865604 
Q 629.386094 494.273658 599.397295 434.683013 
" style="fill: none; stroke: #000000; stroke-linecap: round"/>
    <path d="M 658.863148 549.337378 
L 658.872301 552.865604 
L 656.044229 550.75599 
" style="fill: none; stroke: #000000; stroke-linecap: round"/>
   </g>
   <g id="text_4">
    <g id="patch_9">
     <path d="M 628.702639 586.628624 
L 707.797361 586.628624 
Q 710.164175 586.628624 710.164175 584.26181 
L 710.164175 558.518766 
Q 710.164175 556.151953 707.797361 556.151953 
L 628.702639 556.151953 
Q 626.335825 556.151953 626.335825 558.518766 
L 626.335825 584.26181 
Q 626.335825 586.628624 628.702639 586.628624 
z
" style="fill: #e58139; stroke: #000000; stroke-linejoin: miter"/>
    </g>
    <!-- squared_error = 0.0 -->
    <g transform="translate(628.702639 564.732885) scale(0.078894 -0.078894)">
     <use xlink:href="#DejaVuSans-73"/>
     <use xlink:href="#DejaVuSans-71" transform="translate(52.099609 0)"/>
     <use xlink:href="#DejaVuSans-75" transform="translate(115.576172 0)"/>
     <use xlink:href="#DejaVuSans-61" transform="translate(178.955078 0)"/>
     <use xlink:href="#DejaVuSans-72" transform="translate(240.234375 0)"/>
     <use xlink:href="#DejaVuSans-65" transform="translate(279.097656 0)"/>
     <use xlink:href="#DejaVuSans-64" transform="translate(340.621094 0)"/>
     <use xlink:href="#DejaVuSans-5f" transform="translate(404.097656 0)"/>
     <use xlink:href="#DejaVuSans-65" transform="translate(454.097656 0)"/>
     <use xlink:href="#DejaVuSans-72" transform="translate(515.621094 0)"/>
     <use xlink:href="#DejaVuSans-72" transform="translate(554.984375 0)"/>
     <use xlink:href="#DejaVuSans-6f" transform="translate(593.847656 0)"/>
     <use xlink:href="#DejaVuSans-72" transform="translate(655.029297 0)"/>
     <use xlink:href="#DejaVuSans-20" transform="translate(696.142578 0)"/>
     <use xlink:href="#DejaVuSans-3d" transform="translate(727.929688 0)"/>
     <use xlink:href="#DejaVuSans-20" transform="translate(811.71875 0)"/>
     <use xlink:href="#DejaVuSans-30" transform="translate(843.505859 0)"/>
     <use xlink:href="#DejaVuSans-2e" transform="translate(907.128906 0)"/>
     <use xlink:href="#DejaVuSans-30" transform="translate(938.916016 0)"/>
    </g>
    <!-- samples = 7 -->
    <g transform="translate(643.530357 573.786687) scale(0.078894 -0.078894)">
     <use xlink:href="#DejaVuSans-73"/>
     <use xlink:href="#DejaVuSans-61" transform="translate(52.099609 0)"/>
     <use xlink:href="#DejaVuSans-6d" transform="translate(113.378906 0)"/>
     <use xlink:href="#DejaVuSans-70" transform="translate(210.791016 0)"/>
     <use xlink:href="#DejaVuSans-6c" transform="translate(274.267578 0)"/>
     <use xlink:href="#DejaVuSans-65" transform="translate(302.050781 0)"/>
     <use xlink:href="#DejaVuSans-73" transform="translate(363.574219 0)"/>
     <use xlink:href="#DejaVuSans-20" transform="translate(415.673828 0)"/>
     <use xlink:href="#DejaVuSans-3d" transform="translate(447.460938 0)"/>
     <use xlink:href="#DejaVuSans-20" transform="translate(531.25 0)"/>
     <use xlink:href="#DejaVuSans-37" transform="translate(563.037109 0)"/>
    </g>
    <!-- value = 1.0 -->
    <g transform="translate(645.388675 582.621066) scale(0.078894 -0.078894)">
     <use xlink:href="#DejaVuSans-76"/>
     <use xlink:href="#DejaVuSans-61" transform="translate(59.179688 0)"/>
     <use xlink:href="#DejaVuSans-6c" transform="translate(120.458984 0)"/>
     <use xlink:href="#DejaVuSans-75" transform="translate(148.242188 0)"/>
     <use xlink:href="#DejaVuSans-65" transform="translate(211.621094 0)"/>
     <use xlink:href="#DejaVuSans-20" transform="translate(273.144531 0)"/>
     <use xlink:href="#DejaVuSans-3d" transform="translate(304.931641 0)"/>
     <use xlink:href="#DejaVuSans-20" transform="translate(388.720703 0)"/>
     <use xlink:href="#DejaVuSans-31" transform="translate(420.507812 0)"/>
     <use xlink:href="#DejaVuSans-2e" transform="translate(484.130859 0)"/>
     <use xlink:href="#DejaVuSans-30" transform="translate(515.917969 0)"/>
    </g>
   </g>
   <g id="patch_10">
    <path d="M 817.127699 552.865604 
Q 846.613906 494.273658 876.602705 434.683013 
" style="fill: none; stroke: #000000; stroke-linecap: round"/>
    <path d="M 819.955771 550.75599 
L 817.127699 552.865604 
L 817.136852 549.337378 
" style="fill: none; stroke: #000000; stroke-linecap: round"/>
   </g>
   <g id="text_5">
    <g id="patch_11">
     <path d="M 765.69283 586.628624 
L 849.80717 586.628624 
Q 852.173984 586.628624 852.173984 584.26181 
L 852.173984 558.518766 
Q 852.173984 556.151953 849.80717 556.151953 
L 765.69283 556.151953 
Q 763.326016 556.151953 763.326016 558.518766 
L 763.326016 584.26181 
Q 763.326016 586.628624 765.69283 586.628624 
z
" style="fill: #ea985d; stroke: #000000; stroke-linejoin: miter"/>
    </g>
    <!-- squared_error = 0.14 -->
    <g transform="translate(765.69283 564.732885) scale(0.078894 -0.078894)">
     <use xlink:href="#DejaVuSans-73"/>
     <use xlink:href="#DejaVuSans-71" transform="translate(52.099609 0)"/>
     <use xlink:href="#DejaVuSans-75" transform="translate(115.576172 0)"/>
     <use xlink:href="#DejaVuSans-61" transform="translate(178.955078 0)"/>
     <use xlink:href="#DejaVuSans-72" transform="translate(240.234375 0)"/>
     <use xlink:href="#DejaVuSans-65" transform="translate(279.097656 0)"/>
     <use xlink:href="#DejaVuSans-64" transform="translate(340.621094 0)"/>
     <use xlink:href="#DejaVuSans-5f" transform="translate(404.097656 0)"/>
     <use xlink:href="#DejaVuSans-65" transform="translate(454.097656 0)"/>
     <use xlink:href="#DejaVuSans-72" transform="translate(515.621094 0)"/>
     <use xlink:href="#DejaVuSans-72" transform="translate(554.984375 0)"/>
     <use xlink:href="#DejaVuSans-6f" transform="translate(593.847656 0)"/>
     <use xlink:href="#DejaVuSans-72" transform="translate(655.029297 0)"/>
     <use xlink:href="#DejaVuSans-20" transform="translate(696.142578 0)"/>
     <use xlink:href="#DejaVuSans-3d" transform="translate(727.929688 0)"/>
     <use xlink:href="#DejaVuSans-20" transform="translate(811.71875 0)"/>
     <use xlink:href="#DejaVuSans-30" transform="translate(843.505859 0)"/>
     <use xlink:href="#DejaVuSans-2e" transform="translate(907.128906 0)"/>
     <use xlink:href="#DejaVuSans-31" transform="translate(938.916016 0)"/>
     <use xlink:href="#DejaVuSans-34" transform="translate(1002.539062 0)"/>
    </g>
    <!-- samples = 1108 -->
    <g transform="translate(775.500931 573.786687) scale(0.078894 -0.078894)">
     <use xlink:href="#DejaVuSans-73"/>
     <use xlink:href="#DejaVuSans-61" transform="translate(52.099609 0)"/>
     <use xlink:href="#DejaVuSans-6d" transform="translate(113.378906 0)"/>
     <use xlink:href="#DejaVuSans-70" transform="translate(210.791016 0)"/>
     <use xlink:href="#DejaVuSans-6c" transform="translate(274.267578 0)"/>
     <use xlink:href="#DejaVuSans-65" transform="translate(302.050781 0)"/>
     <use xlink:href="#DejaVuSans-73" transform="translate(363.574219 0)"/>
     <use xlink:href="#DejaVuSans-20" transform="translate(415.673828 0)"/>
     <use xlink:href="#DejaVuSans-3d" transform="translate(447.460938 0)"/>
     <use xlink:href="#DejaVuSans-20" transform="translate(531.25 0)"/>
     <use xlink:href="#DejaVuSans-31" transform="translate(563.037109 0)"/>
     <use xlink:href="#DejaVuSans-31" transform="translate(626.660156 0)"/>
     <use xlink:href="#DejaVuSans-30" transform="translate(690.283203 0)"/>
     <use xlink:href="#DejaVuSans-38" transform="translate(753.90625 0)"/>
    </g>
    <!-- value = 0.832 -->
    <g transform="translate(779.869058 582.621066) scale(0.078894 -0.078894)">
     <use xlink:href="#DejaVuSans-76"/>
     <use xlink:href="#DejaVuSans-61" transform="translate(59.179688 0)"/>
     <use xlink:href="#DejaVuSans-6c" transform="translate(120.458984 0)"/>
     <use xlink:href="#DejaVuSans-75" transform="translate(148.242188 0)"/>
     <use xlink:href="#DejaVuSans-65" transform="translate(211.621094 0)"/>
     <use xlink:href="#DejaVuSans-20" transform="translate(273.144531 0)"/>
     <use xlink:href="#DejaVuSans-3d" transform="translate(304.931641 0)"/>
     <use xlink:href="#DejaVuSans-20" transform="translate(388.720703 0)"/>
     <use xlink:href="#DejaVuSans-30" transform="translate(420.507812 0)"/>
     <use xlink:href="#DejaVuSans-2e" transform="translate(484.130859 0)"/>
     <use xlink:href="#DejaVuSans-38" transform="translate(515.917969 0)"/>
     <use xlink:href="#DejaVuSans-33" transform="translate(579.541016 0)"/>
     <use xlink:href="#DejaVuSans-32" transform="translate(643.164062 0)"/>
    </g>
   </g>
   <g id="patch_12">
    <path d="M 937.872301 552.865604 
Q 908.386094 494.273658 878.397295 434.683013 
" style="fill: none; stroke: #000000; stroke-linecap: round"/>
    <path d="M 937.863148 549.337378 
L 937.872301 552.865604 
L 935.044229 550.75599 
" style="fill: none; stroke: #000000; stroke-linecap: round"/>
   </g>
   <g id="text_6">
    <g id="patch_13">
     <path d="M 905.19283 586.628624 
L 989.30717 586.628624 
Q 991.673984 586.628624 991.673984 584.26181 
L 991.673984 558.518766 
Q 991.673984 556.151953 989.30717 556.151953 
L 905.19283 556.151953 
Q 902.826016 556.151953 902.826016 558.518766 
L 902.826016 584.26181 
Q 902.826016 586.628624 905.19283 586.628624 
z
" style="fill: #f3c6a5; stroke: #000000; stroke-linejoin: miter"/>
    </g>
    <!-- squared_error = 0.25 -->
    <g transform="translate(905.19283 564.732885) scale(0.078894 -0.078894)">
     <use xlink:href="#DejaVuSans-73"/>
     <use xlink:href="#DejaVuSans-71" transform="translate(52.099609 0)"/>
     <use xlink:href="#DejaVuSans-75" transform="translate(115.576172 0)"/>
     <use xlink:href="#DejaVuSans-61" transform="translate(178.955078 0)"/>
     <use xlink:href="#DejaVuSans-72" transform="translate(240.234375 0)"/>
     <use xlink:href="#DejaVuSans-65" transform="translate(279.097656 0)"/>
     <use xlink:href="#DejaVuSans-64" transform="translate(340.621094 0)"/>
     <use xlink:href="#DejaVuSans-5f" transform="translate(404.097656 0)"/>
     <use xlink:href="#DejaVuSans-65" transform="translate(454.097656 0)"/>
     <use xlink:href="#DejaVuSans-72" transform="translate(515.621094 0)"/>
     <use xlink:href="#DejaVuSans-72" transform="translate(554.984375 0)"/>
     <use xlink:href="#DejaVuSans-6f" transform="translate(593.847656 0)"/>
     <use xlink:href="#DejaVuSans-72" transform="translate(655.029297 0)"/>
     <use xlink:href="#DejaVuSans-20" transform="translate(696.142578 0)"/>
     <use xlink:href="#DejaVuSans-3d" transform="translate(727.929688 0)"/>
     <use xlink:href="#DejaVuSans-20" transform="translate(811.71875 0)"/>
     <use xlink:href="#DejaVuSans-30" transform="translate(843.505859 0)"/>
     <use xlink:href="#DejaVuSans-2e" transform="translate(907.128906 0)"/>
     <use xlink:href="#DejaVuSans-32" transform="translate(938.916016 0)"/>
     <use xlink:href="#DejaVuSans-35" transform="translate(1002.539062 0)"/>
    </g>
    <!-- samples = 114 -->
    <g transform="translate(917.510739 573.786687) scale(0.078894 -0.078894)">
     <use xlink:href="#DejaVuSans-73"/>
     <use xlink:href="#DejaVuSans-61" transform="translate(52.099609 0)"/>
     <use xlink:href="#DejaVuSans-6d" transform="translate(113.378906 0)"/>
     <use xlink:href="#DejaVuSans-70" transform="translate(210.791016 0)"/>
     <use xlink:href="#DejaVuSans-6c" transform="translate(274.267578 0)"/>
     <use xlink:href="#DejaVuSans-65" transform="translate(302.050781 0)"/>
     <use xlink:href="#DejaVuSans-73" transform="translate(363.574219 0)"/>
     <use xlink:href="#DejaVuSans-20" transform="translate(415.673828 0)"/>
     <use xlink:href="#DejaVuSans-3d" transform="translate(447.460938 0)"/>
     <use xlink:href="#DejaVuSans-20" transform="translate(531.25 0)"/>
     <use xlink:href="#DejaVuSans-31" transform="translate(563.037109 0)"/>
     <use xlink:href="#DejaVuSans-31" transform="translate(626.660156 0)"/>
     <use xlink:href="#DejaVuSans-34" transform="translate(690.283203 0)"/>
    </g>
    <!-- value = 0.491 -->
    <g transform="translate(919.369058 582.621066) scale(0.078894 -0.078894)">
     <use xlink:href="#DejaVuSans-76"/>
     <use xlink:href="#DejaVuSans-61" transform="translate(59.179688 0)"/>
     <use xlink:href="#DejaVuSans-6c" transform="translate(120.458984 0)"/>
     <use xlink:href="#DejaVuSans-75" transform="translate(148.242188 0)"/>
     <use xlink:href="#DejaVuSans-65" transform="translate(211.621094 0)"/>
     <use xlink:href="#DejaVuSans-20" transform="translate(273.144531 0)"/>
     <use xlink:href="#DejaVuSans-3d" transform="translate(304.931641 0)"/>
     <use xlink:href="#DejaVuSans-20" transform="translate(388.720703 0)"/>
     <use xlink:href="#DejaVuSans-30" transform="translate(420.507812 0)"/>
     <use xlink:href="#DejaVuSans-2e" transform="translate(484.130859 0)"/>
     <use xlink:href="#DejaVuSans-34" transform="translate(515.917969 0)"/>
     <use xlink:href="#DejaVuSans-39" transform="translate(579.541016 0)"/>
     <use xlink:href="#DejaVuSans-31" transform="translate(643.164062 0)"/>
    </g>
   </g>
   <g id="patch_14">
    <path d="M 1096.127699 552.865604 
Q 1125.613906 494.273658 1155.602705 434.683013 
" style="fill: none; stroke: #000000; stroke-linecap: round"/>
    <path d="M 1098.955771 550.75599 
L 1096.127699 552.865604 
L 1096.136852 549.337378 
" style="fill: none; stroke: #000000; stroke-linecap: round"/>
   </g>
   <g id="text_7">
    <g id="patch_15">
     <path d="M 1042.183021 586.628624 
L 1131.316979 586.628624 
Q 1133.683793 586.628624 1133.683793 584.26181 
L 1133.683793 558.518766 
Q 1133.683793 556.151953 1131.316979 556.151953 
L 1042.183021 556.151953 
Q 1039.816207 556.151953 1039.816207 558.518766 
L 1039.816207 584.26181 
Q 1039.816207 586.628624 1042.183021 586.628624 
z
" style="fill: #e99558; stroke: #000000; stroke-linejoin: miter"/>
    </g>
    <!-- squared_error = 0.126 -->
    <g transform="translate(1042.183021 564.732885) scale(0.078894 -0.078894)">
     <use xlink:href="#DejaVuSans-73"/>
     <use xlink:href="#DejaVuSans-71" transform="translate(52.099609 0)"/>
     <use xlink:href="#DejaVuSans-75" transform="translate(115.576172 0)"/>
     <use xlink:href="#DejaVuSans-61" transform="translate(178.955078 0)"/>
     <use xlink:href="#DejaVuSans-72" transform="translate(240.234375 0)"/>
     <use xlink:href="#DejaVuSans-65" transform="translate(279.097656 0)"/>
     <use xlink:href="#DejaVuSans-64" transform="translate(340.621094 0)"/>
     <use xlink:href="#DejaVuSans-5f" transform="translate(404.097656 0)"/>
     <use xlink:href="#DejaVuSans-65" transform="translate(454.097656 0)"/>
     <use xlink:href="#DejaVuSans-72" transform="translate(515.621094 0)"/>
     <use xlink:href="#DejaVuSans-72" transform="translate(554.984375 0)"/>
     <use xlink:href="#DejaVuSans-6f" transform="translate(593.847656 0)"/>
     <use xlink:href="#DejaVuSans-72" transform="translate(655.029297 0)"/>
     <use xlink:href="#DejaVuSans-20" transform="translate(696.142578 0)"/>
     <use xlink:href="#DejaVuSans-3d" transform="translate(727.929688 0)"/>
     <use xlink:href="#DejaVuSans-20" transform="translate(811.71875 0)"/>
     <use xlink:href="#DejaVuSans-30" transform="translate(843.505859 0)"/>
     <use xlink:href="#DejaVuSans-2e" transform="translate(907.128906 0)"/>
     <use xlink:href="#DejaVuSans-31" transform="translate(938.916016 0)"/>
     <use xlink:href="#DejaVuSans-32" transform="translate(1002.539062 0)"/>
     <use xlink:href="#DejaVuSans-36" transform="translate(1066.162109 0)"/>
    </g>
    <!-- samples = 61 -->
    <g transform="translate(1059.520548 573.786687) scale(0.078894 -0.078894)">
     <use xlink:href="#DejaVuSans-73"/>
     <use xlink:href="#DejaVuSans-61" transform="translate(52.099609 0)"/>
     <use xlink:href="#DejaVuSans-6d" transform="translate(113.378906 0)"/>
     <use xlink:href="#DejaVuSans-70" transform="translate(210.791016 0)"/>
     <use xlink:href="#DejaVuSans-6c" transform="translate(274.267578 0)"/>
     <use xlink:href="#DejaVuSans-65" transform="translate(302.050781 0)"/>
     <use xlink:href="#DejaVuSans-73" transform="translate(363.574219 0)"/>
     <use xlink:href="#DejaVuSans-20" transform="translate(415.673828 0)"/>
     <use xlink:href="#DejaVuSans-3d" transform="translate(447.460938 0)"/>
     <use xlink:href="#DejaVuSans-20" transform="translate(531.25 0)"/>
     <use xlink:href="#DejaVuSans-36" transform="translate(563.037109 0)"/>
     <use xlink:href="#DejaVuSans-31" transform="translate(626.660156 0)"/>
    </g>
    <!-- value = 0.852 -->
    <g transform="translate(1058.869058 582.621066) scale(0.078894 -0.078894)">
     <use xlink:href="#DejaVuSans-76"/>
     <use xlink:href="#DejaVuSans-61" transform="translate(59.179688 0)"/>
     <use xlink:href="#DejaVuSans-6c" transform="translate(120.458984 0)"/>
     <use xlink:href="#DejaVuSans-75" transform="translate(148.242188 0)"/>
     <use xlink:href="#DejaVuSans-65" transform="translate(211.621094 0)"/>
     <use xlink:href="#DejaVuSans-20" transform="translate(273.144531 0)"/>
     <use xlink:href="#DejaVuSans-3d" transform="translate(304.931641 0)"/>
     <use xlink:href="#DejaVuSans-20" transform="translate(388.720703 0)"/>
     <use xlink:href="#DejaVuSans-30" transform="translate(420.507812 0)"/>
     <use xlink:href="#DejaVuSans-2e" transform="translate(484.130859 0)"/>
     <use xlink:href="#DejaVuSans-38" transform="translate(515.917969 0)"/>
     <use xlink:href="#DejaVuSans-35" transform="translate(579.541016 0)"/>
     <use xlink:href="#DejaVuSans-32" transform="translate(643.164062 0)"/>
    </g>
   </g>
   <g id="patch_16">
    <path d="M 1216.872301 552.865604 
Q 1187.386094 494.273658 1157.397295 434.683013 
" style="fill: none; stroke: #000000; stroke-linecap: round"/>
    <path d="M 1216.863148 549.337378 
L 1216.872301 552.865604 
L 1214.044229 550.75599 
" style="fill: none; stroke: #000000; stroke-linecap: round"/>
   </g>
   <g id="text_8">
    <g id="patch_17">
     <path d="M 1184.19283 586.628624 
L 1268.30717 586.628624 
Q 1270.673984 586.628624 1270.673984 584.26181 
L 1270.673984 558.518766 
Q 1270.673984 556.151953 1268.30717 556.151953 
L 1184.19283 556.151953 
Q 1181.826016 556.151953 1181.826016 558.518766 
L 1181.826016 584.26181 
Q 1181.826016 586.628624 1184.19283 586.628624 
z
" style="fill: #fdf3ed; stroke: #000000; stroke-linejoin: miter"/>
    </g>
    <!-- squared_error = 0.13 -->
    <g transform="translate(1184.19283 564.732885) scale(0.078894 -0.078894)">
     <use xlink:href="#DejaVuSans-73"/>
     <use xlink:href="#DejaVuSans-71" transform="translate(52.099609 0)"/>
     <use xlink:href="#DejaVuSans-75" transform="translate(115.576172 0)"/>
     <use xlink:href="#DejaVuSans-61" transform="translate(178.955078 0)"/>
     <use xlink:href="#DejaVuSans-72" transform="translate(240.234375 0)"/>
     <use xlink:href="#DejaVuSans-65" transform="translate(279.097656 0)"/>
     <use xlink:href="#DejaVuSans-64" transform="translate(340.621094 0)"/>
     <use xlink:href="#DejaVuSans-5f" transform="translate(404.097656 0)"/>
     <use xlink:href="#DejaVuSans-65" transform="translate(454.097656 0)"/>
     <use xlink:href="#DejaVuSans-72" transform="translate(515.621094 0)"/>
     <use xlink:href="#DejaVuSans-72" transform="translate(554.984375 0)"/>
     <use xlink:href="#DejaVuSans-6f" transform="translate(593.847656 0)"/>
     <use xlink:href="#DejaVuSans-72" transform="translate(655.029297 0)"/>
     <use xlink:href="#DejaVuSans-20" transform="translate(696.142578 0)"/>
     <use xlink:href="#DejaVuSans-3d" transform="translate(727.929688 0)"/>
     <use xlink:href="#DejaVuSans-20" transform="translate(811.71875 0)"/>
     <use xlink:href="#DejaVuSans-30" transform="translate(843.505859 0)"/>
     <use xlink:href="#DejaVuSans-2e" transform="translate(907.128906 0)"/>
     <use xlink:href="#DejaVuSans-31" transform="translate(938.916016 0)"/>
     <use xlink:href="#DejaVuSans-33" transform="translate(1002.539062 0)"/>
    </g>
    <!-- samples = 176 -->
    <g transform="translate(1196.510739 573.786687) scale(0.078894 -0.078894)">
     <use xlink:href="#DejaVuSans-73"/>
     <use xlink:href="#DejaVuSans-61" transform="translate(52.099609 0)"/>
     <use xlink:href="#DejaVuSans-6d" transform="translate(113.378906 0)"/>
     <use xlink:href="#DejaVuSans-70" transform="translate(210.791016 0)"/>
     <use xlink:href="#DejaVuSans-6c" transform="translate(274.267578 0)"/>
     <use xlink:href="#DejaVuSans-65" transform="translate(302.050781 0)"/>
     <use xlink:href="#DejaVuSans-73" transform="translate(363.574219 0)"/>
     <use xlink:href="#DejaVuSans-20" transform="translate(415.673828 0)"/>
     <use xlink:href="#DejaVuSans-3d" transform="translate(447.460938 0)"/>
     <use xlink:href="#DejaVuSans-20" transform="translate(531.25 0)"/>
     <use xlink:href="#DejaVuSans-31" transform="translate(563.037109 0)"/>
     <use xlink:href="#DejaVuSans-37" transform="translate(626.660156 0)"/>
     <use xlink:href="#DejaVuSans-36" transform="translate(690.283203 0)"/>
    </g>
    <!-- value = 0.153 -->
    <g transform="translate(1198.369058 582.621066) scale(0.078894 -0.078894)">
     <use xlink:href="#DejaVuSans-76"/>
     <use xlink:href="#DejaVuSans-61" transform="translate(59.179688 0)"/>
     <use xlink:href="#DejaVuSans-6c" transform="translate(120.458984 0)"/>
     <use xlink:href="#DejaVuSans-75" transform="translate(148.242188 0)"/>
     <use xlink:href="#DejaVuSans-65" transform="translate(211.621094 0)"/>
     <use xlink:href="#DejaVuSans-20" transform="translate(273.144531 0)"/>
     <use xlink:href="#DejaVuSans-3d" transform="translate(304.931641 0)"/>
     <use xlink:href="#DejaVuSans-20" transform="translate(388.720703 0)"/>
     <use xlink:href="#DejaVuSans-30" transform="translate(420.507812 0)"/>
     <use xlink:href="#DejaVuSans-2e" transform="translate(484.130859 0)"/>
     <use xlink:href="#DejaVuSans-31" transform="translate(515.917969 0)"/>
     <use xlink:href="#DejaVuSans-35" transform="translate(579.541016 0)"/>
     <use xlink:href="#DejaVuSans-33" transform="translate(643.164062 0)"/>
    </g>
   </g>
   <g id="patch_18">
    <path d="M 341.888478 410.655964 
Q 399.337939 353.577144 457.580524 295.710318 
" style="fill: none; stroke: #000000; stroke-linecap: round"/>
    <path d="M 345.239251 409.551076 
L 341.888478 410.655964 
L 343.015031 407.312412 
" style="fill: none; stroke: #000000; stroke-linecap: round"/>
   </g>
   <g id="text_9">
    <g id="patch_19">
     <path d="M 277.44283 452.445813 
L 361.55717 452.445813 
Q 363.923984 452.445813 363.923984 450.079 
L 363.923984 415.721 
Q 363.923984 413.354187 361.55717 413.354187 
L 277.44283 413.354187 
Q 275.076016 413.354187 275.076016 415.721 
L 275.076016 450.079 
Q 275.076016 452.445813 277.44283 452.445813 
z
" style="fill: #f3c5a3; stroke: #000000; stroke-linejoin: miter"/>
    </g>
    <!-- else &lt;= 0.5 -->
    <g transform="translate(296.10306 421.715696) scale(0.078894 -0.078894)">
     <defs>
      <path id="DejaVuSans-3c" d="M 4684 3150 
L 1459 2003 
L 4684 863 
L 4684 294 
L 678 1747 
L 678 2266 
L 4684 3719 
L 4684 3150 
z
" transform="scale(0.015625)"/>
     </defs>
     <use xlink:href="#DejaVuSans-65"/>
     <use xlink:href="#DejaVuSans-6c" transform="translate(61.523438 0)"/>
     <use xlink:href="#DejaVuSans-73" transform="translate(89.306641 0)"/>
     <use xlink:href="#DejaVuSans-65" transform="translate(141.40625 0)"/>
     <use xlink:href="#DejaVuSans-20" transform="translate(202.929688 0)"/>
     <use xlink:href="#DejaVuSans-3c" transform="translate(234.716797 0)"/>
     <use xlink:href="#DejaVuSans-3d" transform="translate(318.505859 0)"/>
     <use xlink:href="#DejaVuSans-20" transform="translate(402.294922 0)"/>
     <use xlink:href="#DejaVuSans-30" transform="translate(434.082031 0)"/>
     <use xlink:href="#DejaVuSans-2e" transform="translate(497.705078 0)"/>
     <use xlink:href="#DejaVuSans-35" transform="translate(529.492188 0)"/>
    </g>
    <!-- squared_error = 0.25 -->
    <g transform="translate(277.44283 430.550074) scale(0.078894 -0.078894)">
     <use xlink:href="#DejaVuSans-73"/>
     <use xlink:href="#DejaVuSans-71" transform="translate(52.099609 0)"/>
     <use xlink:href="#DejaVuSans-75" transform="translate(115.576172 0)"/>
     <use xlink:href="#DejaVuSans-61" transform="translate(178.955078 0)"/>
     <use xlink:href="#DejaVuSans-72" transform="translate(240.234375 0)"/>
     <use xlink:href="#DejaVuSans-65" transform="translate(279.097656 0)"/>
     <use xlink:href="#DejaVuSans-64" transform="translate(340.621094 0)"/>
     <use xlink:href="#DejaVuSans-5f" transform="translate(404.097656 0)"/>
     <use xlink:href="#DejaVuSans-65" transform="translate(454.097656 0)"/>
     <use xlink:href="#DejaVuSans-72" transform="translate(515.621094 0)"/>
     <use xlink:href="#DejaVuSans-72" transform="translate(554.984375 0)"/>
     <use xlink:href="#DejaVuSans-6f" transform="translate(593.847656 0)"/>
     <use xlink:href="#DejaVuSans-72" transform="translate(655.029297 0)"/>
     <use xlink:href="#DejaVuSans-20" transform="translate(696.142578 0)"/>
     <use xlink:href="#DejaVuSans-3d" transform="translate(727.929688 0)"/>
     <use xlink:href="#DejaVuSans-20" transform="translate(811.71875 0)"/>
     <use xlink:href="#DejaVuSans-30" transform="translate(843.505859 0)"/>
     <use xlink:href="#DejaVuSans-2e" transform="translate(907.128906 0)"/>
     <use xlink:href="#DejaVuSans-32" transform="translate(938.916016 0)"/>
     <use xlink:href="#DejaVuSans-35" transform="translate(1002.539062 0)"/>
    </g>
    <!-- samples = 8193 -->
    <g transform="translate(287.250931 439.603877) scale(0.078894 -0.078894)">
     <use xlink:href="#DejaVuSans-73"/>
     <use xlink:href="#DejaVuSans-61" transform="translate(52.099609 0)"/>
     <use xlink:href="#DejaVuSans-6d" transform="translate(113.378906 0)"/>
     <use xlink:href="#DejaVuSans-70" transform="translate(210.791016 0)"/>
     <use xlink:href="#DejaVuSans-6c" transform="translate(274.267578 0)"/>
     <use xlink:href="#DejaVuSans-65" transform="translate(302.050781 0)"/>
     <use xlink:href="#DejaVuSans-73" transform="translate(363.574219 0)"/>
     <use xlink:href="#DejaVuSans-20" transform="translate(415.673828 0)"/>
     <use xlink:href="#DejaVuSans-3d" transform="translate(447.460938 0)"/>
     <use xlink:href="#DejaVuSans-20" transform="translate(531.25 0)"/>
     <use xlink:href="#DejaVuSans-38" transform="translate(563.037109 0)"/>
     <use xlink:href="#DejaVuSans-31" transform="translate(626.660156 0)"/>
     <use xlink:href="#DejaVuSans-39" transform="translate(690.283203 0)"/>
     <use xlink:href="#DejaVuSans-33" transform="translate(753.90625 0)"/>
    </g>
    <!-- value = 0.5 -->
    <g transform="translate(296.638675 448.438255) scale(0.078894 -0.078894)">
     <use xlink:href="#DejaVuSans-76"/>
     <use xlink:href="#DejaVuSans-61" transform="translate(59.179688 0)"/>
     <use xlink:href="#DejaVuSans-6c" transform="translate(120.458984 0)"/>
     <use xlink:href="#DejaVuSans-75" transform="translate(148.242188 0)"/>
     <use xlink:href="#DejaVuSans-65" transform="translate(211.621094 0)"/>
     <use xlink:href="#DejaVuSans-20" transform="translate(273.144531 0)"/>
     <use xlink:href="#DejaVuSans-3d" transform="translate(304.931641 0)"/>
     <use xlink:href="#DejaVuSans-20" transform="translate(388.720703 0)"/>
     <use xlink:href="#DejaVuSans-30" transform="translate(420.507812 0)"/>
     <use xlink:href="#DejaVuSans-2e" transform="translate(484.130859 0)"/>
     <use xlink:href="#DejaVuSans-35" transform="translate(515.917969 0)"/>
    </g>
   </g>
   <g id="patch_20">
    <path d="M 576.111522 410.655964 
Q 518.662061 353.577144 460.419476 295.710318 
" style="fill: none; stroke: #000000; stroke-linecap: round"/>
    <path d="M 574.984969 407.312412 
L 576.111522 410.655964 
L 572.760749 409.551076 
" style="fill: none; stroke: #000000; stroke-linecap: round"/>
   </g>
   <g id="text_10">
    <g id="patch_21">
     <path d="M 553.933021 452.445813 
L 643.066979 452.445813 
Q 645.433793 452.445813 645.433793 450.079 
L 645.433793 415.721 
Q 645.433793 413.354187 643.066979 413.354187 
L 553.933021 413.354187 
Q 551.566207 413.354187 551.566207 415.721 
L 551.566207 450.079 
Q 551.566207 452.445813 553.933021 452.445813 
z
" style="fill: #fefcfa; stroke: #000000; stroke-linejoin: miter"/>
    </g>
    <!-- integer &lt;= 0.5 -->
    <g transform="translate(568.98571 421.715696) scale(0.078894 -0.078894)">
     <defs>
      <path id="DejaVuSans-69" d="M 603 3500 
L 1178 3500 
L 1178 0 
L 603 0 
L 603 3500 
z
M 603 4863 
L 1178 4863 
L 1178 4134 
L 603 4134 
L 603 4863 
z
" transform="scale(0.015625)"/>
      <path id="DejaVuSans-6e" d="M 3513 2113 
L 3513 0 
L 2938 0 
L 2938 2094 
Q 2938 2591 2744 2837 
Q 2550 3084 2163 3084 
Q 1697 3084 1428 2787 
Q 1159 2491 1159 1978 
L 1159 0 
L 581 0 
L 581 3500 
L 1159 3500 
L 1159 2956 
Q 1366 3272 1645 3428 
Q 1925 3584 2291 3584 
Q 2894 3584 3203 3211 
Q 3513 2838 3513 2113 
z
" transform="scale(0.015625)"/>
      <path id="DejaVuSans-74" d="M 1172 4494 
L 1172 3500 
L 2356 3500 
L 2356 3053 
L 1172 3053 
L 1172 1153 
Q 1172 725 1289 603 
Q 1406 481 1766 481 
L 2356 481 
L 2356 0 
L 1766 0 
Q 1100 0 847 248 
Q 594 497 594 1153 
L 594 3053 
L 172 3053 
L 172 3500 
L 594 3500 
L 594 4494 
L 1172 4494 
z
" transform="scale(0.015625)"/>
      <path id="DejaVuSans-67" d="M 2906 1791 
Q 2906 2416 2648 2759 
Q 2391 3103 1925 3103 
Q 1463 3103 1205 2759 
Q 947 2416 947 1791 
Q 947 1169 1205 825 
Q 1463 481 1925 481 
Q 2391 481 2648 825 
Q 2906 1169 2906 1791 
z
M 3481 434 
Q 3481 -459 3084 -895 
Q 2688 -1331 1869 -1331 
Q 1566 -1331 1297 -1286 
Q 1028 -1241 775 -1147 
L 775 -588 
Q 1028 -725 1275 -790 
Q 1522 -856 1778 -856 
Q 2344 -856 2625 -561 
Q 2906 -266 2906 331 
L 2906 616 
Q 2728 306 2450 153 
Q 2172 0 1784 0 
Q 1141 0 747 490 
Q 353 981 353 1791 
Q 353 2603 747 3093 
Q 1141 3584 1784 3584 
Q 2172 3584 2450 3431 
Q 2728 3278 2906 2969 
L 2906 3500 
L 3481 3500 
L 3481 434 
z
" transform="scale(0.015625)"/>
     </defs>
     <use xlink:href="#DejaVuSans-69"/>
     <use xlink:href="#DejaVuSans-6e" transform="translate(27.783203 0)"/>
     <use xlink:href="#DejaVuSans-74" transform="translate(91.162109 0)"/>
     <use xlink:href="#DejaVuSans-65" transform="translate(130.371094 0)"/>
     <use xlink:href="#DejaVuSans-67" transform="translate(191.894531 0)"/>
     <use xlink:href="#DejaVuSans-65" transform="translate(255.371094 0)"/>
     <use xlink:href="#DejaVuSans-72" transform="translate(316.894531 0)"/>
     <use xlink:href="#DejaVuSans-20" transform="translate(358.007812 0)"/>
     <use xlink:href="#DejaVuSans-3c" transform="translate(389.794922 0)"/>
     <use xlink:href="#DejaVuSans-3d" transform="translate(473.583984 0)"/>
     <use xlink:href="#DejaVuSans-20" transform="translate(557.373047 0)"/>
     <use xlink:href="#DejaVuSans-30" transform="translate(589.160156 0)"/>
     <use xlink:href="#DejaVuSans-2e" transform="translate(652.783203 0)"/>
     <use xlink:href="#DejaVuSans-35" transform="translate(684.570312 0)"/>
    </g>
    <!-- squared_error = 0.082 -->
    <g transform="translate(553.933021 430.550074) scale(0.078894 -0.078894)">
     <use xlink:href="#DejaVuSans-73"/>
     <use xlink:href="#DejaVuSans-71" transform="translate(52.099609 0)"/>
     <use xlink:href="#DejaVuSans-75" transform="translate(115.576172 0)"/>
     <use xlink:href="#DejaVuSans-61" transform="translate(178.955078 0)"/>
     <use xlink:href="#DejaVuSans-72" transform="translate(240.234375 0)"/>
     <use xlink:href="#DejaVuSans-65" transform="translate(279.097656 0)"/>
     <use xlink:href="#DejaVuSans-64" transform="translate(340.621094 0)"/>
     <use xlink:href="#DejaVuSans-5f" transform="translate(404.097656 0)"/>
     <use xlink:href="#DejaVuSans-65" transform="translate(454.097656 0)"/>
     <use xlink:href="#DejaVuSans-72" transform="translate(515.621094 0)"/>
     <use xlink:href="#DejaVuSans-72" transform="translate(554.984375 0)"/>
     <use xlink:href="#DejaVuSans-6f" transform="translate(593.847656 0)"/>
     <use xlink:href="#DejaVuSans-72" transform="translate(655.029297 0)"/>
     <use xlink:href="#DejaVuSans-20" transform="translate(696.142578 0)"/>
     <use xlink:href="#DejaVuSans-3d" transform="translate(727.929688 0)"/>
     <use xlink:href="#DejaVuSans-20" transform="translate(811.71875 0)"/>
     <use xlink:href="#DejaVuSans-30" transform="translate(843.505859 0)"/>
     <use xlink:href="#DejaVuSans-2e" transform="translate(907.128906 0)"/>
     <use xlink:href="#DejaVuSans-30" transform="translate(938.916016 0)"/>
     <use xlink:href="#DejaVuSans-38" transform="translate(1002.539062 0)"/>
     <use xlink:href="#DejaVuSans-32" transform="translate(1066.162109 0)"/>
    </g>
    <!-- samples = 290 -->
    <g transform="translate(568.760739 439.603877) scale(0.078894 -0.078894)">
     <use xlink:href="#DejaVuSans-73"/>
     <use xlink:href="#DejaVuSans-61" transform="translate(52.099609 0)"/>
     <use xlink:href="#DejaVuSans-6d" transform="translate(113.378906 0)"/>
     <use xlink:href="#DejaVuSans-70" transform="translate(210.791016 0)"/>
     <use xlink:href="#DejaVuSans-6c" transform="translate(274.267578 0)"/>
     <use xlink:href="#DejaVuSans-65" transform="translate(302.050781 0)"/>
     <use xlink:href="#DejaVuSans-73" transform="translate(363.574219 0)"/>
     <use xlink:href="#DejaVuSans-20" transform="translate(415.673828 0)"/>
     <use xlink:href="#DejaVuSans-3d" transform="translate(447.460938 0)"/>
     <use xlink:href="#DejaVuSans-20" transform="translate(531.25 0)"/>
     <use xlink:href="#DejaVuSans-32" transform="translate(563.037109 0)"/>
     <use xlink:href="#DejaVuSans-39" transform="translate(626.660156 0)"/>
     <use xlink:href="#DejaVuSans-30" transform="translate(690.283203 0)"/>
    </g>
    <!-- value = 0.09 -->
    <g transform="translate(573.128866 448.438255) scale(0.078894 -0.078894)">
     <use xlink:href="#DejaVuSans-76"/>
     <use xlink:href="#DejaVuSans-61" transform="translate(59.179688 0)"/>
     <use xlink:href="#DejaVuSans-6c" transform="translate(120.458984 0)"/>
     <use xlink:href="#DejaVuSans-75" transform="translate(148.242188 0)"/>
     <use xlink:href="#DejaVuSans-65" transform="translate(211.621094 0)"/>
     <use xlink:href="#DejaVuSans-20" transform="translate(273.144531 0)"/>
     <use xlink:href="#DejaVuSans-3d" transform="translate(304.931641 0)"/>
     <use xlink:href="#DejaVuSans-20" transform="translate(388.720703 0)"/>
     <use xlink:href="#DejaVuSans-30" transform="translate(420.507812 0)"/>
     <use xlink:href="#DejaVuSans-2e" transform="translate(484.130859 0)"/>
     <use xlink:href="#DejaVuSans-30" transform="translate(515.917969 0)"/>
     <use xlink:href="#DejaVuSans-39" transform="translate(579.541016 0)"/>
    </g>
   </g>
   <g id="patch_22">
    <path d="M 900.148714 410.397407 
Q 957.467828 353.448093 1015.580067 295.710772 
" style="fill: none; stroke: #000000; stroke-linecap: round"/>
    <path d="M 903.499487 409.292519 
L 900.148714 410.397407 
L 901.275267 407.053855 
" style="fill: none; stroke: #000000; stroke-linecap: round"/>
   </g>
   <g id="text_11">
    <g id="patch_23">
     <path d="M 827.705075 452.485877 
L 927.294925 452.485877 
Q 929.661739 452.485877 929.661739 450.119063 
L 929.661739 415.461514 
Q 929.661739 413.0947 927.294925 413.0947 
L 827.705075 413.0947 
Q 825.338261 413.0947 825.338261 415.461514 
L 825.338261 450.119063 
Q 825.338261 452.485877 827.705075 452.485877 
z
" style="fill: #eb9c63; stroke: #000000; stroke-linejoin: miter"/>
    </g>
    <!-- assert_statement &lt;= 9.5 -->
    <g transform="translate(827.705075 421.536336) scale(0.078894 -0.078894)">
     <use xlink:href="#DejaVuSans-61"/>
     <use xlink:href="#DejaVuSans-73" transform="translate(61.279297 0)"/>
     <use xlink:href="#DejaVuSans-73" transform="translate(113.378906 0)"/>
     <use xlink:href="#DejaVuSans-65" transform="translate(165.478516 0)"/>
     <use xlink:href="#DejaVuSans-72" transform="translate(227.001953 0)"/>
     <use xlink:href="#DejaVuSans-74" transform="translate(268.115234 0)"/>
     <use xlink:href="#DejaVuSans-5f" transform="translate(307.324219 0)"/>
     <use xlink:href="#DejaVuSans-73" transform="translate(357.324219 0)"/>
     <use xlink:href="#DejaVuSans-74" transform="translate(409.423828 0)"/>
     <use xlink:href="#DejaVuSans-61" transform="translate(448.632812 0)"/>
     <use xlink:href="#DejaVuSans-74" transform="translate(509.912109 0)"/>
     <use xlink:href="#DejaVuSans-65" transform="translate(549.121094 0)"/>
     <use xlink:href="#DejaVuSans-6d" transform="translate(610.644531 0)"/>
     <use xlink:href="#DejaVuSans-65" transform="translate(708.056641 0)"/>
     <use xlink:href="#DejaVuSans-6e" transform="translate(769.580078 0)"/>
     <use xlink:href="#DejaVuSans-74" transform="translate(832.958984 0)"/>
     <use xlink:href="#DejaVuSans-20" transform="translate(872.167969 0)"/>
     <use xlink:href="#DejaVuSans-3c" transform="translate(903.955078 0)"/>
     <use xlink:href="#DejaVuSans-3d" transform="translate(987.744141 0)"/>
     <use xlink:href="#DejaVuSans-20" transform="translate(1071.533203 0)"/>
     <use xlink:href="#DejaVuSans-39" transform="translate(1103.320312 0)"/>
     <use xlink:href="#DejaVuSans-2e" transform="translate(1166.943359 0)"/>
     <use xlink:href="#DejaVuSans-35" transform="translate(1198.730469 0)"/>
    </g>
    <!-- squared_error = 0.16 -->
    <g transform="translate(835.44283 430.590138) scale(0.078894 -0.078894)">
     <use xlink:href="#DejaVuSans-73"/>
     <use xlink:href="#DejaVuSans-71" transform="translate(52.099609 0)"/>
     <use xlink:href="#DejaVuSans-75" transform="translate(115.576172 0)"/>
     <use xlink:href="#DejaVuSans-61" transform="translate(178.955078 0)"/>
     <use xlink:href="#DejaVuSans-72" transform="translate(240.234375 0)"/>
     <use xlink:href="#DejaVuSans-65" transform="translate(279.097656 0)"/>
     <use xlink:href="#DejaVuSans-64" transform="translate(340.621094 0)"/>
     <use xlink:href="#DejaVuSans-5f" transform="translate(404.097656 0)"/>
     <use xlink:href="#DejaVuSans-65" transform="translate(454.097656 0)"/>
     <use xlink:href="#DejaVuSans-72" transform="translate(515.621094 0)"/>
     <use xlink:href="#DejaVuSans-72" transform="translate(554.984375 0)"/>
     <use xlink:href="#DejaVuSans-6f" transform="translate(593.847656 0)"/>
     <use xlink:href="#DejaVuSans-72" transform="translate(655.029297 0)"/>
     <use xlink:href="#DejaVuSans-20" transform="translate(696.142578 0)"/>
     <use xlink:href="#DejaVuSans-3d" transform="translate(727.929688 0)"/>
     <use xlink:href="#DejaVuSans-20" transform="translate(811.71875 0)"/>
     <use xlink:href="#DejaVuSans-30" transform="translate(843.505859 0)"/>
     <use xlink:href="#DejaVuSans-2e" transform="translate(907.128906 0)"/>
     <use xlink:href="#DejaVuSans-31" transform="translate(938.916016 0)"/>
     <use xlink:href="#DejaVuSans-36" transform="translate(1002.539062 0)"/>
    </g>
    <!-- samples = 1222 -->
    <g transform="translate(845.250931 439.64394) scale(0.078894 -0.078894)">
     <use xlink:href="#DejaVuSans-73"/>
     <use xlink:href="#DejaVuSans-61" transform="translate(52.099609 0)"/>
     <use xlink:href="#DejaVuSans-6d" transform="translate(113.378906 0)"/>
     <use xlink:href="#DejaVuSans-70" transform="translate(210.791016 0)"/>
     <use xlink:href="#DejaVuSans-6c" transform="translate(274.267578 0)"/>
     <use xlink:href="#DejaVuSans-65" transform="translate(302.050781 0)"/>
     <use xlink:href="#DejaVuSans-73" transform="translate(363.574219 0)"/>
     <use xlink:href="#DejaVuSans-20" transform="translate(415.673828 0)"/>
     <use xlink:href="#DejaVuSans-3d" transform="translate(447.460938 0)"/>
     <use xlink:href="#DejaVuSans-20" transform="translate(531.25 0)"/>
     <use xlink:href="#DejaVuSans-31" transform="translate(563.037109 0)"/>
     <use xlink:href="#DejaVuSans-32" transform="translate(626.660156 0)"/>
     <use xlink:href="#DejaVuSans-32" transform="translate(690.283203 0)"/>
     <use xlink:href="#DejaVuSans-32" transform="translate(753.90625 0)"/>
    </g>
    <!-- value = 0.8 -->
    <g transform="translate(854.638675 448.478319) scale(0.078894 -0.078894)">
     <use xlink:href="#DejaVuSans-76"/>
     <use xlink:href="#DejaVuSans-61" transform="translate(59.179688 0)"/>
     <use xlink:href="#DejaVuSans-6c" transform="translate(120.458984 0)"/>
     <use xlink:href="#DejaVuSans-75" transform="translate(148.242188 0)"/>
     <use xlink:href="#DejaVuSans-65" transform="translate(211.621094 0)"/>
     <use xlink:href="#DejaVuSans-20" transform="translate(273.144531 0)"/>
     <use xlink:href="#DejaVuSans-3d" transform="translate(304.931641 0)"/>
     <use xlink:href="#DejaVuSans-20" transform="translate(388.720703 0)"/>
     <use xlink:href="#DejaVuSans-30" transform="translate(420.507812 0)"/>
     <use xlink:href="#DejaVuSans-2e" transform="translate(484.130859 0)"/>
     <use xlink:href="#DejaVuSans-38" transform="translate(515.917969 0)"/>
    </g>
   </g>
   <g id="patch_24">
    <path d="M 1133.779776 410.326359 
Q 1076.495985 353.41214 1018.41907 295.709915 
" style="fill: none; stroke: #000000; stroke-linecap: round"/>
    <path d="M 1132.653223 406.982807 
L 1133.779776 410.326359 
L 1130.429003 409.22147 
" style="fill: none; stroke: #000000; stroke-linecap: round"/>
   </g>
   <g id="text_12">
    <g id="patch_25">
     <path d="M 1111.933021 452.555525 
L 1201.066979 452.555525 
Q 1203.433793 452.555525 1203.433793 450.188711 
L 1203.433793 415.391865 
Q 1203.433793 413.025052 1201.066979 413.025052 
L 1111.933021 413.025052 
Q 1109.566207 413.025052 1109.566207 415.391865 
L 1109.566207 450.188711 
Q 1109.566207 452.555525 1111.933021 452.555525 
z
" style="fill: #f8dbc6; stroke: #000000; stroke-linejoin: miter"/>
    </g>
    <!-- if_clause &lt;= 1.5 -->
    <g transform="translate(1123.987129 421.605984) scale(0.078894 -0.078894)">
     <defs>
      <path id="DejaVuSans-66" d="M 2375 4863 
L 2375 4384 
L 1825 4384 
Q 1516 4384 1395 4259 
Q 1275 4134 1275 3809 
L 1275 3500 
L 2222 3500 
L 2222 3053 
L 1275 3053 
L 1275 0 
L 697 0 
L 697 3053 
L 147 3053 
L 147 3500 
L 697 3500 
L 697 3744 
Q 697 4328 969 4595 
Q 1241 4863 1831 4863 
L 2375 4863 
z
" transform="scale(0.015625)"/>
      <path id="DejaVuSans-63" d="M 3122 3366 
L 3122 2828 
Q 2878 2963 2633 3030 
Q 2388 3097 2138 3097 
Q 1578 3097 1268 2742 
Q 959 2388 959 1747 
Q 959 1106 1268 751 
Q 1578 397 2138 397 
Q 2388 397 2633 464 
Q 2878 531 3122 666 
L 3122 134 
Q 2881 22 2623 -34 
Q 2366 -91 2075 -91 
Q 1284 -91 818 406 
Q 353 903 353 1747 
Q 353 2603 823 3093 
Q 1294 3584 2113 3584 
Q 2378 3584 2631 3529 
Q 2884 3475 3122 3366 
z
" transform="scale(0.015625)"/>
     </defs>
     <use xlink:href="#DejaVuSans-69"/>
     <use xlink:href="#DejaVuSans-66" transform="translate(27.783203 0)"/>
     <use xlink:href="#DejaVuSans-5f" transform="translate(62.988281 0)"/>
     <use xlink:href="#DejaVuSans-63" transform="translate(112.988281 0)"/>
     <use xlink:href="#DejaVuSans-6c" transform="translate(167.96875 0)"/>
     <use xlink:href="#DejaVuSans-61" transform="translate(195.751953 0)"/>
     <use xlink:href="#DejaVuSans-75" transform="translate(257.03125 0)"/>
     <use xlink:href="#DejaVuSans-73" transform="translate(320.410156 0)"/>
     <use xlink:href="#DejaVuSans-65" transform="translate(372.509766 0)"/>
     <use xlink:href="#DejaVuSans-20" transform="translate(434.033203 0)"/>
     <use xlink:href="#DejaVuSans-3c" transform="translate(465.820312 0)"/>
     <use xlink:href="#DejaVuSans-3d" transform="translate(549.609375 0)"/>
     <use xlink:href="#DejaVuSans-20" transform="translate(633.398438 0)"/>
     <use xlink:href="#DejaVuSans-31" transform="translate(665.185547 0)"/>
     <use xlink:href="#DejaVuSans-2e" transform="translate(728.808594 0)"/>
     <use xlink:href="#DejaVuSans-35" transform="translate(760.595703 0)"/>
    </g>
    <!-- squared_error = 0.222 -->
    <g transform="translate(1111.933021 430.659786) scale(0.078894 -0.078894)">
     <use xlink:href="#DejaVuSans-73"/>
     <use xlink:href="#DejaVuSans-71" transform="translate(52.099609 0)"/>
     <use xlink:href="#DejaVuSans-75" transform="translate(115.576172 0)"/>
     <use xlink:href="#DejaVuSans-61" transform="translate(178.955078 0)"/>
     <use xlink:href="#DejaVuSans-72" transform="translate(240.234375 0)"/>
     <use xlink:href="#DejaVuSans-65" transform="translate(279.097656 0)"/>
     <use xlink:href="#DejaVuSans-64" transform="translate(340.621094 0)"/>
     <use xlink:href="#DejaVuSans-5f" transform="translate(404.097656 0)"/>
     <use xlink:href="#DejaVuSans-65" transform="translate(454.097656 0)"/>
     <use xlink:href="#DejaVuSans-72" transform="translate(515.621094 0)"/>
     <use xlink:href="#DejaVuSans-72" transform="translate(554.984375 0)"/>
     <use xlink:href="#DejaVuSans-6f" transform="translate(593.847656 0)"/>
     <use xlink:href="#DejaVuSans-72" transform="translate(655.029297 0)"/>
     <use xlink:href="#DejaVuSans-20" transform="translate(696.142578 0)"/>
     <use xlink:href="#DejaVuSans-3d" transform="translate(727.929688 0)"/>
     <use xlink:href="#DejaVuSans-20" transform="translate(811.71875 0)"/>
     <use xlink:href="#DejaVuSans-30" transform="translate(843.505859 0)"/>
     <use xlink:href="#DejaVuSans-2e" transform="translate(907.128906 0)"/>
     <use xlink:href="#DejaVuSans-32" transform="translate(938.916016 0)"/>
     <use xlink:href="#DejaVuSans-32" transform="translate(1002.539062 0)"/>
     <use xlink:href="#DejaVuSans-32" transform="translate(1066.162109 0)"/>
    </g>
    <!-- samples = 237 -->
    <g transform="translate(1126.760739 439.713588) scale(0.078894 -0.078894)">
     <use xlink:href="#DejaVuSans-73"/>
     <use xlink:href="#DejaVuSans-61" transform="translate(52.099609 0)"/>
     <use xlink:href="#DejaVuSans-6d" transform="translate(113.378906 0)"/>
     <use xlink:href="#DejaVuSans-70" transform="translate(210.791016 0)"/>
     <use xlink:href="#DejaVuSans-6c" transform="translate(274.267578 0)"/>
     <use xlink:href="#DejaVuSans-65" transform="translate(302.050781 0)"/>
     <use xlink:href="#DejaVuSans-73" transform="translate(363.574219 0)"/>
     <use xlink:href="#DejaVuSans-20" transform="translate(415.673828 0)"/>
     <use xlink:href="#DejaVuSans-3d" transform="translate(447.460938 0)"/>
     <use xlink:href="#DejaVuSans-20" transform="translate(531.25 0)"/>
     <use xlink:href="#DejaVuSans-32" transform="translate(563.037109 0)"/>
     <use xlink:href="#DejaVuSans-33" transform="translate(626.660156 0)"/>
     <use xlink:href="#DejaVuSans-37" transform="translate(690.283203 0)"/>
    </g>
    <!-- value = 0.333 -->
    <g transform="translate(1128.619058 448.547967) scale(0.078894 -0.078894)">
     <use xlink:href="#DejaVuSans-76"/>
     <use xlink:href="#DejaVuSans-61" transform="translate(59.179688 0)"/>
     <use xlink:href="#DejaVuSans-6c" transform="translate(120.458984 0)"/>
     <use xlink:href="#DejaVuSans-75" transform="translate(148.242188 0)"/>
     <use xlink:href="#DejaVuSans-65" transform="translate(211.621094 0)"/>
     <use xlink:href="#DejaVuSans-20" transform="translate(273.144531 0)"/>
     <use xlink:href="#DejaVuSans-3d" transform="translate(304.931641 0)"/>
     <use xlink:href="#DejaVuSans-20" transform="translate(388.720703 0)"/>
     <use xlink:href="#DejaVuSans-30" transform="translate(420.507812 0)"/>
     <use xlink:href="#DejaVuSans-2e" transform="translate(484.130859 0)"/>
     <use xlink:href="#DejaVuSans-33" transform="translate(515.917969 0)"/>
     <use xlink:href="#DejaVuSans-33" transform="translate(579.541016 0)"/>
     <use xlink:href="#DejaVuSans-33" transform="translate(643.164062 0)"/>
    </g>
   </g>
   <g id="patch_26">
    <path d="M 502.80967 272.536487 
Q 619.008597 214.811858 736.208813 156.589816 
" style="fill: none; stroke: #000000; stroke-linecap: round"/>
    <path d="M 506.337895 272.545604 
L 502.80967 272.536487 
L 504.933899 269.719376 
" style="fill: none; stroke: #000000; stroke-linecap: round"/>
   </g>
   <g id="text_13">
    <g id="patch_27">
     <path d="M 391.556287 313.955525 
L 526.443713 313.955525 
Q 528.810526 313.955525 528.810526 311.588711 
L 528.810526 276.791865 
Q 528.810526 274.425052 526.443713 274.425052 
L 391.556287 274.425052 
Q 389.189474 274.425052 389.189474 276.791865 
L 389.189474 311.588711 
Q 389.189474 313.955525 391.556287 313.955525 
z
" style="fill: #f3c6a6; stroke: #000000; stroke-linejoin: miter"/>
    </g>
    <!-- dictionary_comprehension &lt;= 0.5 -->
    <g transform="translate(391.556287 283.005984) scale(0.078894 -0.078894)">
     <defs>
      <path id="DejaVuSans-79" d="M 2059 -325 
Q 1816 -950 1584 -1140 
Q 1353 -1331 966 -1331 
L 506 -1331 
L 506 -850 
L 844 -850 
Q 1081 -850 1212 -737 
Q 1344 -625 1503 -206 
L 1606 56 
L 191 3500 
L 800 3500 
L 1894 763 
L 2988 3500 
L 3597 3500 
L 2059 -325 
z
" transform="scale(0.015625)"/>
      <path id="DejaVuSans-68" d="M 3513 2113 
L 3513 0 
L 2938 0 
L 2938 2094 
Q 2938 2591 2744 2837 
Q 2550 3084 2163 3084 
Q 1697 3084 1428 2787 
Q 1159 2491 1159 1978 
L 1159 0 
L 581 0 
L 581 4863 
L 1159 4863 
L 1159 2956 
Q 1366 3272 1645 3428 
Q 1925 3584 2291 3584 
Q 2894 3584 3203 3211 
Q 3513 2838 3513 2113 
z
" transform="scale(0.015625)"/>
     </defs>
     <use xlink:href="#DejaVuSans-64"/>
     <use xlink:href="#DejaVuSans-69" transform="translate(63.476562 0)"/>
     <use xlink:href="#DejaVuSans-63" transform="translate(91.259766 0)"/>
     <use xlink:href="#DejaVuSans-74" transform="translate(146.240234 0)"/>
     <use xlink:href="#DejaVuSans-69" transform="translate(185.449219 0)"/>
     <use xlink:href="#DejaVuSans-6f" transform="translate(213.232422 0)"/>
     <use xlink:href="#DejaVuSans-6e" transform="translate(274.414062 0)"/>
     <use xlink:href="#DejaVuSans-61" transform="translate(337.792969 0)"/>
     <use xlink:href="#DejaVuSans-72" transform="translate(399.072266 0)"/>
     <use xlink:href="#DejaVuSans-79" transform="translate(440.185547 0)"/>
     <use xlink:href="#DejaVuSans-5f" transform="translate(499.365234 0)"/>
     <use xlink:href="#DejaVuSans-63" transform="translate(549.365234 0)"/>
     <use xlink:href="#DejaVuSans-6f" transform="translate(604.345703 0)"/>
     <use xlink:href="#DejaVuSans-6d" transform="translate(665.527344 0)"/>
     <use xlink:href="#DejaVuSans-70" transform="translate(762.939453 0)"/>
     <use xlink:href="#DejaVuSans-72" transform="translate(826.416016 0)"/>
     <use xlink:href="#DejaVuSans-65" transform="translate(865.279297 0)"/>
     <use xlink:href="#DejaVuSans-68" transform="translate(926.802734 0)"/>
     <use xlink:href="#DejaVuSans-65" transform="translate(990.181641 0)"/>
     <use xlink:href="#DejaVuSans-6e" transform="translate(1051.705078 0)"/>
     <use xlink:href="#DejaVuSans-73" transform="translate(1115.083984 0)"/>
     <use xlink:href="#DejaVuSans-69" transform="translate(1167.183594 0)"/>
     <use xlink:href="#DejaVuSans-6f" transform="translate(1194.966797 0)"/>
     <use xlink:href="#DejaVuSans-6e" transform="translate(1256.148438 0)"/>
     <use xlink:href="#DejaVuSans-20" transform="translate(1319.527344 0)"/>
     <use xlink:href="#DejaVuSans-3c" transform="translate(1351.314453 0)"/>
     <use xlink:href="#DejaVuSans-3d" transform="translate(1435.103516 0)"/>
     <use xlink:href="#DejaVuSans-20" transform="translate(1518.892578 0)"/>
     <use xlink:href="#DejaVuSans-30" transform="translate(1550.679688 0)"/>
     <use xlink:href="#DejaVuSans-2e" transform="translate(1614.302734 0)"/>
     <use xlink:href="#DejaVuSans-35" transform="translate(1646.089844 0)"/>
    </g>
    <!-- squared_error = 0.25 -->
    <g transform="translate(416.94283 292.059786) scale(0.078894 -0.078894)">
     <use xlink:href="#DejaVuSans-73"/>
     <use xlink:href="#DejaVuSans-71" transform="translate(52.099609 0)"/>
     <use xlink:href="#DejaVuSans-75" transform="translate(115.576172 0)"/>
     <use xlink:href="#DejaVuSans-61" transform="translate(178.955078 0)"/>
     <use xlink:href="#DejaVuSans-72" transform="translate(240.234375 0)"/>
     <use xlink:href="#DejaVuSans-65" transform="translate(279.097656 0)"/>
     <use xlink:href="#DejaVuSans-64" transform="translate(340.621094 0)"/>
     <use xlink:href="#DejaVuSans-5f" transform="translate(404.097656 0)"/>
     <use xlink:href="#DejaVuSans-65" transform="translate(454.097656 0)"/>
     <use xlink:href="#DejaVuSans-72" transform="translate(515.621094 0)"/>
     <use xlink:href="#DejaVuSans-72" transform="translate(554.984375 0)"/>
     <use xlink:href="#DejaVuSans-6f" transform="translate(593.847656 0)"/>
     <use xlink:href="#DejaVuSans-72" transform="translate(655.029297 0)"/>
     <use xlink:href="#DejaVuSans-20" transform="translate(696.142578 0)"/>
     <use xlink:href="#DejaVuSans-3d" transform="translate(727.929688 0)"/>
     <use xlink:href="#DejaVuSans-20" transform="translate(811.71875 0)"/>
     <use xlink:href="#DejaVuSans-30" transform="translate(843.505859 0)"/>
     <use xlink:href="#DejaVuSans-2e" transform="translate(907.128906 0)"/>
     <use xlink:href="#DejaVuSans-32" transform="translate(938.916016 0)"/>
     <use xlink:href="#DejaVuSans-35" transform="translate(1002.539062 0)"/>
    </g>
    <!-- samples = 8483 -->
    <g transform="translate(426.750931 301.113588) scale(0.078894 -0.078894)">
     <use xlink:href="#DejaVuSans-73"/>
     <use xlink:href="#DejaVuSans-61" transform="translate(52.099609 0)"/>
     <use xlink:href="#DejaVuSans-6d" transform="translate(113.378906 0)"/>
     <use xlink:href="#DejaVuSans-70" transform="translate(210.791016 0)"/>
     <use xlink:href="#DejaVuSans-6c" transform="translate(274.267578 0)"/>
     <use xlink:href="#DejaVuSans-65" transform="translate(302.050781 0)"/>
     <use xlink:href="#DejaVuSans-73" transform="translate(363.574219 0)"/>
     <use xlink:href="#DejaVuSans-20" transform="translate(415.673828 0)"/>
     <use xlink:href="#DejaVuSans-3d" transform="translate(447.460938 0)"/>
     <use xlink:href="#DejaVuSans-20" transform="translate(531.25 0)"/>
     <use xlink:href="#DejaVuSans-38" transform="translate(563.037109 0)"/>
     <use xlink:href="#DejaVuSans-34" transform="translate(626.660156 0)"/>
     <use xlink:href="#DejaVuSans-38" transform="translate(690.283203 0)"/>
     <use xlink:href="#DejaVuSans-33" transform="translate(753.90625 0)"/>
    </g>
    <!-- value = 0.486 -->
    <g transform="translate(431.119058 309.947967) scale(0.078894 -0.078894)">
     <use xlink:href="#DejaVuSans-76"/>
     <use xlink:href="#DejaVuSans-61" transform="translate(59.179688 0)"/>
     <use xlink:href="#DejaVuSans-6c" transform="translate(120.458984 0)"/>
     <use xlink:href="#DejaVuSans-75" transform="translate(148.242188 0)"/>
     <use xlink:href="#DejaVuSans-65" transform="translate(211.621094 0)"/>
     <use xlink:href="#DejaVuSans-20" transform="translate(273.144531 0)"/>
     <use xlink:href="#DejaVuSans-3d" transform="translate(304.931641 0)"/>
     <use xlink:href="#DejaVuSans-20" transform="translate(388.720703 0)"/>
     <use xlink:href="#DejaVuSans-30" transform="translate(420.507812 0)"/>
     <use xlink:href="#DejaVuSans-2e" transform="translate(484.130859 0)"/>
     <use xlink:href="#DejaVuSans-34" transform="translate(515.917969 0)"/>
     <use xlink:href="#DejaVuSans-38" transform="translate(579.541016 0)"/>
     <use xlink:href="#DejaVuSans-36" transform="translate(643.164062 0)"/>
    </g>
   </g>
   <g id="text_14">
    <!-- True   -->
    <g transform="translate(576.73271 225) scale(0.078894 -0.078894)">
     <defs>
      <path id="DejaVuSans-54" d="M -19 4666 
L 3928 4666 
L 3928 4134 
L 2272 4134 
L 2272 0 
L 1638 0 
L 1638 4134 
L -19 4134 
L -19 4666 
z
" transform="scale(0.015625)"/>
     </defs>
     <use xlink:href="#DejaVuSans-54"/>
     <use xlink:href="#DejaVuSans-72" transform="translate(46.333984 0)"/>
     <use xlink:href="#DejaVuSans-75" transform="translate(87.447266 0)"/>
     <use xlink:href="#DejaVuSans-65" transform="translate(150.826172 0)"/>
     <use xlink:href="#DejaVuSans-20" transform="translate(212.349609 0)"/>
     <use xlink:href="#DejaVuSans-20" transform="translate(244.136719 0)"/>
    </g>
   </g>
   <g id="patch_28">
    <path d="M 974.025753 272.951503 
Q 857.408665 215.019143 739.790289 156.589369 
" style="fill: none; stroke: #000000; stroke-linecap: round"/>
    <path d="M 971.901524 270.134393 
L 974.025753 272.951503 
L 970.497527 272.96062 
" style="fill: none; stroke: #000000; stroke-linecap: round"/>
   </g>
   <g id="text_15">
    <g id="patch_29">
     <path d="M 977.452639 313.845813 
L 1056.547361 313.845813 
Q 1058.914175 313.845813 1058.914175 311.479 
L 1058.914175 277.121 
Q 1058.914175 274.754187 1056.547361 274.754187 
L 977.452639 274.754187 
Q 975.085825 274.754187 975.085825 277.121 
L 975.085825 311.479 
Q 975.085825 313.845813 977.452639 313.845813 
z
" style="fill: #eda673; stroke: #000000; stroke-linejoin: miter"/>
    </g>
    <!-- / &lt;= 1.5 -->
    <g transform="translate(1000.279447 283.115696) scale(0.078894 -0.078894)">
     <defs>
      <path id="DejaVuSans-2f" d="M 1625 4666 
L 2156 4666 
L 531 -594 
L 0 -594 
L 1625 4666 
z
" transform="scale(0.015625)"/>
     </defs>
     <use xlink:href="#DejaVuSans-2f"/>
     <use xlink:href="#DejaVuSans-20" transform="translate(33.691406 0)"/>
     <use xlink:href="#DejaVuSans-3c" transform="translate(65.478516 0)"/>
     <use xlink:href="#DejaVuSans-3d" transform="translate(149.267578 0)"/>
     <use xlink:href="#DejaVuSans-20" transform="translate(233.056641 0)"/>
     <use xlink:href="#DejaVuSans-31" transform="translate(264.84375 0)"/>
     <use xlink:href="#DejaVuSans-2e" transform="translate(328.466797 0)"/>
     <use xlink:href="#DejaVuSans-35" transform="translate(360.253906 0)"/>
    </g>
    <!-- squared_error = 0.2 -->
    <g transform="translate(977.452639 291.950074) scale(0.078894 -0.078894)">
     <use xlink:href="#DejaVuSans-73"/>
     <use xlink:href="#DejaVuSans-71" transform="translate(52.099609 0)"/>
     <use xlink:href="#DejaVuSans-75" transform="translate(115.576172 0)"/>
     <use xlink:href="#DejaVuSans-61" transform="translate(178.955078 0)"/>
     <use xlink:href="#DejaVuSans-72" transform="translate(240.234375 0)"/>
     <use xlink:href="#DejaVuSans-65" transform="translate(279.097656 0)"/>
     <use xlink:href="#DejaVuSans-64" transform="translate(340.621094 0)"/>
     <use xlink:href="#DejaVuSans-5f" transform="translate(404.097656 0)"/>
     <use xlink:href="#DejaVuSans-65" transform="translate(454.097656 0)"/>
     <use xlink:href="#DejaVuSans-72" transform="translate(515.621094 0)"/>
     <use xlink:href="#DejaVuSans-72" transform="translate(554.984375 0)"/>
     <use xlink:href="#DejaVuSans-6f" transform="translate(593.847656 0)"/>
     <use xlink:href="#DejaVuSans-72" transform="translate(655.029297 0)"/>
     <use xlink:href="#DejaVuSans-20" transform="translate(696.142578 0)"/>
     <use xlink:href="#DejaVuSans-3d" transform="translate(727.929688 0)"/>
     <use xlink:href="#DejaVuSans-20" transform="translate(811.71875 0)"/>
     <use xlink:href="#DejaVuSans-30" transform="translate(843.505859 0)"/>
     <use xlink:href="#DejaVuSans-2e" transform="translate(907.128906 0)"/>
     <use xlink:href="#DejaVuSans-32" transform="translate(938.916016 0)"/>
    </g>
    <!-- samples = 1459 -->
    <g transform="translate(984.750931 301.003877) scale(0.078894 -0.078894)">
     <use xlink:href="#DejaVuSans-73"/>
     <use xlink:href="#DejaVuSans-61" transform="translate(52.099609 0)"/>
     <use xlink:href="#DejaVuSans-6d" transform="translate(113.378906 0)"/>
     <use xlink:href="#DejaVuSans-70" transform="translate(210.791016 0)"/>
     <use xlink:href="#DejaVuSans-6c" transform="translate(274.267578 0)"/>
     <use xlink:href="#DejaVuSans-65" transform="translate(302.050781 0)"/>
     <use xlink:href="#DejaVuSans-73" transform="translate(363.574219 0)"/>
     <use xlink:href="#DejaVuSans-20" transform="translate(415.673828 0)"/>
     <use xlink:href="#DejaVuSans-3d" transform="translate(447.460938 0)"/>
     <use xlink:href="#DejaVuSans-20" transform="translate(531.25 0)"/>
     <use xlink:href="#DejaVuSans-31" transform="translate(563.037109 0)"/>
     <use xlink:href="#DejaVuSans-34" transform="translate(626.660156 0)"/>
     <use xlink:href="#DejaVuSans-35" transform="translate(690.283203 0)"/>
     <use xlink:href="#DejaVuSans-39" transform="translate(753.90625 0)"/>
    </g>
    <!-- value = 0.724 -->
    <g transform="translate(989.119058 309.838255) scale(0.078894 -0.078894)">
     <use xlink:href="#DejaVuSans-76"/>
     <use xlink:href="#DejaVuSans-61" transform="translate(59.179688 0)"/>
     <use xlink:href="#DejaVuSans-6c" transform="translate(120.458984 0)"/>
     <use xlink:href="#DejaVuSans-75" transform="translate(148.242188 0)"/>
     <use xlink:href="#DejaVuSans-65" transform="translate(211.621094 0)"/>
     <use xlink:href="#DejaVuSans-20" transform="translate(273.144531 0)"/>
     <use xlink:href="#DejaVuSans-3d" transform="translate(304.931641 0)"/>
     <use xlink:href="#DejaVuSans-20" transform="translate(388.720703 0)"/>
     <use xlink:href="#DejaVuSans-30" transform="translate(420.507812 0)"/>
     <use xlink:href="#DejaVuSans-2e" transform="translate(484.130859 0)"/>
     <use xlink:href="#DejaVuSans-37" transform="translate(515.917969 0)"/>
     <use xlink:href="#DejaVuSans-32" transform="translate(579.541016 0)"/>
     <use xlink:href="#DejaVuSans-34" transform="translate(643.164062 0)"/>
    </g>
   </g>
   <g id="text_16">
    <!--   False -->
    <g transform="translate(877.5 225) scale(0.078894 -0.078894)">
     <defs>
      <path id="DejaVuSans-46" d="M 628 4666 
L 3309 4666 
L 3309 4134 
L 1259 4134 
L 1259 2759 
L 3109 2759 
L 3109 2228 
L 1259 2228 
L 1259 0 
L 628 0 
L 628 4666 
z
" transform="scale(0.015625)"/>
     </defs>
     <use xlink:href="#DejaVuSans-20"/>
     <use xlink:href="#DejaVuSans-20" transform="translate(31.787109 0)"/>
     <use xlink:href="#DejaVuSans-46" transform="translate(63.574219 0)"/>
     <use xlink:href="#DejaVuSans-61" transform="translate(111.96875 0)"/>
     <use xlink:href="#DejaVuSans-6c" transform="translate(173.248047 0)"/>
     <use xlink:href="#DejaVuSans-73" transform="translate(201.03125 0)"/>
     <use xlink:href="#DejaVuSans-65" transform="translate(253.130859 0)"/>
    </g>
   </g>
   <g id="patch_30">
    <path d="M 738 155.7 
Q 738 155.7 738 155.7 
" style="fill: none; stroke: #000000; stroke-linecap: round"/>
   </g>
   <g id="text_17">
    <g id="patch_31">
     <path d="M 695.94283 175.245813 
L 780.05717 175.245813 
Q 782.423984 175.245813 782.423984 172.879 
L 782.423984 138.521 
Q 782.423984 136.154187 780.05717 136.154187 
L 695.94283 136.154187 
Q 693.576016 136.154187 693.576016 138.521 
L 693.576016 172.879 
Q 693.576016 175.245813 695.94283 175.245813 
z
" style="fill: #f2c29f; stroke: #000000; stroke-linejoin: miter"/>
    </g>
    <!-- decorator &lt;= 0.5 -->
    <g transform="translate(703.473489 144.515696) scale(0.078894 -0.078894)">
     <use xlink:href="#DejaVuSans-64"/>
     <use xlink:href="#DejaVuSans-65" transform="translate(63.476562 0)"/>
     <use xlink:href="#DejaVuSans-63" transform="translate(125 0)"/>
     <use xlink:href="#DejaVuSans-6f" transform="translate(179.980469 0)"/>
     <use xlink:href="#DejaVuSans-72" transform="translate(241.162109 0)"/>
     <use xlink:href="#DejaVuSans-61" transform="translate(282.275391 0)"/>
     <use xlink:href="#DejaVuSans-74" transform="translate(343.554688 0)"/>
     <use xlink:href="#DejaVuSans-6f" transform="translate(382.763672 0)"/>
     <use xlink:href="#DejaVuSans-72" transform="translate(443.945312 0)"/>
     <use xlink:href="#DejaVuSans-20" transform="translate(485.058594 0)"/>
     <use xlink:href="#DejaVuSans-3c" transform="translate(516.845703 0)"/>
     <use xlink:href="#DejaVuSans-3d" transform="translate(600.634766 0)"/>
     <use xlink:href="#DejaVuSans-20" transform="translate(684.423828 0)"/>
     <use xlink:href="#DejaVuSans-30" transform="translate(716.210938 0)"/>
     <use xlink:href="#DejaVuSans-2e" transform="translate(779.833984 0)"/>
     <use xlink:href="#DejaVuSans-35" transform="translate(811.621094 0)"/>
    </g>
    <!-- squared_error = 0.25 -->
    <g transform="translate(695.94283 153.350074) scale(0.078894 -0.078894)">
     <use xlink:href="#DejaVuSans-73"/>
     <use xlink:href="#DejaVuSans-71" transform="translate(52.099609 0)"/>
     <use xlink:href="#DejaVuSans-75" transform="translate(115.576172 0)"/>
     <use xlink:href="#DejaVuSans-61" transform="translate(178.955078 0)"/>
     <use xlink:href="#DejaVuSans-72" transform="translate(240.234375 0)"/>
     <use xlink:href="#DejaVuSans-65" transform="translate(279.097656 0)"/>
     <use xlink:href="#DejaVuSans-64" transform="translate(340.621094 0)"/>
     <use xlink:href="#DejaVuSans-5f" transform="translate(404.097656 0)"/>
     <use xlink:href="#DejaVuSans-65" transform="translate(454.097656 0)"/>
     <use xlink:href="#DejaVuSans-72" transform="translate(515.621094 0)"/>
     <use xlink:href="#DejaVuSans-72" transform="translate(554.984375 0)"/>
     <use xlink:href="#DejaVuSans-6f" transform="translate(593.847656 0)"/>
     <use xlink:href="#DejaVuSans-72" transform="translate(655.029297 0)"/>
     <use xlink:href="#DejaVuSans-20" transform="translate(696.142578 0)"/>
     <use xlink:href="#DejaVuSans-3d" transform="translate(727.929688 0)"/>
     <use xlink:href="#DejaVuSans-20" transform="translate(811.71875 0)"/>
     <use xlink:href="#DejaVuSans-30" transform="translate(843.505859 0)"/>
     <use xlink:href="#DejaVuSans-2e" transform="translate(907.128906 0)"/>
     <use xlink:href="#DejaVuSans-32" transform="translate(938.916016 0)"/>
     <use xlink:href="#DejaVuSans-35" transform="translate(1002.539062 0)"/>
    </g>
    <!-- samples = 9942 -->
    <g transform="translate(705.750931 162.403877) scale(0.078894 -0.078894)">
     <use xlink:href="#DejaVuSans-73"/>
     <use xlink:href="#DejaVuSans-61" transform="translate(52.099609 0)"/>
     <use xlink:href="#DejaVuSans-6d" transform="translate(113.378906 0)"/>
     <use xlink:href="#DejaVuSans-70" transform="translate(210.791016 0)"/>
     <use xlink:href="#DejaVuSans-6c" transform="translate(274.267578 0)"/>
     <use xlink:href="#DejaVuSans-65" transform="translate(302.050781 0)"/>
     <use xlink:href="#DejaVuSans-73" transform="translate(363.574219 0)"/>
     <use xlink:href="#DejaVuSans-20" transform="translate(415.673828 0)"/>
     <use xlink:href="#DejaVuSans-3d" transform="translate(447.460938 0)"/>
     <use xlink:href="#DejaVuSans-20" transform="translate(531.25 0)"/>
     <use xlink:href="#DejaVuSans-39" transform="translate(563.037109 0)"/>
     <use xlink:href="#DejaVuSans-39" transform="translate(626.660156 0)"/>
     <use xlink:href="#DejaVuSans-34" transform="translate(690.283203 0)"/>
     <use xlink:href="#DejaVuSans-32" transform="translate(753.90625 0)"/>
    </g>
    <!-- value = 0.521 -->
    <g transform="translate(710.119058 171.238255) scale(0.078894 -0.078894)">
     <use xlink:href="#DejaVuSans-76"/>
     <use xlink:href="#DejaVuSans-61" transform="translate(59.179688 0)"/>
     <use xlink:href="#DejaVuSans-6c" transform="translate(120.458984 0)"/>
     <use xlink:href="#DejaVuSans-75" transform="translate(148.242188 0)"/>
     <use xlink:href="#DejaVuSans-65" transform="translate(211.621094 0)"/>
     <use xlink:href="#DejaVuSans-20" transform="translate(273.144531 0)"/>
     <use xlink:href="#DejaVuSans-3d" transform="translate(304.931641 0)"/>
     <use xlink:href="#DejaVuSans-20" transform="translate(388.720703 0)"/>
     <use xlink:href="#DejaVuSans-30" transform="translate(420.507812 0)"/>
     <use xlink:href="#DejaVuSans-2e" transform="translate(484.130859 0)"/>
     <use xlink:href="#DejaVuSans-35" transform="translate(515.917969 0)"/>
     <use xlink:href="#DejaVuSans-32" transform="translate(579.541016 0)"/>
     <use xlink:href="#DejaVuSans-31" transform="translate(643.164062 0)"/>
    </g>
   </g>
  </g>
 </g>
</svg>
