<?xml version="1.0" encoding="utf-8" standalone="no"?>
<!DOCTYPE svg PUBLIC "-//W3C//DTD SVG 1.1//EN"
  "http://www.w3.org/Graphics/SVG/1.1/DTD/svg11.dtd">
<svg xmlns:xlink="http://www.w3.org/1999/xlink" width="1440pt" height="720pt" viewBox="0 0 1440 720" xmlns="http://www.w3.org/2000/svg" version="1.1">
 <metadata>
  <rdf:RDF xmlns:dc="http://purl.org/dc/elements/1.1/" xmlns:cc="http://creativecommons.org/ns#" xmlns:rdf="http://www.w3.org/1999/02/22-rdf-syntax-ns#">
   <cc:Work>
    <dc:type rdf:resource="http://purl.org/dc/dcmitype/StillImage"/>
    <dc:date>2025-04-23T03:27:12.501444</dc:date>
    <dc:format>image/svg+xml</dc:format>
    <dc:creator>
     <cc:Agent>
      <dc:title>Matplotlib v3.10.1, https://matplotlib.org/</dc:title>
     </cc:Agent>
    </dc:creator>
   </cc:Work>
  </rdf:RDF>
 </metadata>
 <defs>
  <style type="text/css">*{stroke-linejoin: round; stroke-linecap: butt}</style>
 </defs>
 <g id="figure_1">
  <g id="patch_1">
   <path d="M 0 720 
L 1440 720 
L 1440 0 
L 0 0 
z
" style="fill: #ffffff"/>
  </g>
  <g id="axes_1">
   <g id="patch_2">
    <path d="M 262.87682 545.415739 
Q 290.488204 490.549247 318.60218 434.684056 
" style="fill: none; stroke: #000000; stroke-linecap: round"/>
    <path d="M 267.07759 542.282155 
L 262.87682 545.415739 
L 262.890414 540.174972 
" style="fill: none; stroke: #000000; stroke-linecap: round"/>
   </g>
   <g id="text_1">
    <g id="patch_3">
     <path d="M 183.550964 593.971802 
L 315.949036 593.971802 
Q 319.464661 593.971802 319.464661 590.456177 
L 319.464661 552.217896 
Q 319.464661 548.702271 315.949036 548.702271 
L 183.550964 548.702271 
Q 180.035339 548.702271 180.035339 552.217896 
L 180.035339 590.456177 
Q 180.035339 593.971802 183.550964 593.971802 
z
" style="fill: #f2be99; stroke: #000000; stroke-linejoin: miter"/>
    </g>
    <!-- squared_error = 0.248 -->
    <g transform="translate(183.550964 561.448242) scale(0.117187 -0.117187)">
     <defs>
      <path id="DejaVuSans-73" d="M 2834 3397 
L 2834 2853 
Q 2591 2978 2328 3040 
Q 2066 3103 1784 3103 
Q 1356 3103 1142 2972 
Q 928 2841 928 2578 
Q 928 2378 1081 2264 
Q 1234 2150 1697 2047 
L 1894 2003 
Q 2506 1872 2764 1633 
Q 3022 1394 3022 966 
Q 3022 478 2636 193 
Q 2250 -91 1575 -91 
Q 1294 -91 989 -36 
Q 684 19 347 128 
L 347 722 
Q 666 556 975 473 
Q 1284 391 1588 391 
Q 1994 391 2212 530 
Q 2431 669 2431 922 
Q 2431 1156 2273 1281 
Q 2116 1406 1581 1522 
L 1381 1569 
Q 847 1681 609 1914 
Q 372 2147 372 2553 
Q 372 3047 722 3315 
Q 1072 3584 1716 3584 
Q 2034 3584 2315 3537 
Q 2597 3491 2834 3397 
z
" transform="scale(0.015625)"/>
      <path id="DejaVuSans-71" d="M 947 1747 
Q 947 1113 1208 752 
Q 1469 391 1925 391 
Q 2381 391 2643 752 
Q 2906 1113 2906 1747 
Q 2906 2381 2643 2742 
Q 2381 3103 1925 3103 
Q 1469 3103 1208 2742 
Q 947 2381 947 1747 
z
M 2906 525 
Q 2725 213 2448 61 
Q 2172 -91 1784 -91 
Q 1150 -91 751 415 
Q 353 922 353 1747 
Q 353 2572 751 3078 
Q 1150 3584 1784 3584 
Q 2172 3584 2448 3432 
Q 2725 3281 2906 2969 
L 2906 3500 
L 3481 3500 
L 3481 -1331 
L 2906 -1331 
L 2906 525 
z
" transform="scale(0.015625)"/>
      <path id="DejaVuSans-75" d="M 544 1381 
L 544 3500 
L 1119 3500 
L 1119 1403 
Q 1119 906 1312 657 
Q 1506 409 1894 409 
Q 2359 409 2629 706 
Q 2900 1003 2900 1516 
L 2900 3500 
L 3475 3500 
L 3475 0 
L 2900 0 
L 2900 538 
Q 2691 219 2414 64 
Q 2138 -91 1772 -91 
Q 1169 -91 856 284 
Q 544 659 544 1381 
z
M 1991 3584 
L 1991 3584 
z
" transform="scale(0.015625)"/>
      <path id="DejaVuSans-61" d="M 2194 1759 
Q 1497 1759 1228 1600 
Q 959 1441 959 1056 
Q 959 750 1161 570 
Q 1363 391 1709 391 
Q 2188 391 2477 730 
Q 2766 1069 2766 1631 
L 2766 1759 
L 2194 1759 
z
M 3341 1997 
L 3341 0 
L 2766 0 
L 2766 531 
Q 2569 213 2275 61 
Q 1981 -91 1556 -91 
Q 1019 -91 701 211 
Q 384 513 384 1019 
Q 384 1609 779 1909 
Q 1175 2209 1959 2209 
L 2766 2209 
L 2766 2266 
Q 2766 2663 2505 2880 
Q 2244 3097 1772 3097 
Q 1472 3097 1187 3025 
Q 903 2953 641 2809 
L 641 3341 
Q 956 3463 1253 3523 
Q 1550 3584 1831 3584 
Q 2591 3584 2966 3190 
Q 3341 2797 3341 1997 
z
" transform="scale(0.015625)"/>
      <path id="DejaVuSans-72" d="M 2631 2963 
Q 2534 3019 2420 3045 
Q 2306 3072 2169 3072 
Q 1681 3072 1420 2755 
Q 1159 2438 1159 1844 
L 1159 0 
L 581 0 
L 581 3500 
L 1159 3500 
L 1159 2956 
Q 1341 3275 1631 3429 
Q 1922 3584 2338 3584 
Q 2397 3584 2469 3576 
Q 2541 3569 2628 3553 
L 2631 2963 
z
" transform="scale(0.015625)"/>
      <path id="DejaVuSans-65" d="M 3597 1894 
L 3597 1613 
L 953 1613 
Q 991 1019 1311 708 
Q 1631 397 2203 397 
Q 2534 397 2845 478 
Q 3156 559 3463 722 
L 3463 178 
Q 3153 47 2828 -22 
Q 2503 -91 2169 -91 
Q 1331 -91 842 396 
Q 353 884 353 1716 
Q 353 2575 817 3079 
Q 1281 3584 2069 3584 
Q 2775 3584 3186 3129 
Q 3597 2675 3597 1894 
z
M 3022 2063 
Q 3016 2534 2758 2815 
Q 2500 3097 2075 3097 
Q 1594 3097 1305 2825 
Q 1016 2553 972 2059 
L 3022 2063 
z
" transform="scale(0.015625)"/>
      <path id="DejaVuSans-64" d="M 2906 2969 
L 2906 4863 
L 3481 4863 
L 3481 0 
L 2906 0 
L 2906 525 
Q 2725 213 2448 61 
Q 2172 -91 1784 -91 
Q 1150 -91 751 415 
Q 353 922 353 1747 
Q 353 2572 751 3078 
Q 1150 3584 1784 3584 
Q 2172 3584 2448 3432 
Q 2725 3281 2906 2969 
z
M 947 1747 
Q 947 1113 1208 752 
Q 1469 391 1925 391 
Q 2381 391 2643 752 
Q 2906 1113 2906 1747 
Q 2906 2381 2643 2742 
Q 2381 3103 1925 3103 
Q 1469 3103 1208 2742 
Q 947 2381 947 1747 
z
" transform="scale(0.015625)"/>
      <path id="DejaVuSans-5f" d="M 3263 -1063 
L 3263 -1509 
L -63 -1509 
L -63 -1063 
L 3263 -1063 
z
" transform="scale(0.015625)"/>
      <path id="DejaVuSans-6f" d="M 1959 3097 
Q 1497 3097 1228 2736 
Q 959 2375 959 1747 
Q 959 1119 1226 758 
Q 1494 397 1959 397 
Q 2419 397 2687 759 
Q 2956 1122 2956 1747 
Q 2956 2369 2687 2733 
Q 2419 3097 1959 3097 
z
M 1959 3584 
Q 2709 3584 3137 3096 
Q 3566 2609 3566 1747 
Q 3566 888 3137 398 
Q 2709 -91 1959 -91 
Q 1206 -91 779 398 
Q 353 888 353 1747 
Q 353 2609 779 3096 
Q 1206 3584 1959 3584 
z
" transform="scale(0.015625)"/>
      <path id="DejaVuSans-20" transform="scale(0.015625)"/>
      <path id="DejaVuSans-3d" d="M 678 2906 
L 4684 2906 
L 4684 2381 
L 678 2381 
L 678 2906 
z
M 678 1631 
L 4684 1631 
L 4684 1100 
L 678 1100 
L 678 1631 
z
" transform="scale(0.015625)"/>
      <path id="DejaVuSans-30" d="M 2034 4250 
Q 1547 4250 1301 3770 
Q 1056 3291 1056 2328 
Q 1056 1369 1301 889 
Q 1547 409 2034 409 
Q 2525 409 2770 889 
Q 3016 1369 3016 2328 
Q 3016 3291 2770 3770 
Q 2525 4250 2034 4250 
z
M 2034 4750 
Q 2819 4750 3233 4129 
Q 3647 3509 3647 2328 
Q 3647 1150 3233 529 
Q 2819 -91 2034 -91 
Q 1250 -91 836 529 
Q 422 1150 422 2328 
Q 422 3509 836 4129 
Q 1250 4750 2034 4750 
z
" transform="scale(0.015625)"/>
      <path id="DejaVuSans-2e" d="M 684 794 
L 1344 794 
L 1344 0 
L 684 0 
L 684 794 
z
" transform="scale(0.015625)"/>
      <path id="DejaVuSans-32" d="M 1228 531 
L 3431 531 
L 3431 0 
L 469 0 
L 469 531 
Q 828 903 1448 1529 
Q 2069 2156 2228 2338 
Q 2531 2678 2651 2914 
Q 2772 3150 2772 3378 
Q 2772 3750 2511 3984 
Q 2250 4219 1831 4219 
Q 1534 4219 1204 4116 
Q 875 4013 500 3803 
L 500 4441 
Q 881 4594 1212 4672 
Q 1544 4750 1819 4750 
Q 2544 4750 2975 4387 
Q 3406 4025 3406 3419 
Q 3406 3131 3298 2873 
Q 3191 2616 2906 2266 
Q 2828 2175 2409 1742 
Q 1991 1309 1228 531 
z
" transform="scale(0.015625)"/>
      <path id="DejaVuSans-34" d="M 2419 4116 
L 825 1625 
L 2419 1625 
L 2419 4116 
z
M 2253 4666 
L 3047 4666 
L 3047 1625 
L 3713 1625 
L 3713 1100 
L 3047 1100 
L 3047 0 
L 2419 0 
L 2419 1100 
L 313 1100 
L 313 1709 
L 2253 4666 
z
" transform="scale(0.015625)"/>
      <path id="DejaVuSans-38" d="M 2034 2216 
Q 1584 2216 1326 1975 
Q 1069 1734 1069 1313 
Q 1069 891 1326 650 
Q 1584 409 2034 409 
Q 2484 409 2743 651 
Q 3003 894 3003 1313 
Q 3003 1734 2745 1975 
Q 2488 2216 2034 2216 
z
M 1403 2484 
Q 997 2584 770 2862 
Q 544 3141 544 3541 
Q 544 4100 942 4425 
Q 1341 4750 2034 4750 
Q 2731 4750 3128 4425 
Q 3525 4100 3525 3541 
Q 3525 3141 3298 2862 
Q 3072 2584 2669 2484 
Q 3125 2378 3379 2068 
Q 3634 1759 3634 1313 
Q 3634 634 3220 271 
Q 2806 -91 2034 -91 
Q 1263 -91 848 271 
Q 434 634 434 1313 
Q 434 1759 690 2068 
Q 947 2378 1403 2484 
z
M 1172 3481 
Q 1172 3119 1398 2916 
Q 1625 2713 2034 2713 
Q 2441 2713 2670 2916 
Q 2900 3119 2900 3481 
Q 2900 3844 2670 4047 
Q 2441 4250 2034 4250 
Q 1625 4250 1398 4047 
Q 1172 3844 1172 3481 
z
" transform="scale(0.015625)"/>
     </defs>
     <use xlink:href="#DejaVuSans-73"/>
     <use xlink:href="#DejaVuSans-71" transform="translate(52.099609 0)"/>
     <use xlink:href="#DejaVuSans-75" transform="translate(115.576172 0)"/>
     <use xlink:href="#DejaVuSans-61" transform="translate(178.955078 0)"/>
     <use xlink:href="#DejaVuSans-72" transform="translate(240.234375 0)"/>
     <use xlink:href="#DejaVuSans-65" transform="translate(279.097656 0)"/>
     <use xlink:href="#DejaVuSans-64" transform="translate(340.621094 0)"/>
     <use xlink:href="#DejaVuSans-5f" transform="translate(404.097656 0)"/>
     <use xlink:href="#DejaVuSans-65" transform="translate(454.097656 0)"/>
     <use xlink:href="#DejaVuSans-72" transform="translate(515.621094 0)"/>
     <use xlink:href="#DejaVuSans-72" transform="translate(554.984375 0)"/>
     <use xlink:href="#DejaVuSans-6f" transform="translate(593.847656 0)"/>
     <use xlink:href="#DejaVuSans-72" transform="translate(655.029297 0)"/>
     <use xlink:href="#DejaVuSans-20" transform="translate(696.142578 0)"/>
     <use xlink:href="#DejaVuSans-3d" transform="translate(727.929688 0)"/>
     <use xlink:href="#DejaVuSans-20" transform="translate(811.71875 0)"/>
     <use xlink:href="#DejaVuSans-30" transform="translate(843.505859 0)"/>
     <use xlink:href="#DejaVuSans-2e" transform="translate(907.128906 0)"/>
     <use xlink:href="#DejaVuSans-32" transform="translate(938.916016 0)"/>
     <use xlink:href="#DejaVuSans-34" transform="translate(1002.539062 0)"/>
     <use xlink:href="#DejaVuSans-38" transform="translate(1066.162109 0)"/>
    </g>
    <!-- samples = 5211 -->
    <g transform="translate(201.847778 574.896606) scale(0.117187 -0.117187)">
     <defs>
      <path id="DejaVuSans-6d" d="M 3328 2828 
Q 3544 3216 3844 3400 
Q 4144 3584 4550 3584 
Q 5097 3584 5394 3201 
Q 5691 2819 5691 2113 
L 5691 0 
L 5113 0 
L 5113 2094 
Q 5113 2597 4934 2840 
Q 4756 3084 4391 3084 
Q 3944 3084 3684 2787 
Q 3425 2491 3425 1978 
L 3425 0 
L 2847 0 
L 2847 2094 
Q 2847 2600 2669 2842 
Q 2491 3084 2119 3084 
Q 1678 3084 1418 2786 
Q 1159 2488 1159 1978 
L 1159 0 
L 581 0 
L 581 3500 
L 1159 3500 
L 1159 2956 
Q 1356 3278 1631 3431 
Q 1906 3584 2284 3584 
Q 2666 3584 2933 3390 
Q 3200 3197 3328 2828 
z
" transform="scale(0.015625)"/>
      <path id="DejaVuSans-70" d="M 1159 525 
L 1159 -1331 
L 581 -1331 
L 581 3500 
L 1159 3500 
L 1159 2969 
Q 1341 3281 1617 3432 
Q 1894 3584 2278 3584 
Q 2916 3584 3314 3078 
Q 3713 2572 3713 1747 
Q 3713 922 3314 415 
Q 2916 -91 2278 -91 
Q 1894 -91 1617 61 
Q 1341 213 1159 525 
z
M 3116 1747 
Q 3116 2381 2855 2742 
Q 2594 3103 2138 3103 
Q 1681 3103 1420 2742 
Q 1159 2381 1159 1747 
Q 1159 1113 1420 752 
Q 1681 391 2138 391 
Q 2594 391 2855 752 
Q 3116 1113 3116 1747 
z
" transform="scale(0.015625)"/>
      <path id="DejaVuSans-6c" d="M 603 4863 
L 1178 4863 
L 1178 0 
L 603 0 
L 603 4863 
z
" transform="scale(0.015625)"/>
      <path id="DejaVuSans-35" d="M 691 4666 
L 3169 4666 
L 3169 4134 
L 1269 4134 
L 1269 2991 
Q 1406 3038 1543 3061 
Q 1681 3084 1819 3084 
Q 2600 3084 3056 2656 
Q 3513 2228 3513 1497 
Q 3513 744 3044 326 
Q 2575 -91 1722 -91 
Q 1428 -91 1123 -41 
Q 819 9 494 109 
L 494 744 
Q 775 591 1075 516 
Q 1375 441 1709 441 
Q 2250 441 2565 725 
Q 2881 1009 2881 1497 
Q 2881 1984 2565 2268 
Q 2250 2553 1709 2553 
Q 1456 2553 1204 2497 
Q 953 2441 691 2322 
L 691 4666 
z
" transform="scale(0.015625)"/>
      <path id="DejaVuSans-31" d="M 794 531 
L 1825 531 
L 1825 4091 
L 703 3866 
L 703 4441 
L 1819 4666 
L 2450 4666 
L 2450 531 
L 3481 531 
L 3481 0 
L 794 0 
L 794 531 
z
" transform="scale(0.015625)"/>
     </defs>
     <use xlink:href="#DejaVuSans-73"/>
     <use xlink:href="#DejaVuSans-61" transform="translate(52.099609 0)"/>
     <use xlink:href="#DejaVuSans-6d" transform="translate(113.378906 0)"/>
     <use xlink:href="#DejaVuSans-70" transform="translate(210.791016 0)"/>
     <use xlink:href="#DejaVuSans-6c" transform="translate(274.267578 0)"/>
     <use xlink:href="#DejaVuSans-65" transform="translate(302.050781 0)"/>
     <use xlink:href="#DejaVuSans-73" transform="translate(363.574219 0)"/>
     <use xlink:href="#DejaVuSans-20" transform="translate(415.673828 0)"/>
     <use xlink:href="#DejaVuSans-3d" transform="translate(447.460938 0)"/>
     <use xlink:href="#DejaVuSans-20" transform="translate(531.25 0)"/>
     <use xlink:href="#DejaVuSans-35" transform="translate(563.037109 0)"/>
     <use xlink:href="#DejaVuSans-32" transform="translate(626.660156 0)"/>
     <use xlink:href="#DejaVuSans-31" transform="translate(690.283203 0)"/>
     <use xlink:href="#DejaVuSans-31" transform="translate(753.90625 0)"/>
    </g>
    <!-- value = 0.547 -->
    <g transform="translate(208.336121 588.019043) scale(0.117187 -0.117187)">
     <defs>
      <path id="DejaVuSans-76" d="M 191 3500 
L 800 3500 
L 1894 563 
L 2988 3500 
L 3597 3500 
L 2284 0 
L 1503 0 
L 191 3500 
z
" transform="scale(0.015625)"/>
      <path id="DejaVuSans-37" d="M 525 4666 
L 3525 4666 
L 3525 4397 
L 1831 0 
L 1172 0 
L 2766 4134 
L 525 4134 
L 525 4666 
z
" transform="scale(0.015625)"/>
     </defs>
     <use xlink:href="#DejaVuSans-76"/>
     <use xlink:href="#DejaVuSans-61" transform="translate(59.179688 0)"/>
     <use xlink:href="#DejaVuSans-6c" transform="translate(120.458984 0)"/>
     <use xlink:href="#DejaVuSans-75" transform="translate(148.242188 0)"/>
     <use xlink:href="#DejaVuSans-65" transform="translate(211.621094 0)"/>
     <use xlink:href="#DejaVuSans-20" transform="translate(273.144531 0)"/>
     <use xlink:href="#DejaVuSans-3d" transform="translate(304.931641 0)"/>
     <use xlink:href="#DejaVuSans-20" transform="translate(388.720703 0)"/>
     <use xlink:href="#DejaVuSans-30" transform="translate(420.507812 0)"/>
     <use xlink:href="#DejaVuSans-2e" transform="translate(484.130859 0)"/>
     <use xlink:href="#DejaVuSans-35" transform="translate(515.917969 0)"/>
     <use xlink:href="#DejaVuSans-34" transform="translate(579.541016 0)"/>
     <use xlink:href="#DejaVuSans-37" transform="translate(643.164062 0)"/>
    </g>
   </g>
   <g id="patch_4">
    <path d="M 376.12318 545.415739 
Q 348.511796 490.549247 320.39782 434.684056 
" style="fill: none; stroke: #000000; stroke-linecap: round"/>
    <path d="M 376.109586 540.174972 
L 376.12318 545.415739 
L 371.92241 542.282155 
" style="fill: none; stroke: #000000; stroke-linecap: round"/>
   </g>
   <g id="text_2">
    <g id="patch_5">
     <path d="M 323.050964 593.971802 
L 455.449036 593.971802 
Q 458.964661 593.971802 458.964661 590.456177 
L 458.964661 552.217896 
Q 458.964661 548.702271 455.449036 548.702271 
L 323.050964 548.702271 
Q 319.535339 548.702271 319.535339 552.217896 
L 319.535339 590.456177 
Q 319.535339 593.971802 323.050964 593.971802 
z
" style="fill: #f5d0b5; stroke: #000000; stroke-linejoin: miter"/>
    </g>
    <!-- squared_error = 0.243 -->
    <g transform="translate(323.050964 561.448242) scale(0.117187 -0.117187)">
     <defs>
      <path id="DejaVuSans-33" d="M 2597 2516 
Q 3050 2419 3304 2112 
Q 3559 1806 3559 1356 
Q 3559 666 3084 287 
Q 2609 -91 1734 -91 
Q 1441 -91 1130 -33 
Q 819 25 488 141 
L 488 750 
Q 750 597 1062 519 
Q 1375 441 1716 441 
Q 2309 441 2620 675 
Q 2931 909 2931 1356 
Q 2931 1769 2642 2001 
Q 2353 2234 1838 2234 
L 1294 2234 
L 1294 2753 
L 1863 2753 
Q 2328 2753 2575 2939 
Q 2822 3125 2822 3475 
Q 2822 3834 2567 4026 
Q 2313 4219 1838 4219 
Q 1578 4219 1281 4162 
Q 984 4106 628 3988 
L 628 4550 
Q 988 4650 1302 4700 
Q 1616 4750 1894 4750 
Q 2613 4750 3031 4423 
Q 3450 4097 3450 3541 
Q 3450 3153 3228 2886 
Q 3006 2619 2597 2516 
z
" transform="scale(0.015625)"/>
     </defs>
     <use xlink:href="#DejaVuSans-73"/>
     <use xlink:href="#DejaVuSans-71" transform="translate(52.099609 0)"/>
     <use xlink:href="#DejaVuSans-75" transform="translate(115.576172 0)"/>
     <use xlink:href="#DejaVuSans-61" transform="translate(178.955078 0)"/>
     <use xlink:href="#DejaVuSans-72" transform="translate(240.234375 0)"/>
     <use xlink:href="#DejaVuSans-65" transform="translate(279.097656 0)"/>
     <use xlink:href="#DejaVuSans-64" transform="translate(340.621094 0)"/>
     <use xlink:href="#DejaVuSans-5f" transform="translate(404.097656 0)"/>
     <use xlink:href="#DejaVuSans-65" transform="translate(454.097656 0)"/>
     <use xlink:href="#DejaVuSans-72" transform="translate(515.621094 0)"/>
     <use xlink:href="#DejaVuSans-72" transform="translate(554.984375 0)"/>
     <use xlink:href="#DejaVuSans-6f" transform="translate(593.847656 0)"/>
     <use xlink:href="#DejaVuSans-72" transform="translate(655.029297 0)"/>
     <use xlink:href="#DejaVuSans-20" transform="translate(696.142578 0)"/>
     <use xlink:href="#DejaVuSans-3d" transform="translate(727.929688 0)"/>
     <use xlink:href="#DejaVuSans-20" transform="translate(811.71875 0)"/>
     <use xlink:href="#DejaVuSans-30" transform="translate(843.505859 0)"/>
     <use xlink:href="#DejaVuSans-2e" transform="translate(907.128906 0)"/>
     <use xlink:href="#DejaVuSans-32" transform="translate(938.916016 0)"/>
     <use xlink:href="#DejaVuSans-34" transform="translate(1002.539062 0)"/>
     <use xlink:href="#DejaVuSans-33" transform="translate(1066.162109 0)"/>
    </g>
    <!-- samples = 2982 -->
    <g transform="translate(341.347778 574.896606) scale(0.117187 -0.117187)">
     <defs>
      <path id="DejaVuSans-39" d="M 703 97 
L 703 672 
Q 941 559 1184 500 
Q 1428 441 1663 441 
Q 2288 441 2617 861 
Q 2947 1281 2994 2138 
Q 2813 1869 2534 1725 
Q 2256 1581 1919 1581 
Q 1219 1581 811 2004 
Q 403 2428 403 3163 
Q 403 3881 828 4315 
Q 1253 4750 1959 4750 
Q 2769 4750 3195 4129 
Q 3622 3509 3622 2328 
Q 3622 1225 3098 567 
Q 2575 -91 1691 -91 
Q 1453 -91 1209 -44 
Q 966 3 703 97 
z
M 1959 2075 
Q 2384 2075 2632 2365 
Q 2881 2656 2881 3163 
Q 2881 3666 2632 3958 
Q 2384 4250 1959 4250 
Q 1534 4250 1286 3958 
Q 1038 3666 1038 3163 
Q 1038 2656 1286 2365 
Q 1534 2075 1959 2075 
z
" transform="scale(0.015625)"/>
     </defs>
     <use xlink:href="#DejaVuSans-73"/>
     <use xlink:href="#DejaVuSans-61" transform="translate(52.099609 0)"/>
     <use xlink:href="#DejaVuSans-6d" transform="translate(113.378906 0)"/>
     <use xlink:href="#DejaVuSans-70" transform="translate(210.791016 0)"/>
     <use xlink:href="#DejaVuSans-6c" transform="translate(274.267578 0)"/>
     <use xlink:href="#DejaVuSans-65" transform="translate(302.050781 0)"/>
     <use xlink:href="#DejaVuSans-73" transform="translate(363.574219 0)"/>
     <use xlink:href="#DejaVuSans-20" transform="translate(415.673828 0)"/>
     <use xlink:href="#DejaVuSans-3d" transform="translate(447.460938 0)"/>
     <use xlink:href="#DejaVuSans-20" transform="translate(531.25 0)"/>
     <use xlink:href="#DejaVuSans-32" transform="translate(563.037109 0)"/>
     <use xlink:href="#DejaVuSans-39" transform="translate(626.660156 0)"/>
     <use xlink:href="#DejaVuSans-38" transform="translate(690.283203 0)"/>
     <use xlink:href="#DejaVuSans-32" transform="translate(753.90625 0)"/>
    </g>
    <!-- value = 0.418 -->
    <g transform="translate(347.836121 588.019043) scale(0.117187 -0.117187)">
     <use xlink:href="#DejaVuSans-76"/>
     <use xlink:href="#DejaVuSans-61" transform="translate(59.179688 0)"/>
     <use xlink:href="#DejaVuSans-6c" transform="translate(120.458984 0)"/>
     <use xlink:href="#DejaVuSans-75" transform="translate(148.242188 0)"/>
     <use xlink:href="#DejaVuSans-65" transform="translate(211.621094 0)"/>
     <use xlink:href="#DejaVuSans-20" transform="translate(273.144531 0)"/>
     <use xlink:href="#DejaVuSans-3d" transform="translate(304.931641 0)"/>
     <use xlink:href="#DejaVuSans-20" transform="translate(388.720703 0)"/>
     <use xlink:href="#DejaVuSans-30" transform="translate(420.507812 0)"/>
     <use xlink:href="#DejaVuSans-2e" transform="translate(484.130859 0)"/>
     <use xlink:href="#DejaVuSans-34" transform="translate(515.917969 0)"/>
     <use xlink:href="#DejaVuSans-31" transform="translate(579.541016 0)"/>
     <use xlink:href="#DejaVuSans-38" transform="translate(643.164062 0)"/>
    </g>
   </g>
   <g id="patch_6">
    <path d="M 541.87682 545.415739 
Q 569.488204 490.549247 597.60218 434.684056 
" style="fill: none; stroke: #000000; stroke-linecap: round"/>
    <path d="M 546.07759 542.282155 
L 541.87682 545.415739 
L 541.890414 540.174972 
" style="fill: none; stroke: #000000; stroke-linecap: round"/>
   </g>
   <g id="text_3">
    <g id="patch_7">
     <path d="M 462.550964 593.971802 
L 594.949036 593.971802 
Q 598.464661 593.971802 598.464661 590.456177 
L 598.464661 552.217896 
Q 598.464661 548.702271 594.949036 548.702271 
L 462.550964 548.702271 
Q 459.035339 548.702271 459.035339 552.217896 
L 459.035339 590.456177 
Q 459.035339 593.971802 462.550964 593.971802 
z
" style="fill: #ffffff; stroke: #000000; stroke-linejoin: miter"/>
    </g>
    <!-- squared_error = 0.063 -->
    <g transform="translate(462.550964 561.448242) scale(0.117187 -0.117187)">
     <defs>
      <path id="DejaVuSans-36" d="M 2113 2584 
Q 1688 2584 1439 2293 
Q 1191 2003 1191 1497 
Q 1191 994 1439 701 
Q 1688 409 2113 409 
Q 2538 409 2786 701 
Q 3034 994 3034 1497 
Q 3034 2003 2786 2293 
Q 2538 2584 2113 2584 
z
M 3366 4563 
L 3366 3988 
Q 3128 4100 2886 4159 
Q 2644 4219 2406 4219 
Q 1781 4219 1451 3797 
Q 1122 3375 1075 2522 
Q 1259 2794 1537 2939 
Q 1816 3084 2150 3084 
Q 2853 3084 3261 2657 
Q 3669 2231 3669 1497 
Q 3669 778 3244 343 
Q 2819 -91 2113 -91 
Q 1303 -91 875 529 
Q 447 1150 447 2328 
Q 447 3434 972 4092 
Q 1497 4750 2381 4750 
Q 2619 4750 2861 4703 
Q 3103 4656 3366 4563 
z
" transform="scale(0.015625)"/>
     </defs>
     <use xlink:href="#DejaVuSans-73"/>
     <use xlink:href="#DejaVuSans-71" transform="translate(52.099609 0)"/>
     <use xlink:href="#DejaVuSans-75" transform="translate(115.576172 0)"/>
     <use xlink:href="#DejaVuSans-61" transform="translate(178.955078 0)"/>
     <use xlink:href="#DejaVuSans-72" transform="translate(240.234375 0)"/>
     <use xlink:href="#DejaVuSans-65" transform="translate(279.097656 0)"/>
     <use xlink:href="#DejaVuSans-64" transform="translate(340.621094 0)"/>
     <use xlink:href="#DejaVuSans-5f" transform="translate(404.097656 0)"/>
     <use xlink:href="#DejaVuSans-65" transform="translate(454.097656 0)"/>
     <use xlink:href="#DejaVuSans-72" transform="translate(515.621094 0)"/>
     <use xlink:href="#DejaVuSans-72" transform="translate(554.984375 0)"/>
     <use xlink:href="#DejaVuSans-6f" transform="translate(593.847656 0)"/>
     <use xlink:href="#DejaVuSans-72" transform="translate(655.029297 0)"/>
     <use xlink:href="#DejaVuSans-20" transform="translate(696.142578 0)"/>
     <use xlink:href="#DejaVuSans-3d" transform="translate(727.929688 0)"/>
     <use xlink:href="#DejaVuSans-20" transform="translate(811.71875 0)"/>
     <use xlink:href="#DejaVuSans-30" transform="translate(843.505859 0)"/>
     <use xlink:href="#DejaVuSans-2e" transform="translate(907.128906 0)"/>
     <use xlink:href="#DejaVuSans-30" transform="translate(938.916016 0)"/>
     <use xlink:href="#DejaVuSans-36" transform="translate(1002.539062 0)"/>
     <use xlink:href="#DejaVuSans-33" transform="translate(1066.162109 0)"/>
    </g>
    <!-- samples = 283 -->
    <g transform="translate(484.575806 574.896606) scale(0.117187 -0.117187)">
     <use xlink:href="#DejaVuSans-73"/>
     <use xlink:href="#DejaVuSans-61" transform="translate(52.099609 0)"/>
     <use xlink:href="#DejaVuSans-6d" transform="translate(113.378906 0)"/>
     <use xlink:href="#DejaVuSans-70" transform="translate(210.791016 0)"/>
     <use xlink:href="#DejaVuSans-6c" transform="translate(274.267578 0)"/>
     <use xlink:href="#DejaVuSans-65" transform="translate(302.050781 0)"/>
     <use xlink:href="#DejaVuSans-73" transform="translate(363.574219 0)"/>
     <use xlink:href="#DejaVuSans-20" transform="translate(415.673828 0)"/>
     <use xlink:href="#DejaVuSans-3d" transform="translate(447.460938 0)"/>
     <use xlink:href="#DejaVuSans-20" transform="translate(531.25 0)"/>
     <use xlink:href="#DejaVuSans-32" transform="translate(563.037109 0)"/>
     <use xlink:href="#DejaVuSans-38" transform="translate(626.660156 0)"/>
     <use xlink:href="#DejaVuSans-33" transform="translate(690.283203 0)"/>
    </g>
    <!-- value = 0.067 -->
    <g transform="translate(487.336121 588.019043) scale(0.117187 -0.117187)">
     <use xlink:href="#DejaVuSans-76"/>
     <use xlink:href="#DejaVuSans-61" transform="translate(59.179688 0)"/>
     <use xlink:href="#DejaVuSans-6c" transform="translate(120.458984 0)"/>
     <use xlink:href="#DejaVuSans-75" transform="translate(148.242188 0)"/>
     <use xlink:href="#DejaVuSans-65" transform="translate(211.621094 0)"/>
     <use xlink:href="#DejaVuSans-20" transform="translate(273.144531 0)"/>
     <use xlink:href="#DejaVuSans-3d" transform="translate(304.931641 0)"/>
     <use xlink:href="#DejaVuSans-20" transform="translate(388.720703 0)"/>
     <use xlink:href="#DejaVuSans-30" transform="translate(420.507812 0)"/>
     <use xlink:href="#DejaVuSans-2e" transform="translate(484.130859 0)"/>
     <use xlink:href="#DejaVuSans-30" transform="translate(515.917969 0)"/>
     <use xlink:href="#DejaVuSans-36" transform="translate(579.541016 0)"/>
     <use xlink:href="#DejaVuSans-37" transform="translate(643.164062 0)"/>
    </g>
   </g>
   <g id="patch_8">
    <path d="M 655.12318 545.415739 
Q 627.511796 490.549247 599.39782 434.684056 
" style="fill: none; stroke: #000000; stroke-linecap: round"/>
    <path d="M 655.109586 540.174972 
L 655.12318 545.415739 
L 650.92241 542.282155 
" style="fill: none; stroke: #000000; stroke-linecap: round"/>
   </g>
   <g id="text_4">
    <g id="patch_9">
     <path d="M 609.507019 593.971802 
L 726.992981 593.971802 
Q 730.508606 593.971802 730.508606 590.456177 
L 730.508606 552.217896 
Q 730.508606 548.702271 726.992981 548.702271 
L 609.507019 548.702271 
Q 605.991394 548.702271 605.991394 552.217896 
L 605.991394 590.456177 
Q 605.991394 593.971802 609.507019 593.971802 
z
" style="fill: #e58139; stroke: #000000; stroke-linejoin: miter"/>
    </g>
    <!-- squared_error = 0.0 -->
    <g transform="translate(609.507019 561.448242) scale(0.117187 -0.117187)">
     <use xlink:href="#DejaVuSans-73"/>
     <use xlink:href="#DejaVuSans-71" transform="translate(52.099609 0)"/>
     <use xlink:href="#DejaVuSans-75" transform="translate(115.576172 0)"/>
     <use xlink:href="#DejaVuSans-61" transform="translate(178.955078 0)"/>
     <use xlink:href="#DejaVuSans-72" transform="translate(240.234375 0)"/>
     <use xlink:href="#DejaVuSans-65" transform="translate(279.097656 0)"/>
     <use xlink:href="#DejaVuSans-64" transform="translate(340.621094 0)"/>
     <use xlink:href="#DejaVuSans-5f" transform="translate(404.097656 0)"/>
     <use xlink:href="#DejaVuSans-65" transform="translate(454.097656 0)"/>
     <use xlink:href="#DejaVuSans-72" transform="translate(515.621094 0)"/>
     <use xlink:href="#DejaVuSans-72" transform="translate(554.984375 0)"/>
     <use xlink:href="#DejaVuSans-6f" transform="translate(593.847656 0)"/>
     <use xlink:href="#DejaVuSans-72" transform="translate(655.029297 0)"/>
     <use xlink:href="#DejaVuSans-20" transform="translate(696.142578 0)"/>
     <use xlink:href="#DejaVuSans-3d" transform="translate(727.929688 0)"/>
     <use xlink:href="#DejaVuSans-20" transform="translate(811.71875 0)"/>
     <use xlink:href="#DejaVuSans-30" transform="translate(843.505859 0)"/>
     <use xlink:href="#DejaVuSans-2e" transform="translate(907.128906 0)"/>
     <use xlink:href="#DejaVuSans-30" transform="translate(938.916016 0)"/>
    </g>
    <!-- samples = 7 -->
    <g transform="translate(631.53186 574.896606) scale(0.117187 -0.117187)">
     <use xlink:href="#DejaVuSans-73"/>
     <use xlink:href="#DejaVuSans-61" transform="translate(52.099609 0)"/>
     <use xlink:href="#DejaVuSans-6d" transform="translate(113.378906 0)"/>
     <use xlink:href="#DejaVuSans-70" transform="translate(210.791016 0)"/>
     <use xlink:href="#DejaVuSans-6c" transform="translate(274.267578 0)"/>
     <use xlink:href="#DejaVuSans-65" transform="translate(302.050781 0)"/>
     <use xlink:href="#DejaVuSans-73" transform="translate(363.574219 0)"/>
     <use xlink:href="#DejaVuSans-20" transform="translate(415.673828 0)"/>
     <use xlink:href="#DejaVuSans-3d" transform="translate(447.460938 0)"/>
     <use xlink:href="#DejaVuSans-20" transform="translate(531.25 0)"/>
     <use xlink:href="#DejaVuSans-37" transform="translate(563.037109 0)"/>
    </g>
    <!-- value = 1.0 -->
    <g transform="translate(634.292175 588.019043) scale(0.117187 -0.117187)">
     <use xlink:href="#DejaVuSans-76"/>
     <use xlink:href="#DejaVuSans-61" transform="translate(59.179688 0)"/>
     <use xlink:href="#DejaVuSans-6c" transform="translate(120.458984 0)"/>
     <use xlink:href="#DejaVuSans-75" transform="translate(148.242188 0)"/>
     <use xlink:href="#DejaVuSans-65" transform="translate(211.621094 0)"/>
     <use xlink:href="#DejaVuSans-20" transform="translate(273.144531 0)"/>
     <use xlink:href="#DejaVuSans-3d" transform="translate(304.931641 0)"/>
     <use xlink:href="#DejaVuSans-20" transform="translate(388.720703 0)"/>
     <use xlink:href="#DejaVuSans-31" transform="translate(420.507812 0)"/>
     <use xlink:href="#DejaVuSans-2e" transform="translate(484.130859 0)"/>
     <use xlink:href="#DejaVuSans-30" transform="translate(515.917969 0)"/>
    </g>
   </g>
   <g id="patch_10">
    <path d="M 820.87682 545.415739 
Q 848.488204 490.549247 876.60218 434.684056 
" style="fill: none; stroke: #000000; stroke-linecap: round"/>
    <path d="M 825.07759 542.282155 
L 820.87682 545.415739 
L 820.890414 540.174972 
" style="fill: none; stroke: #000000; stroke-linecap: round"/>
   </g>
   <g id="text_5">
    <g id="patch_11">
     <path d="M 745.278992 593.971802 
L 870.221008 593.971802 
Q 873.736633 593.971802 873.736633 590.456177 
L 873.736633 552.217896 
Q 873.736633 548.702271 870.221008 548.702271 
L 745.278992 548.702271 
Q 741.763367 548.702271 741.763367 552.217896 
L 741.763367 590.456177 
Q 741.763367 593.971802 745.278992 593.971802 
z
" style="fill: #ea985d; stroke: #000000; stroke-linejoin: miter"/>
    </g>
    <!-- squared_error = 0.14 -->
    <g transform="translate(745.278992 561.448242) scale(0.117187 -0.117187)">
     <use xlink:href="#DejaVuSans-73"/>
     <use xlink:href="#DejaVuSans-71" transform="translate(52.099609 0)"/>
     <use xlink:href="#DejaVuSans-75" transform="translate(115.576172 0)"/>
     <use xlink:href="#DejaVuSans-61" transform="translate(178.955078 0)"/>
     <use xlink:href="#DejaVuSans-72" transform="translate(240.234375 0)"/>
     <use xlink:href="#DejaVuSans-65" transform="translate(279.097656 0)"/>
     <use xlink:href="#DejaVuSans-64" transform="translate(340.621094 0)"/>
     <use xlink:href="#DejaVuSans-5f" transform="translate(404.097656 0)"/>
     <use xlink:href="#DejaVuSans-65" transform="translate(454.097656 0)"/>
     <use xlink:href="#DejaVuSans-72" transform="translate(515.621094 0)"/>
     <use xlink:href="#DejaVuSans-72" transform="translate(554.984375 0)"/>
     <use xlink:href="#DejaVuSans-6f" transform="translate(593.847656 0)"/>
     <use xlink:href="#DejaVuSans-72" transform="translate(655.029297 0)"/>
     <use xlink:href="#DejaVuSans-20" transform="translate(696.142578 0)"/>
     <use xlink:href="#DejaVuSans-3d" transform="translate(727.929688 0)"/>
     <use xlink:href="#DejaVuSans-20" transform="translate(811.71875 0)"/>
     <use xlink:href="#DejaVuSans-30" transform="translate(843.505859 0)"/>
     <use xlink:href="#DejaVuSans-2e" transform="translate(907.128906 0)"/>
     <use xlink:href="#DejaVuSans-31" transform="translate(938.916016 0)"/>
     <use xlink:href="#DejaVuSans-34" transform="translate(1002.539062 0)"/>
    </g>
    <!-- samples = 1108 -->
    <g transform="translate(759.847778 574.896606) scale(0.117187 -0.117187)">
     <use xlink:href="#DejaVuSans-73"/>
     <use xlink:href="#DejaVuSans-61" transform="translate(52.099609 0)"/>
     <use xlink:href="#DejaVuSans-6d" transform="translate(113.378906 0)"/>
     <use xlink:href="#DejaVuSans-70" transform="translate(210.791016 0)"/>
     <use xlink:href="#DejaVuSans-6c" transform="translate(274.267578 0)"/>
     <use xlink:href="#DejaVuSans-65" transform="translate(302.050781 0)"/>
     <use xlink:href="#DejaVuSans-73" transform="translate(363.574219 0)"/>
     <use xlink:href="#DejaVuSans-20" transform="translate(415.673828 0)"/>
     <use xlink:href="#DejaVuSans-3d" transform="translate(447.460938 0)"/>
     <use xlink:href="#DejaVuSans-20" transform="translate(531.25 0)"/>
     <use xlink:href="#DejaVuSans-31" transform="translate(563.037109 0)"/>
     <use xlink:href="#DejaVuSans-31" transform="translate(626.660156 0)"/>
     <use xlink:href="#DejaVuSans-30" transform="translate(690.283203 0)"/>
     <use xlink:href="#DejaVuSans-38" transform="translate(753.90625 0)"/>
    </g>
    <!-- value = 0.832 -->
    <g transform="translate(766.336121 588.019043) scale(0.117187 -0.117187)">
     <use xlink:href="#DejaVuSans-76"/>
     <use xlink:href="#DejaVuSans-61" transform="translate(59.179688 0)"/>
     <use xlink:href="#DejaVuSans-6c" transform="translate(120.458984 0)"/>
     <use xlink:href="#DejaVuSans-75" transform="translate(148.242188 0)"/>
     <use xlink:href="#DejaVuSans-65" transform="translate(211.621094 0)"/>
     <use xlink:href="#DejaVuSans-20" transform="translate(273.144531 0)"/>
     <use xlink:href="#DejaVuSans-3d" transform="translate(304.931641 0)"/>
     <use xlink:href="#DejaVuSans-20" transform="translate(388.720703 0)"/>
     <use xlink:href="#DejaVuSans-30" transform="translate(420.507812 0)"/>
     <use xlink:href="#DejaVuSans-2e" transform="translate(484.130859 0)"/>
     <use xlink:href="#DejaVuSans-38" transform="translate(515.917969 0)"/>
     <use xlink:href="#DejaVuSans-33" transform="translate(579.541016 0)"/>
     <use xlink:href="#DejaVuSans-32" transform="translate(643.164062 0)"/>
    </g>
   </g>
   <g id="patch_12">
    <path d="M 934.12318 545.415739 
Q 906.511796 490.549247 878.39782 434.684056 
" style="fill: none; stroke: #000000; stroke-linecap: round"/>
    <path d="M 934.109586 540.174972 
L 934.12318 545.415739 
L 929.92241 542.282155 
" style="fill: none; stroke: #000000; stroke-linecap: round"/>
   </g>
   <g id="text_6">
    <g id="patch_13">
     <path d="M 884.778992 593.971802 
L 1009.721008 593.971802 
Q 1013.236633 593.971802 1013.236633 590.456177 
L 1013.236633 552.217896 
Q 1013.236633 548.702271 1009.721008 548.702271 
L 884.778992 548.702271 
Q 881.263367 548.702271 881.263367 552.217896 
L 881.263367 590.456177 
Q 881.263367 593.971802 884.778992 593.971802 
z
" style="fill: #f3c6a5; stroke: #000000; stroke-linejoin: miter"/>
    </g>
    <!-- squared_error = 0.25 -->
    <g transform="translate(884.778992 561.448242) scale(0.117187 -0.117187)">
     <use xlink:href="#DejaVuSans-73"/>
     <use xlink:href="#DejaVuSans-71" transform="translate(52.099609 0)"/>
     <use xlink:href="#DejaVuSans-75" transform="translate(115.576172 0)"/>
     <use xlink:href="#DejaVuSans-61" transform="translate(178.955078 0)"/>
     <use xlink:href="#DejaVuSans-72" transform="translate(240.234375 0)"/>
     <use xlink:href="#DejaVuSans-65" transform="translate(279.097656 0)"/>
     <use xlink:href="#DejaVuSans-64" transform="translate(340.621094 0)"/>
     <use xlink:href="#DejaVuSans-5f" transform="translate(404.097656 0)"/>
     <use xlink:href="#DejaVuSans-65" transform="translate(454.097656 0)"/>
     <use xlink:href="#DejaVuSans-72" transform="translate(515.621094 0)"/>
     <use xlink:href="#DejaVuSans-72" transform="translate(554.984375 0)"/>
     <use xlink:href="#DejaVuSans-6f" transform="translate(593.847656 0)"/>
     <use xlink:href="#DejaVuSans-72" transform="translate(655.029297 0)"/>
     <use xlink:href="#DejaVuSans-20" transform="translate(696.142578 0)"/>
     <use xlink:href="#DejaVuSans-3d" transform="translate(727.929688 0)"/>
     <use xlink:href="#DejaVuSans-20" transform="translate(811.71875 0)"/>
     <use xlink:href="#DejaVuSans-30" transform="translate(843.505859 0)"/>
     <use xlink:href="#DejaVuSans-2e" transform="translate(907.128906 0)"/>
     <use xlink:href="#DejaVuSans-32" transform="translate(938.916016 0)"/>
     <use xlink:href="#DejaVuSans-35" transform="translate(1002.539062 0)"/>
    </g>
    <!-- samples = 114 -->
    <g transform="translate(903.075806 574.896606) scale(0.117187 -0.117187)">
     <use xlink:href="#DejaVuSans-73"/>
     <use xlink:href="#DejaVuSans-61" transform="translate(52.099609 0)"/>
     <use xlink:href="#DejaVuSans-6d" transform="translate(113.378906 0)"/>
     <use xlink:href="#DejaVuSans-70" transform="translate(210.791016 0)"/>
     <use xlink:href="#DejaVuSans-6c" transform="translate(274.267578 0)"/>
     <use xlink:href="#DejaVuSans-65" transform="translate(302.050781 0)"/>
     <use xlink:href="#DejaVuSans-73" transform="translate(363.574219 0)"/>
     <use xlink:href="#DejaVuSans-20" transform="translate(415.673828 0)"/>
     <use xlink:href="#DejaVuSans-3d" transform="translate(447.460938 0)"/>
     <use xlink:href="#DejaVuSans-20" transform="translate(531.25 0)"/>
     <use xlink:href="#DejaVuSans-31" transform="translate(563.037109 0)"/>
     <use xlink:href="#DejaVuSans-31" transform="translate(626.660156 0)"/>
     <use xlink:href="#DejaVuSans-34" transform="translate(690.283203 0)"/>
    </g>
    <!-- value = 0.491 -->
    <g transform="translate(905.836121 588.019043) scale(0.117187 -0.117187)">
     <use xlink:href="#DejaVuSans-76"/>
     <use xlink:href="#DejaVuSans-61" transform="translate(59.179688 0)"/>
     <use xlink:href="#DejaVuSans-6c" transform="translate(120.458984 0)"/>
     <use xlink:href="#DejaVuSans-75" transform="translate(148.242188 0)"/>
     <use xlink:href="#DejaVuSans-65" transform="translate(211.621094 0)"/>
     <use xlink:href="#DejaVuSans-20" transform="translate(273.144531 0)"/>
     <use xlink:href="#DejaVuSans-3d" transform="translate(304.931641 0)"/>
     <use xlink:href="#DejaVuSans-20" transform="translate(388.720703 0)"/>
     <use xlink:href="#DejaVuSans-30" transform="translate(420.507812 0)"/>
     <use xlink:href="#DejaVuSans-2e" transform="translate(484.130859 0)"/>
     <use xlink:href="#DejaVuSans-34" transform="translate(515.917969 0)"/>
     <use xlink:href="#DejaVuSans-39" transform="translate(579.541016 0)"/>
     <use xlink:href="#DejaVuSans-31" transform="translate(643.164062 0)"/>
    </g>
   </g>
   <g id="patch_14">
    <path d="M 1099.87682 545.415739 
Q 1127.488204 490.549247 1155.60218 434.684056 
" style="fill: none; stroke: #000000; stroke-linecap: round"/>
    <path d="M 1104.07759 542.282155 
L 1099.87682 545.415739 
L 1099.890414 540.174972 
" style="fill: none; stroke: #000000; stroke-linecap: round"/>
   </g>
   <g id="text_7">
    <g id="patch_15">
     <path d="M 1020.550964 593.971802 
L 1152.949036 593.971802 
Q 1156.464661 593.971802 1156.464661 590.456177 
L 1156.464661 552.217896 
Q 1156.464661 548.702271 1152.949036 548.702271 
L 1020.550964 548.702271 
Q 1017.035339 548.702271 1017.035339 552.217896 
L 1017.035339 590.456177 
Q 1017.035339 593.971802 1020.550964 593.971802 
z
" style="fill: #e99558; stroke: #000000; stroke-linejoin: miter"/>
    </g>
    <!-- squared_error = 0.126 -->
    <g transform="translate(1020.550964 561.448242) scale(0.117187 -0.117187)">
     <use xlink:href="#DejaVuSans-73"/>
     <use xlink:href="#DejaVuSans-71" transform="translate(52.099609 0)"/>
     <use xlink:href="#DejaVuSans-75" transform="translate(115.576172 0)"/>
     <use xlink:href="#DejaVuSans-61" transform="translate(178.955078 0)"/>
     <use xlink:href="#DejaVuSans-72" transform="translate(240.234375 0)"/>
     <use xlink:href="#DejaVuSans-65" transform="translate(279.097656 0)"/>
     <use xlink:href="#DejaVuSans-64" transform="translate(340.621094 0)"/>
     <use xlink:href="#DejaVuSans-5f" transform="translate(404.097656 0)"/>
     <use xlink:href="#DejaVuSans-65" transform="translate(454.097656 0)"/>
     <use xlink:href="#DejaVuSans-72" transform="translate(515.621094 0)"/>
     <use xlink:href="#DejaVuSans-72" transform="translate(554.984375 0)"/>
     <use xlink:href="#DejaVuSans-6f" transform="translate(593.847656 0)"/>
     <use xlink:href="#DejaVuSans-72" transform="translate(655.029297 0)"/>
     <use xlink:href="#DejaVuSans-20" transform="translate(696.142578 0)"/>
     <use xlink:href="#DejaVuSans-3d" transform="translate(727.929688 0)"/>
     <use xlink:href="#DejaVuSans-20" transform="translate(811.71875 0)"/>
     <use xlink:href="#DejaVuSans-30" transform="translate(843.505859 0)"/>
     <use xlink:href="#DejaVuSans-2e" transform="translate(907.128906 0)"/>
     <use xlink:href="#DejaVuSans-31" transform="translate(938.916016 0)"/>
     <use xlink:href="#DejaVuSans-32" transform="translate(1002.539062 0)"/>
     <use xlink:href="#DejaVuSans-36" transform="translate(1066.162109 0)"/>
    </g>
    <!-- samples = 61 -->
    <g transform="translate(1046.303833 574.896606) scale(0.117187 -0.117187)">
     <use xlink:href="#DejaVuSans-73"/>
     <use xlink:href="#DejaVuSans-61" transform="translate(52.099609 0)"/>
     <use xlink:href="#DejaVuSans-6d" transform="translate(113.378906 0)"/>
     <use xlink:href="#DejaVuSans-70" transform="translate(210.791016 0)"/>
     <use xlink:href="#DejaVuSans-6c" transform="translate(274.267578 0)"/>
     <use xlink:href="#DejaVuSans-65" transform="translate(302.050781 0)"/>
     <use xlink:href="#DejaVuSans-73" transform="translate(363.574219 0)"/>
     <use xlink:href="#DejaVuSans-20" transform="translate(415.673828 0)"/>
     <use xlink:href="#DejaVuSans-3d" transform="translate(447.460938 0)"/>
     <use xlink:href="#DejaVuSans-20" transform="translate(531.25 0)"/>
     <use xlink:href="#DejaVuSans-36" transform="translate(563.037109 0)"/>
     <use xlink:href="#DejaVuSans-31" transform="translate(626.660156 0)"/>
    </g>
    <!-- value = 0.852 -->
    <g transform="translate(1045.336121 588.019043) scale(0.117187 -0.117187)">
     <use xlink:href="#DejaVuSans-76"/>
     <use xlink:href="#DejaVuSans-61" transform="translate(59.179688 0)"/>
     <use xlink:href="#DejaVuSans-6c" transform="translate(120.458984 0)"/>
     <use xlink:href="#DejaVuSans-75" transform="translate(148.242188 0)"/>
     <use xlink:href="#DejaVuSans-65" transform="translate(211.621094 0)"/>
     <use xlink:href="#DejaVuSans-20" transform="translate(273.144531 0)"/>
     <use xlink:href="#DejaVuSans-3d" transform="translate(304.931641 0)"/>
     <use xlink:href="#DejaVuSans-20" transform="translate(388.720703 0)"/>
     <use xlink:href="#DejaVuSans-30" transform="translate(420.507812 0)"/>
     <use xlink:href="#DejaVuSans-2e" transform="translate(484.130859 0)"/>
     <use xlink:href="#DejaVuSans-38" transform="translate(515.917969 0)"/>
     <use xlink:href="#DejaVuSans-35" transform="translate(579.541016 0)"/>
     <use xlink:href="#DejaVuSans-32" transform="translate(643.164062 0)"/>
    </g>
   </g>
   <g id="patch_16">
    <path d="M 1213.12318 545.415739 
Q 1185.511796 490.549247 1157.39782 434.684056 
" style="fill: none; stroke: #000000; stroke-linecap: round"/>
    <path d="M 1213.109586 540.174972 
L 1213.12318 545.415739 
L 1208.92241 542.282155 
" style="fill: none; stroke: #000000; stroke-linecap: round"/>
   </g>
   <g id="text_8">
    <g id="patch_17">
     <path d="M 1163.778992 593.971802 
L 1288.721008 593.971802 
Q 1292.236633 593.971802 1292.236633 590.456177 
L 1292.236633 552.217896 
Q 1292.236633 548.702271 1288.721008 548.702271 
L 1163.778992 548.702271 
Q 1160.263367 548.702271 1160.263367 552.217896 
L 1160.263367 590.456177 
Q 1160.263367 593.971802 1163.778992 593.971802 
z
" style="fill: #fdf3ed; stroke: #000000; stroke-linejoin: miter"/>
    </g>
    <!-- squared_error = 0.13 -->
    <g transform="translate(1163.778992 561.448242) scale(0.117187 -0.117187)">
     <use xlink:href="#DejaVuSans-73"/>
     <use xlink:href="#DejaVuSans-71" transform="translate(52.099609 0)"/>
     <use xlink:href="#DejaVuSans-75" transform="translate(115.576172 0)"/>
     <use xlink:href="#DejaVuSans-61" transform="translate(178.955078 0)"/>
     <use xlink:href="#DejaVuSans-72" transform="translate(240.234375 0)"/>
     <use xlink:href="#DejaVuSans-65" transform="translate(279.097656 0)"/>
     <use xlink:href="#DejaVuSans-64" transform="translate(340.621094 0)"/>
     <use xlink:href="#DejaVuSans-5f" transform="translate(404.097656 0)"/>
     <use xlink:href="#DejaVuSans-65" transform="translate(454.097656 0)"/>
     <use xlink:href="#DejaVuSans-72" transform="translate(515.621094 0)"/>
     <use xlink:href="#DejaVuSans-72" transform="translate(554.984375 0)"/>
     <use xlink:href="#DejaVuSans-6f" transform="translate(593.847656 0)"/>
     <use xlink:href="#DejaVuSans-72" transform="translate(655.029297 0)"/>
     <use xlink:href="#DejaVuSans-20" transform="translate(696.142578 0)"/>
     <use xlink:href="#DejaVuSans-3d" transform="translate(727.929688 0)"/>
     <use xlink:href="#DejaVuSans-20" transform="translate(811.71875 0)"/>
     <use xlink:href="#DejaVuSans-30" transform="translate(843.505859 0)"/>
     <use xlink:href="#DejaVuSans-2e" transform="translate(907.128906 0)"/>
     <use xlink:href="#DejaVuSans-31" transform="translate(938.916016 0)"/>
     <use xlink:href="#DejaVuSans-33" transform="translate(1002.539062 0)"/>
    </g>
    <!-- samples = 176 -->
    <g transform="translate(1182.075806 574.896606) scale(0.117187 -0.117187)">
     <use xlink:href="#DejaVuSans-73"/>
     <use xlink:href="#DejaVuSans-61" transform="translate(52.099609 0)"/>
     <use xlink:href="#DejaVuSans-6d" transform="translate(113.378906 0)"/>
     <use xlink:href="#DejaVuSans-70" transform="translate(210.791016 0)"/>
     <use xlink:href="#DejaVuSans-6c" transform="translate(274.267578 0)"/>
     <use xlink:href="#DejaVuSans-65" transform="translate(302.050781 0)"/>
     <use xlink:href="#DejaVuSans-73" transform="translate(363.574219 0)"/>
     <use xlink:href="#DejaVuSans-20" transform="translate(415.673828 0)"/>
     <use xlink:href="#DejaVuSans-3d" transform="translate(447.460938 0)"/>
     <use xlink:href="#DejaVuSans-20" transform="translate(531.25 0)"/>
     <use xlink:href="#DejaVuSans-31" transform="translate(563.037109 0)"/>
     <use xlink:href="#DejaVuSans-37" transform="translate(626.660156 0)"/>
     <use xlink:href="#DejaVuSans-36" transform="translate(690.283203 0)"/>
    </g>
    <!-- value = 0.153 -->
    <g transform="translate(1184.836121 588.019043) scale(0.117187 -0.117187)">
     <use xlink:href="#DejaVuSans-76"/>
     <use xlink:href="#DejaVuSans-61" transform="translate(59.179688 0)"/>
     <use xlink:href="#DejaVuSans-6c" transform="translate(120.458984 0)"/>
     <use xlink:href="#DejaVuSans-75" transform="translate(148.242188 0)"/>
     <use xlink:href="#DejaVuSans-65" transform="translate(211.621094 0)"/>
     <use xlink:href="#DejaVuSans-20" transform="translate(273.144531 0)"/>
     <use xlink:href="#DejaVuSans-3d" transform="translate(304.931641 0)"/>
     <use xlink:href="#DejaVuSans-20" transform="translate(388.720703 0)"/>
     <use xlink:href="#DejaVuSans-30" transform="translate(420.507812 0)"/>
     <use xlink:href="#DejaVuSans-2e" transform="translate(484.130859 0)"/>
     <use xlink:href="#DejaVuSans-31" transform="translate(515.917969 0)"/>
     <use xlink:href="#DejaVuSans-35" transform="translate(579.541016 0)"/>
     <use xlink:href="#DejaVuSans-33" transform="translate(643.164062 0)"/>
    </g>
   </g>
   <g id="patch_18">
    <path d="M 351.926033 400.683167 
Q 404.357063 348.590402 457.581216 295.709631 
" style="fill: none; stroke: #000000; stroke-linecap: round"/>
    <path d="M 356.903215 399.041985 
L 351.926033 400.683167 
L 353.599396 395.716712 
" style="fill: none; stroke: #000000; stroke-linecap: round"/>
   </g>
   <g id="text_9">
    <g id="patch_19">
     <path d="M 257.028992 462.095984 
L 381.971008 462.095984 
Q 385.486633 462.095984 385.486633 458.580359 
L 385.486633 406.893713 
Q 385.486633 403.378088 381.971008 403.378088 
L 257.028992 403.378088 
Q 253.513367 403.378088 253.513367 406.893713 
L 253.513367 458.580359 
Q 253.513367 462.095984 257.028992 462.095984 
z
" style="fill: #f3c5a3; stroke: #000000; stroke-linejoin: miter"/>
    </g>
    <!-- else_clause &lt;= 0.5 -->
    <g transform="translate(263.005554 416.12406) scale(0.117187 -0.117187)">
     <defs>
      <path id="DejaVuSans-63" d="M 3122 3366 
L 3122 2828 
Q 2878 2963 2633 3030 
Q 2388 3097 2138 3097 
Q 1578 3097 1268 2742 
Q 959 2388 959 1747 
Q 959 1106 1268 751 
Q 1578 397 2138 397 
Q 2388 397 2633 464 
Q 2878 531 3122 666 
L 3122 134 
Q 2881 22 2623 -34 
Q 2366 -91 2075 -91 
Q 1284 -91 818 406 
Q 353 903 353 1747 
Q 353 2603 823 3093 
Q 1294 3584 2113 3584 
Q 2378 3584 2631 3529 
Q 2884 3475 3122 3366 
z
" transform="scale(0.015625)"/>
      <path id="DejaVuSans-3c" d="M 4684 3150 
L 1459 2003 
L 4684 863 
L 4684 294 
L 678 1747 
L 678 2266 
L 4684 3719 
L 4684 3150 
z
" transform="scale(0.015625)"/>
     </defs>
     <use xlink:href="#DejaVuSans-65"/>
     <use xlink:href="#DejaVuSans-6c" transform="translate(61.523438 0)"/>
     <use xlink:href="#DejaVuSans-73" transform="translate(89.306641 0)"/>
     <use xlink:href="#DejaVuSans-65" transform="translate(141.40625 0)"/>
     <use xlink:href="#DejaVuSans-5f" transform="translate(202.929688 0)"/>
     <use xlink:href="#DejaVuSans-63" transform="translate(252.929688 0)"/>
     <use xlink:href="#DejaVuSans-6c" transform="translate(307.910156 0)"/>
     <use xlink:href="#DejaVuSans-61" transform="translate(335.693359 0)"/>
     <use xlink:href="#DejaVuSans-75" transform="translate(396.972656 0)"/>
     <use xlink:href="#DejaVuSans-73" transform="translate(460.351562 0)"/>
     <use xlink:href="#DejaVuSans-65" transform="translate(512.451172 0)"/>
     <use xlink:href="#DejaVuSans-20" transform="translate(573.974609 0)"/>
     <use xlink:href="#DejaVuSans-3c" transform="translate(605.761719 0)"/>
     <use xlink:href="#DejaVuSans-3d" transform="translate(689.550781 0)"/>
     <use xlink:href="#DejaVuSans-20" transform="translate(773.339844 0)"/>
     <use xlink:href="#DejaVuSans-30" transform="translate(805.126953 0)"/>
     <use xlink:href="#DejaVuSans-2e" transform="translate(868.75 0)"/>
     <use xlink:href="#DejaVuSans-35" transform="translate(900.537109 0)"/>
    </g>
    <!-- squared_error = 0.25 -->
    <g transform="translate(257.028992 429.572424) scale(0.117187 -0.117187)">
     <use xlink:href="#DejaVuSans-73"/>
     <use xlink:href="#DejaVuSans-71" transform="translate(52.099609 0)"/>
     <use xlink:href="#DejaVuSans-75" transform="translate(115.576172 0)"/>
     <use xlink:href="#DejaVuSans-61" transform="translate(178.955078 0)"/>
     <use xlink:href="#DejaVuSans-72" transform="translate(240.234375 0)"/>
     <use xlink:href="#DejaVuSans-65" transform="translate(279.097656 0)"/>
     <use xlink:href="#DejaVuSans-64" transform="translate(340.621094 0)"/>
     <use xlink:href="#DejaVuSans-5f" transform="translate(404.097656 0)"/>
     <use xlink:href="#DejaVuSans-65" transform="translate(454.097656 0)"/>
     <use xlink:href="#DejaVuSans-72" transform="translate(515.621094 0)"/>
     <use xlink:href="#DejaVuSans-72" transform="translate(554.984375 0)"/>
     <use xlink:href="#DejaVuSans-6f" transform="translate(593.847656 0)"/>
     <use xlink:href="#DejaVuSans-72" transform="translate(655.029297 0)"/>
     <use xlink:href="#DejaVuSans-20" transform="translate(696.142578 0)"/>
     <use xlink:href="#DejaVuSans-3d" transform="translate(727.929688 0)"/>
     <use xlink:href="#DejaVuSans-20" transform="translate(811.71875 0)"/>
     <use xlink:href="#DejaVuSans-30" transform="translate(843.505859 0)"/>
     <use xlink:href="#DejaVuSans-2e" transform="translate(907.128906 0)"/>
     <use xlink:href="#DejaVuSans-32" transform="translate(938.916016 0)"/>
     <use xlink:href="#DejaVuSans-35" transform="translate(1002.539062 0)"/>
    </g>
    <!-- samples = 8193 -->
    <g transform="translate(271.597778 443.020789) scale(0.117187 -0.117187)">
     <use xlink:href="#DejaVuSans-73"/>
     <use xlink:href="#DejaVuSans-61" transform="translate(52.099609 0)"/>
     <use xlink:href="#DejaVuSans-6d" transform="translate(113.378906 0)"/>
     <use xlink:href="#DejaVuSans-70" transform="translate(210.791016 0)"/>
     <use xlink:href="#DejaVuSans-6c" transform="translate(274.267578 0)"/>
     <use xlink:href="#DejaVuSans-65" transform="translate(302.050781 0)"/>
     <use xlink:href="#DejaVuSans-73" transform="translate(363.574219 0)"/>
     <use xlink:href="#DejaVuSans-20" transform="translate(415.673828 0)"/>
     <use xlink:href="#DejaVuSans-3d" transform="translate(447.460938 0)"/>
     <use xlink:href="#DejaVuSans-20" transform="translate(531.25 0)"/>
     <use xlink:href="#DejaVuSans-38" transform="translate(563.037109 0)"/>
     <use xlink:href="#DejaVuSans-31" transform="translate(626.660156 0)"/>
     <use xlink:href="#DejaVuSans-39" transform="translate(690.283203 0)"/>
     <use xlink:href="#DejaVuSans-33" transform="translate(753.90625 0)"/>
    </g>
    <!-- value = 0.5 -->
    <g transform="translate(285.542175 456.143225) scale(0.117187 -0.117187)">
     <use xlink:href="#DejaVuSans-76"/>
     <use xlink:href="#DejaVuSans-61" transform="translate(59.179688 0)"/>
     <use xlink:href="#DejaVuSans-6c" transform="translate(120.458984 0)"/>
     <use xlink:href="#DejaVuSans-75" transform="translate(148.242188 0)"/>
     <use xlink:href="#DejaVuSans-65" transform="translate(211.621094 0)"/>
     <use xlink:href="#DejaVuSans-20" transform="translate(273.144531 0)"/>
     <use xlink:href="#DejaVuSans-3d" transform="translate(304.931641 0)"/>
     <use xlink:href="#DejaVuSans-20" transform="translate(388.720703 0)"/>
     <use xlink:href="#DejaVuSans-30" transform="translate(420.507812 0)"/>
     <use xlink:href="#DejaVuSans-2e" transform="translate(484.130859 0)"/>
     <use xlink:href="#DejaVuSans-35" transform="translate(515.917969 0)"/>
    </g>
   </g>
   <g id="patch_20">
    <path d="M 566.563896 401.169935 
Q 513.887817 348.833702 460.418615 295.709462 
" style="fill: none; stroke: #000000; stroke-linecap: round"/>
    <path d="M 564.890533 396.20348 
L 566.563896 401.169935 
L 561.586714 399.528752 
" style="fill: none; stroke: #000000; stroke-linecap: round"/>
   </g>
   <g id="text_10">
    <g id="patch_21">
     <path d="M 532.300964 461.93302 
L 664.699036 461.93302 
Q 668.214661 461.93302 668.214661 458.417395 
L 668.214661 407.382605 
Q 668.214661 403.86698 664.699036 403.86698 
L 532.300964 403.86698 
Q 528.785339 403.86698 528.785339 407.382605 
L 528.785339 458.417395 
Q 528.785339 461.93302 532.300964 461.93302 
z
" style="fill: #fefcfa; stroke: #000000; stroke-linejoin: miter"/>
    </g>
    <!-- } &lt;= 0.5 -->
    <g transform="translate(571.909424 416.287024) scale(0.117187 -0.117187)">
     <defs>
      <path id="DejaVuSans-7d" d="M 800 -594 
L 1019 -594 
Q 1456 -594 1589 -459 
Q 1722 -325 1722 122 
L 1722 897 
Q 1722 1384 1862 1606 
Q 2003 1828 2350 1913 
Q 2003 1991 1862 2212 
Q 1722 2434 1722 2925 
L 1722 3700 
Q 1722 4144 1589 4280 
Q 1456 4416 1019 4416 
L 800 4416 
L 800 4863 
L 997 4863 
Q 1775 4863 2036 4633 
Q 2297 4403 2297 3713 
L 2297 2963 
Q 2297 2497 2465 2317 
Q 2634 2138 3078 2138 
L 3272 2138 
L 3272 1691 
L 3078 1691 
Q 2634 1691 2465 1509 
Q 2297 1328 2297 856 
L 2297 109 
Q 2297 -581 2036 -812 
Q 1775 -1044 997 -1044 
L 800 -1044 
L 800 -594 
z
" transform="scale(0.015625)"/>
     </defs>
     <use xlink:href="#DejaVuSans-7d"/>
     <use xlink:href="#DejaVuSans-20" transform="translate(63.623047 0)"/>
     <use xlink:href="#DejaVuSans-3c" transform="translate(95.410156 0)"/>
     <use xlink:href="#DejaVuSans-3d" transform="translate(179.199219 0)"/>
     <use xlink:href="#DejaVuSans-20" transform="translate(262.988281 0)"/>
     <use xlink:href="#DejaVuSans-30" transform="translate(294.775391 0)"/>
     <use xlink:href="#DejaVuSans-2e" transform="translate(358.398438 0)"/>
     <use xlink:href="#DejaVuSans-35" transform="translate(390.185547 0)"/>
    </g>
    <!-- squared_error = 0.082 -->
    <g transform="translate(532.300964 429.40946) scale(0.117187 -0.117187)">
     <use xlink:href="#DejaVuSans-73"/>
     <use xlink:href="#DejaVuSans-71" transform="translate(52.099609 0)"/>
     <use xlink:href="#DejaVuSans-75" transform="translate(115.576172 0)"/>
     <use xlink:href="#DejaVuSans-61" transform="translate(178.955078 0)"/>
     <use xlink:href="#DejaVuSans-72" transform="translate(240.234375 0)"/>
     <use xlink:href="#DejaVuSans-65" transform="translate(279.097656 0)"/>
     <use xlink:href="#DejaVuSans-64" transform="translate(340.621094 0)"/>
     <use xlink:href="#DejaVuSans-5f" transform="translate(404.097656 0)"/>
     <use xlink:href="#DejaVuSans-65" transform="translate(454.097656 0)"/>
     <use xlink:href="#DejaVuSans-72" transform="translate(515.621094 0)"/>
     <use xlink:href="#DejaVuSans-72" transform="translate(554.984375 0)"/>
     <use xlink:href="#DejaVuSans-6f" transform="translate(593.847656 0)"/>
     <use xlink:href="#DejaVuSans-72" transform="translate(655.029297 0)"/>
     <use xlink:href="#DejaVuSans-20" transform="translate(696.142578 0)"/>
     <use xlink:href="#DejaVuSans-3d" transform="translate(727.929688 0)"/>
     <use xlink:href="#DejaVuSans-20" transform="translate(811.71875 0)"/>
     <use xlink:href="#DejaVuSans-30" transform="translate(843.505859 0)"/>
     <use xlink:href="#DejaVuSans-2e" transform="translate(907.128906 0)"/>
     <use xlink:href="#DejaVuSans-30" transform="translate(938.916016 0)"/>
     <use xlink:href="#DejaVuSans-38" transform="translate(1002.539062 0)"/>
     <use xlink:href="#DejaVuSans-32" transform="translate(1066.162109 0)"/>
    </g>
    <!-- samples = 290 -->
    <g transform="translate(554.325806 442.857825) scale(0.117187 -0.117187)">
     <use xlink:href="#DejaVuSans-73"/>
     <use xlink:href="#DejaVuSans-61" transform="translate(52.099609 0)"/>
     <use xlink:href="#DejaVuSans-6d" transform="translate(113.378906 0)"/>
     <use xlink:href="#DejaVuSans-70" transform="translate(210.791016 0)"/>
     <use xlink:href="#DejaVuSans-6c" transform="translate(274.267578 0)"/>
     <use xlink:href="#DejaVuSans-65" transform="translate(302.050781 0)"/>
     <use xlink:href="#DejaVuSans-73" transform="translate(363.574219 0)"/>
     <use xlink:href="#DejaVuSans-20" transform="translate(415.673828 0)"/>
     <use xlink:href="#DejaVuSans-3d" transform="translate(447.460938 0)"/>
     <use xlink:href="#DejaVuSans-20" transform="translate(531.25 0)"/>
     <use xlink:href="#DejaVuSans-32" transform="translate(563.037109 0)"/>
     <use xlink:href="#DejaVuSans-39" transform="translate(626.660156 0)"/>
     <use xlink:href="#DejaVuSans-30" transform="translate(690.283203 0)"/>
    </g>
    <!-- value = 0.09 -->
    <g transform="translate(560.814148 455.980261) scale(0.117187 -0.117187)">
     <use xlink:href="#DejaVuSans-76"/>
     <use xlink:href="#DejaVuSans-61" transform="translate(59.179688 0)"/>
     <use xlink:href="#DejaVuSans-6c" transform="translate(120.458984 0)"/>
     <use xlink:href="#DejaVuSans-75" transform="translate(148.242188 0)"/>
     <use xlink:href="#DejaVuSans-65" transform="translate(211.621094 0)"/>
     <use xlink:href="#DejaVuSans-20" transform="translate(273.144531 0)"/>
     <use xlink:href="#DejaVuSans-3d" transform="translate(304.931641 0)"/>
     <use xlink:href="#DejaVuSans-20" transform="translate(388.720703 0)"/>
     <use xlink:href="#DejaVuSans-30" transform="translate(420.507812 0)"/>
     <use xlink:href="#DejaVuSans-2e" transform="translate(484.130859 0)"/>
     <use xlink:href="#DejaVuSans-30" transform="translate(515.917969 0)"/>
     <use xlink:href="#DejaVuSans-39" transform="translate(579.541016 0)"/>
    </g>
   </g>
   <g id="patch_22">
    <path d="M 909.436104 401.169935 
Q 962.112183 348.833702 1015.581385 295.709462 
" style="fill: none; stroke: #000000; stroke-linecap: round"/>
    <path d="M 914.413286 399.528752 
L 909.436104 401.169935 
L 911.109467 396.20348 
" style="fill: none; stroke: #000000; stroke-linecap: round"/>
   </g>
   <g id="text_11">
    <g id="patch_23">
     <path d="M 815.028992 461.93302 
L 939.971008 461.93302 
Q 943.486633 461.93302 943.486633 458.417395 
L 943.486633 407.382605 
Q 943.486633 403.86698 939.971008 403.86698 
L 815.028992 403.86698 
Q 811.513367 403.86698 811.513367 407.382605 
L 811.513367 458.417395 
Q 811.513367 461.93302 815.028992 461.93302 
z
" style="fill: #eb9c63; stroke: #000000; stroke-linejoin: miter"/>
    </g>
    <!-- assignment &lt;= 9.5 -->
    <g transform="translate(820.557861 416.287024) scale(0.117187 -0.117187)">
     <defs>
      <path id="DejaVuSans-69" d="M 603 3500 
L 1178 3500 
L 1178 0 
L 603 0 
L 603 3500 
z
M 603 4863 
L 1178 4863 
L 1178 4134 
L 603 4134 
L 603 4863 
z
" transform="scale(0.015625)"/>
      <path id="DejaVuSans-67" d="M 2906 1791 
Q 2906 2416 2648 2759 
Q 2391 3103 1925 3103 
Q 1463 3103 1205 2759 
Q 947 2416 947 1791 
Q 947 1169 1205 825 
Q 1463 481 1925 481 
Q 2391 481 2648 825 
Q 2906 1169 2906 1791 
z
M 3481 434 
Q 3481 -459 3084 -895 
Q 2688 -1331 1869 -1331 
Q 1566 -1331 1297 -1286 
Q 1028 -1241 775 -1147 
L 775 -588 
Q 1028 -725 1275 -790 
Q 1522 -856 1778 -856 
Q 2344 -856 2625 -561 
Q 2906 -266 2906 331 
L 2906 616 
Q 2728 306 2450 153 
Q 2172 0 1784 0 
Q 1141 0 747 490 
Q 353 981 353 1791 
Q 353 2603 747 3093 
Q 1141 3584 1784 3584 
Q 2172 3584 2450 3431 
Q 2728 3278 2906 2969 
L 2906 3500 
L 3481 3500 
L 3481 434 
z
" transform="scale(0.015625)"/>
      <path id="DejaVuSans-6e" d="M 3513 2113 
L 3513 0 
L 2938 0 
L 2938 2094 
Q 2938 2591 2744 2837 
Q 2550 3084 2163 3084 
Q 1697 3084 1428 2787 
Q 1159 2491 1159 1978 
L 1159 0 
L 581 0 
L 581 3500 
L 1159 3500 
L 1159 2956 
Q 1366 3272 1645 3428 
Q 1925 3584 2291 3584 
Q 2894 3584 3203 3211 
Q 3513 2838 3513 2113 
z
" transform="scale(0.015625)"/>
      <path id="DejaVuSans-74" d="M 1172 4494 
L 1172 3500 
L 2356 3500 
L 2356 3053 
L 1172 3053 
L 1172 1153 
Q 1172 725 1289 603 
Q 1406 481 1766 481 
L 2356 481 
L 2356 0 
L 1766 0 
Q 1100 0 847 248 
Q 594 497 594 1153 
L 594 3053 
L 172 3053 
L 172 3500 
L 594 3500 
L 594 4494 
L 1172 4494 
z
" transform="scale(0.015625)"/>
     </defs>
     <use xlink:href="#DejaVuSans-61"/>
     <use xlink:href="#DejaVuSans-73" transform="translate(61.279297 0)"/>
     <use xlink:href="#DejaVuSans-73" transform="translate(113.378906 0)"/>
     <use xlink:href="#DejaVuSans-69" transform="translate(165.478516 0)"/>
     <use xlink:href="#DejaVuSans-67" transform="translate(193.261719 0)"/>
     <use xlink:href="#DejaVuSans-6e" transform="translate(256.738281 0)"/>
     <use xlink:href="#DejaVuSans-6d" transform="translate(320.117188 0)"/>
     <use xlink:href="#DejaVuSans-65" transform="translate(417.529297 0)"/>
     <use xlink:href="#DejaVuSans-6e" transform="translate(479.052734 0)"/>
     <use xlink:href="#DejaVuSans-74" transform="translate(542.431641 0)"/>
     <use xlink:href="#DejaVuSans-20" transform="translate(581.640625 0)"/>
     <use xlink:href="#DejaVuSans-3c" transform="translate(613.427734 0)"/>
     <use xlink:href="#DejaVuSans-3d" transform="translate(697.216797 0)"/>
     <use xlink:href="#DejaVuSans-20" transform="translate(781.005859 0)"/>
     <use xlink:href="#DejaVuSans-39" transform="translate(812.792969 0)"/>
     <use xlink:href="#DejaVuSans-2e" transform="translate(876.416016 0)"/>
     <use xlink:href="#DejaVuSans-35" transform="translate(908.203125 0)"/>
    </g>
    <!-- squared_error = 0.16 -->
    <g transform="translate(815.028992 429.40946) scale(0.117187 -0.117187)">
     <use xlink:href="#DejaVuSans-73"/>
     <use xlink:href="#DejaVuSans-71" transform="translate(52.099609 0)"/>
     <use xlink:href="#DejaVuSans-75" transform="translate(115.576172 0)"/>
     <use xlink:href="#DejaVuSans-61" transform="translate(178.955078 0)"/>
     <use xlink:href="#DejaVuSans-72" transform="translate(240.234375 0)"/>
     <use xlink:href="#DejaVuSans-65" transform="translate(279.097656 0)"/>
     <use xlink:href="#DejaVuSans-64" transform="translate(340.621094 0)"/>
     <use xlink:href="#DejaVuSans-5f" transform="translate(404.097656 0)"/>
     <use xlink:href="#DejaVuSans-65" transform="translate(454.097656 0)"/>
     <use xlink:href="#DejaVuSans-72" transform="translate(515.621094 0)"/>
     <use xlink:href="#DejaVuSans-72" transform="translate(554.984375 0)"/>
     <use xlink:href="#DejaVuSans-6f" transform="translate(593.847656 0)"/>
     <use xlink:href="#DejaVuSans-72" transform="translate(655.029297 0)"/>
     <use xlink:href="#DejaVuSans-20" transform="translate(696.142578 0)"/>
     <use xlink:href="#DejaVuSans-3d" transform="translate(727.929688 0)"/>
     <use xlink:href="#DejaVuSans-20" transform="translate(811.71875 0)"/>
     <use xlink:href="#DejaVuSans-30" transform="translate(843.505859 0)"/>
     <use xlink:href="#DejaVuSans-2e" transform="translate(907.128906 0)"/>
     <use xlink:href="#DejaVuSans-31" transform="translate(938.916016 0)"/>
     <use xlink:href="#DejaVuSans-36" transform="translate(1002.539062 0)"/>
    </g>
    <!-- samples = 1222 -->
    <g transform="translate(829.597778 442.857825) scale(0.117187 -0.117187)">
     <use xlink:href="#DejaVuSans-73"/>
     <use xlink:href="#DejaVuSans-61" transform="translate(52.099609 0)"/>
     <use xlink:href="#DejaVuSans-6d" transform="translate(113.378906 0)"/>
     <use xlink:href="#DejaVuSans-70" transform="translate(210.791016 0)"/>
     <use xlink:href="#DejaVuSans-6c" transform="translate(274.267578 0)"/>
     <use xlink:href="#DejaVuSans-65" transform="translate(302.050781 0)"/>
     <use xlink:href="#DejaVuSans-73" transform="translate(363.574219 0)"/>
     <use xlink:href="#DejaVuSans-20" transform="translate(415.673828 0)"/>
     <use xlink:href="#DejaVuSans-3d" transform="translate(447.460938 0)"/>
     <use xlink:href="#DejaVuSans-20" transform="translate(531.25 0)"/>
     <use xlink:href="#DejaVuSans-31" transform="translate(563.037109 0)"/>
     <use xlink:href="#DejaVuSans-32" transform="translate(626.660156 0)"/>
     <use xlink:href="#DejaVuSans-32" transform="translate(690.283203 0)"/>
     <use xlink:href="#DejaVuSans-32" transform="translate(753.90625 0)"/>
    </g>
    <!-- value = 0.8 -->
    <g transform="translate(843.542175 455.980261) scale(0.117187 -0.117187)">
     <use xlink:href="#DejaVuSans-76"/>
     <use xlink:href="#DejaVuSans-61" transform="translate(59.179688 0)"/>
     <use xlink:href="#DejaVuSans-6c" transform="translate(120.458984 0)"/>
     <use xlink:href="#DejaVuSans-75" transform="translate(148.242188 0)"/>
     <use xlink:href="#DejaVuSans-65" transform="translate(211.621094 0)"/>
     <use xlink:href="#DejaVuSans-20" transform="translate(273.144531 0)"/>
     <use xlink:href="#DejaVuSans-3d" transform="translate(304.931641 0)"/>
     <use xlink:href="#DejaVuSans-20" transform="translate(388.720703 0)"/>
     <use xlink:href="#DejaVuSans-30" transform="translate(420.507812 0)"/>
     <use xlink:href="#DejaVuSans-2e" transform="translate(484.130859 0)"/>
     <use xlink:href="#DejaVuSans-38" transform="translate(515.917969 0)"/>
    </g>
   </g>
   <g id="patch_24">
    <path d="M 1124.073967 400.683167 
Q 1071.642937 348.590402 1018.418784 295.709631 
" style="fill: none; stroke: #000000; stroke-linecap: round"/>
    <path d="M 1122.400604 395.716712 
L 1124.073967 400.683167 
L 1119.096785 399.041985 
" style="fill: none; stroke: #000000; stroke-linecap: round"/>
   </g>
   <g id="text_12">
    <g id="patch_25">
     <path d="M 1090.300964 462.095984 
L 1222.699036 462.095984 
Q 1226.214661 462.095984 1226.214661 458.580359 
L 1226.214661 406.893713 
Q 1226.214661 403.378088 1222.699036 403.378088 
L 1090.300964 403.378088 
Q 1086.785339 403.378088 1086.785339 406.893713 
L 1086.785339 458.580359 
Q 1086.785339 462.095984 1090.300964 462.095984 
z
" style="fill: #f8dbc6; stroke: #000000; stroke-linejoin: miter"/>
    </g>
    <!-- if_statement &lt;= 1.5 -->
    <g transform="translate(1096.851562 416.12406) scale(0.117187 -0.117187)">
     <defs>
      <path id="DejaVuSans-66" d="M 2375 4863 
L 2375 4384 
L 1825 4384 
Q 1516 4384 1395 4259 
Q 1275 4134 1275 3809 
L 1275 3500 
L 2222 3500 
L 2222 3053 
L 1275 3053 
L 1275 0 
L 697 0 
L 697 3053 
L 147 3053 
L 147 3500 
L 697 3500 
L 697 3744 
Q 697 4328 969 4595 
Q 1241 4863 1831 4863 
L 2375 4863 
z
" transform="scale(0.015625)"/>
     </defs>
     <use xlink:href="#DejaVuSans-69"/>
     <use xlink:href="#DejaVuSans-66" transform="translate(27.783203 0)"/>
     <use xlink:href="#DejaVuSans-5f" transform="translate(62.988281 0)"/>
     <use xlink:href="#DejaVuSans-73" transform="translate(112.988281 0)"/>
     <use xlink:href="#DejaVuSans-74" transform="translate(165.087891 0)"/>
     <use xlink:href="#DejaVuSans-61" transform="translate(204.296875 0)"/>
     <use xlink:href="#DejaVuSans-74" transform="translate(265.576172 0)"/>
     <use xlink:href="#DejaVuSans-65" transform="translate(304.785156 0)"/>
     <use xlink:href="#DejaVuSans-6d" transform="translate(366.308594 0)"/>
     <use xlink:href="#DejaVuSans-65" transform="translate(463.720703 0)"/>
     <use xlink:href="#DejaVuSans-6e" transform="translate(525.244141 0)"/>
     <use xlink:href="#DejaVuSans-74" transform="translate(588.623047 0)"/>
     <use xlink:href="#DejaVuSans-20" transform="translate(627.832031 0)"/>
     <use xlink:href="#DejaVuSans-3c" transform="translate(659.619141 0)"/>
     <use xlink:href="#DejaVuSans-3d" transform="translate(743.408203 0)"/>
     <use xlink:href="#DejaVuSans-20" transform="translate(827.197266 0)"/>
     <use xlink:href="#DejaVuSans-31" transform="translate(858.984375 0)"/>
     <use xlink:href="#DejaVuSans-2e" transform="translate(922.607422 0)"/>
     <use xlink:href="#DejaVuSans-35" transform="translate(954.394531 0)"/>
    </g>
    <!-- squared_error = 0.222 -->
    <g transform="translate(1090.300964 429.572424) scale(0.117187 -0.117187)">
     <use xlink:href="#DejaVuSans-73"/>
     <use xlink:href="#DejaVuSans-71" transform="translate(52.099609 0)"/>
     <use xlink:href="#DejaVuSans-75" transform="translate(115.576172 0)"/>
     <use xlink:href="#DejaVuSans-61" transform="translate(178.955078 0)"/>
     <use xlink:href="#DejaVuSans-72" transform="translate(240.234375 0)"/>
     <use xlink:href="#DejaVuSans-65" transform="translate(279.097656 0)"/>
     <use xlink:href="#DejaVuSans-64" transform="translate(340.621094 0)"/>
     <use xlink:href="#DejaVuSans-5f" transform="translate(404.097656 0)"/>
     <use xlink:href="#DejaVuSans-65" transform="translate(454.097656 0)"/>
     <use xlink:href="#DejaVuSans-72" transform="translate(515.621094 0)"/>
     <use xlink:href="#DejaVuSans-72" transform="translate(554.984375 0)"/>
     <use xlink:href="#DejaVuSans-6f" transform="translate(593.847656 0)"/>
     <use xlink:href="#DejaVuSans-72" transform="translate(655.029297 0)"/>
     <use xlink:href="#DejaVuSans-20" transform="translate(696.142578 0)"/>
     <use xlink:href="#DejaVuSans-3d" transform="translate(727.929688 0)"/>
     <use xlink:href="#DejaVuSans-20" transform="translate(811.71875 0)"/>
     <use xlink:href="#DejaVuSans-30" transform="translate(843.505859 0)"/>
     <use xlink:href="#DejaVuSans-2e" transform="translate(907.128906 0)"/>
     <use xlink:href="#DejaVuSans-32" transform="translate(938.916016 0)"/>
     <use xlink:href="#DejaVuSans-32" transform="translate(1002.539062 0)"/>
     <use xlink:href="#DejaVuSans-32" transform="translate(1066.162109 0)"/>
    </g>
    <!-- samples = 237 -->
    <g transform="translate(1112.325806 443.020789) scale(0.117187 -0.117187)">
     <use xlink:href="#DejaVuSans-73"/>
     <use xlink:href="#DejaVuSans-61" transform="translate(52.099609 0)"/>
     <use xlink:href="#DejaVuSans-6d" transform="translate(113.378906 0)"/>
     <use xlink:href="#DejaVuSans-70" transform="translate(210.791016 0)"/>
     <use xlink:href="#DejaVuSans-6c" transform="translate(274.267578 0)"/>
     <use xlink:href="#DejaVuSans-65" transform="translate(302.050781 0)"/>
     <use xlink:href="#DejaVuSans-73" transform="translate(363.574219 0)"/>
     <use xlink:href="#DejaVuSans-20" transform="translate(415.673828 0)"/>
     <use xlink:href="#DejaVuSans-3d" transform="translate(447.460938 0)"/>
     <use xlink:href="#DejaVuSans-20" transform="translate(531.25 0)"/>
     <use xlink:href="#DejaVuSans-32" transform="translate(563.037109 0)"/>
     <use xlink:href="#DejaVuSans-33" transform="translate(626.660156 0)"/>
     <use xlink:href="#DejaVuSans-37" transform="translate(690.283203 0)"/>
    </g>
    <!-- value = 0.333 -->
    <g transform="translate(1115.086121 456.143225) scale(0.117187 -0.117187)">
     <use xlink:href="#DejaVuSans-76"/>
     <use xlink:href="#DejaVuSans-61" transform="translate(59.179688 0)"/>
     <use xlink:href="#DejaVuSans-6c" transform="translate(120.458984 0)"/>
     <use xlink:href="#DejaVuSans-75" transform="translate(148.242188 0)"/>
     <use xlink:href="#DejaVuSans-65" transform="translate(211.621094 0)"/>
     <use xlink:href="#DejaVuSans-20" transform="translate(273.144531 0)"/>
     <use xlink:href="#DejaVuSans-3d" transform="translate(304.931641 0)"/>
     <use xlink:href="#DejaVuSans-20" transform="translate(388.720703 0)"/>
     <use xlink:href="#DejaVuSans-30" transform="translate(420.507812 0)"/>
     <use xlink:href="#DejaVuSans-2e" transform="translate(484.130859 0)"/>
     <use xlink:href="#DejaVuSans-33" transform="translate(515.917969 0)"/>
     <use xlink:href="#DejaVuSans-33" transform="translate(579.541016 0)"/>
     <use xlink:href="#DejaVuSans-33" transform="translate(643.164062 0)"/>
    </g>
   </g>
   <g id="patch_26">
    <path d="M 522.223221 262.892335 
Q 628.716214 209.989365 736.210496 156.588979 
" style="fill: none; stroke: #000000; stroke-linecap: round"/>
    <path d="M 527.463988 262.905877 
L 522.223221 262.892335 
L 525.378515 258.707847 
" style="fill: none; stroke: #000000; stroke-linecap: round"/>
   </g>
   <g id="text_13">
    <g id="patch_27">
     <path d="M 396.528992 323.495984 
L 521.471008 323.495984 
Q 524.986633 323.495984 524.986633 319.980359 
L 524.986633 268.293713 
Q 524.986633 264.778088 521.471008 264.778088 
L 396.528992 264.778088 
Q 393.013367 264.778088 393.013367 268.293713 
L 393.013367 319.980359 
Q 393.013367 323.495984 396.528992 323.495984 
z
" style="fill: #f3c6a6; stroke: #000000; stroke-linejoin: miter"/>
    </g>
    <!-- dotted_name &lt;= 0.5 -->
    <g transform="translate(397.366699 277.52406) scale(0.117187 -0.117187)">
     <use xlink:href="#DejaVuSans-64"/>
     <use xlink:href="#DejaVuSans-6f" transform="translate(63.476562 0)"/>
     <use xlink:href="#DejaVuSans-74" transform="translate(124.658203 0)"/>
     <use xlink:href="#DejaVuSans-74" transform="translate(163.867188 0)"/>
     <use xlink:href="#DejaVuSans-65" transform="translate(203.076172 0)"/>
     <use xlink:href="#DejaVuSans-64" transform="translate(264.599609 0)"/>
     <use xlink:href="#DejaVuSans-5f" transform="translate(328.076172 0)"/>
     <use xlink:href="#DejaVuSans-6e" transform="translate(378.076172 0)"/>
     <use xlink:href="#DejaVuSans-61" transform="translate(441.455078 0)"/>
     <use xlink:href="#DejaVuSans-6d" transform="translate(502.734375 0)"/>
     <use xlink:href="#DejaVuSans-65" transform="translate(600.146484 0)"/>
     <use xlink:href="#DejaVuSans-20" transform="translate(661.669922 0)"/>
     <use xlink:href="#DejaVuSans-3c" transform="translate(693.457031 0)"/>
     <use xlink:href="#DejaVuSans-3d" transform="translate(777.246094 0)"/>
     <use xlink:href="#DejaVuSans-20" transform="translate(861.035156 0)"/>
     <use xlink:href="#DejaVuSans-30" transform="translate(892.822266 0)"/>
     <use xlink:href="#DejaVuSans-2e" transform="translate(956.445312 0)"/>
     <use xlink:href="#DejaVuSans-35" transform="translate(988.232422 0)"/>
    </g>
    <!-- squared_error = 0.25 -->
    <g transform="translate(396.528992 290.972424) scale(0.117187 -0.117187)">
     <use xlink:href="#DejaVuSans-73"/>
     <use xlink:href="#DejaVuSans-71" transform="translate(52.099609 0)"/>
     <use xlink:href="#DejaVuSans-75" transform="translate(115.576172 0)"/>
     <use xlink:href="#DejaVuSans-61" transform="translate(178.955078 0)"/>
     <use xlink:href="#DejaVuSans-72" transform="translate(240.234375 0)"/>
     <use xlink:href="#DejaVuSans-65" transform="translate(279.097656 0)"/>
     <use xlink:href="#DejaVuSans-64" transform="translate(340.621094 0)"/>
     <use xlink:href="#DejaVuSans-5f" transform="translate(404.097656 0)"/>
     <use xlink:href="#DejaVuSans-65" transform="translate(454.097656 0)"/>
     <use xlink:href="#DejaVuSans-72" transform="translate(515.621094 0)"/>
     <use xlink:href="#DejaVuSans-72" transform="translate(554.984375 0)"/>
     <use xlink:href="#DejaVuSans-6f" transform="translate(593.847656 0)"/>
     <use xlink:href="#DejaVuSans-72" transform="translate(655.029297 0)"/>
     <use xlink:href="#DejaVuSans-20" transform="translate(696.142578 0)"/>
     <use xlink:href="#DejaVuSans-3d" transform="translate(727.929688 0)"/>
     <use xlink:href="#DejaVuSans-20" transform="translate(811.71875 0)"/>
     <use xlink:href="#DejaVuSans-30" transform="translate(843.505859 0)"/>
     <use xlink:href="#DejaVuSans-2e" transform="translate(907.128906 0)"/>
     <use xlink:href="#DejaVuSans-32" transform="translate(938.916016 0)"/>
     <use xlink:href="#DejaVuSans-35" transform="translate(1002.539062 0)"/>
    </g>
    <!-- samples = 8483 -->
    <g transform="translate(411.097778 304.420789) scale(0.117187 -0.117187)">
     <use xlink:href="#DejaVuSans-73"/>
     <use xlink:href="#DejaVuSans-61" transform="translate(52.099609 0)"/>
     <use xlink:href="#DejaVuSans-6d" transform="translate(113.378906 0)"/>
     <use xlink:href="#DejaVuSans-70" transform="translate(210.791016 0)"/>
     <use xlink:href="#DejaVuSans-6c" transform="translate(274.267578 0)"/>
     <use xlink:href="#DejaVuSans-65" transform="translate(302.050781 0)"/>
     <use xlink:href="#DejaVuSans-73" transform="translate(363.574219 0)"/>
     <use xlink:href="#DejaVuSans-20" transform="translate(415.673828 0)"/>
     <use xlink:href="#DejaVuSans-3d" transform="translate(447.460938 0)"/>
     <use xlink:href="#DejaVuSans-20" transform="translate(531.25 0)"/>
     <use xlink:href="#DejaVuSans-38" transform="translate(563.037109 0)"/>
     <use xlink:href="#DejaVuSans-34" transform="translate(626.660156 0)"/>
     <use xlink:href="#DejaVuSans-38" transform="translate(690.283203 0)"/>
     <use xlink:href="#DejaVuSans-33" transform="translate(753.90625 0)"/>
    </g>
    <!-- value = 0.486 -->
    <g transform="translate(417.586121 317.543225) scale(0.117187 -0.117187)">
     <use xlink:href="#DejaVuSans-76"/>
     <use xlink:href="#DejaVuSans-61" transform="translate(59.179688 0)"/>
     <use xlink:href="#DejaVuSans-6c" transform="translate(120.458984 0)"/>
     <use xlink:href="#DejaVuSans-75" transform="translate(148.242188 0)"/>
     <use xlink:href="#DejaVuSans-65" transform="translate(211.621094 0)"/>
     <use xlink:href="#DejaVuSans-20" transform="translate(273.144531 0)"/>
     <use xlink:href="#DejaVuSans-3d" transform="translate(304.931641 0)"/>
     <use xlink:href="#DejaVuSans-20" transform="translate(388.720703 0)"/>
     <use xlink:href="#DejaVuSans-30" transform="translate(420.507812 0)"/>
     <use xlink:href="#DejaVuSans-2e" transform="translate(484.130859 0)"/>
     <use xlink:href="#DejaVuSans-34" transform="translate(515.917969 0)"/>
     <use xlink:href="#DejaVuSans-38" transform="translate(579.541016 0)"/>
     <use xlink:href="#DejaVuSans-36" transform="translate(643.164062 0)"/>
    </g>
   </g>
   <g id="text_14">
    <!-- True   -->
    <g transform="translate(566.167236 225) scale(0.117187 -0.117187)">
     <defs>
      <path id="DejaVuSans-54" d="M -19 4666 
L 3928 4666 
L 3928 4134 
L 2272 4134 
L 2272 0 
L 1638 0 
L 1638 4134 
L -19 4134 
L -19 4666 
z
" transform="scale(0.015625)"/>
     </defs>
     <use xlink:href="#DejaVuSans-54"/>
     <use xlink:href="#DejaVuSans-72" transform="translate(46.333984 0)"/>
     <use xlink:href="#DejaVuSans-75" transform="translate(87.447266 0)"/>
     <use xlink:href="#DejaVuSans-65" transform="translate(150.826172 0)"/>
     <use xlink:href="#DejaVuSans-20" transform="translate(212.349609 0)"/>
     <use xlink:href="#DejaVuSans-20" transform="translate(244.136719 0)"/>
    </g>
   </g>
   <g id="patch_28">
    <path d="M 954.839061 263.42005 
Q 847.815988 210.253749 739.791625 156.590033 
" style="fill: none; stroke: #000000; stroke-linecap: round"/>
    <path d="M 951.683768 259.235562 
L 954.839061 263.42005 
L 949.598295 263.433592 
" style="fill: none; stroke: #000000; stroke-linecap: round"/>
   </g>
   <g id="text_15">
    <g id="patch_29">
     <path d="M 958.257019 323.33302 
L 1075.742981 323.33302 
Q 1079.258606 323.33302 1079.258606 319.817395 
L 1079.258606 268.782605 
Q 1079.258606 265.26698 1075.742981 265.26698 
L 958.257019 265.26698 
Q 954.741394 265.26698 954.741394 268.782605 
L 954.741394 319.817395 
Q 954.741394 323.33302 958.257019 323.33302 
z
" style="fill: #eda673; stroke: #000000; stroke-linejoin: miter"/>
    </g>
    <!-- // &lt;= 1.5 -->
    <g transform="translate(990.189697 277.687024) scale(0.117187 -0.117187)">
     <defs>
      <path id="DejaVuSans-2f" d="M 1625 4666 
L 2156 4666 
L 531 -594 
L 0 -594 
L 1625 4666 
z
" transform="scale(0.015625)"/>
     </defs>
     <use xlink:href="#DejaVuSans-2f"/>
     <use xlink:href="#DejaVuSans-2f" transform="translate(33.691406 0)"/>
     <use xlink:href="#DejaVuSans-20" transform="translate(67.382812 0)"/>
     <use xlink:href="#DejaVuSans-3c" transform="translate(99.169922 0)"/>
     <use xlink:href="#DejaVuSans-3d" transform="translate(182.958984 0)"/>
     <use xlink:href="#DejaVuSans-20" transform="translate(266.748047 0)"/>
     <use xlink:href="#DejaVuSans-31" transform="translate(298.535156 0)"/>
     <use xlink:href="#DejaVuSans-2e" transform="translate(362.158203 0)"/>
     <use xlink:href="#DejaVuSans-35" transform="translate(393.945312 0)"/>
    </g>
    <!-- squared_error = 0.2 -->
    <g transform="translate(958.257019 290.80946) scale(0.117187 -0.117187)">
     <use xlink:href="#DejaVuSans-73"/>
     <use xlink:href="#DejaVuSans-71" transform="translate(52.099609 0)"/>
     <use xlink:href="#DejaVuSans-75" transform="translate(115.576172 0)"/>
     <use xlink:href="#DejaVuSans-61" transform="translate(178.955078 0)"/>
     <use xlink:href="#DejaVuSans-72" transform="translate(240.234375 0)"/>
     <use xlink:href="#DejaVuSans-65" transform="translate(279.097656 0)"/>
     <use xlink:href="#DejaVuSans-64" transform="translate(340.621094 0)"/>
     <use xlink:href="#DejaVuSans-5f" transform="translate(404.097656 0)"/>
     <use xlink:href="#DejaVuSans-65" transform="translate(454.097656 0)"/>
     <use xlink:href="#DejaVuSans-72" transform="translate(515.621094 0)"/>
     <use xlink:href="#DejaVuSans-72" transform="translate(554.984375 0)"/>
     <use xlink:href="#DejaVuSans-6f" transform="translate(593.847656 0)"/>
     <use xlink:href="#DejaVuSans-72" transform="translate(655.029297 0)"/>
     <use xlink:href="#DejaVuSans-20" transform="translate(696.142578 0)"/>
     <use xlink:href="#DejaVuSans-3d" transform="translate(727.929688 0)"/>
     <use xlink:href="#DejaVuSans-20" transform="translate(811.71875 0)"/>
     <use xlink:href="#DejaVuSans-30" transform="translate(843.505859 0)"/>
     <use xlink:href="#DejaVuSans-2e" transform="translate(907.128906 0)"/>
     <use xlink:href="#DejaVuSans-32" transform="translate(938.916016 0)"/>
    </g>
    <!-- samples = 1459 -->
    <g transform="translate(969.097778 304.257825) scale(0.117187 -0.117187)">
     <use xlink:href="#DejaVuSans-73"/>
     <use xlink:href="#DejaVuSans-61" transform="translate(52.099609 0)"/>
     <use xlink:href="#DejaVuSans-6d" transform="translate(113.378906 0)"/>
     <use xlink:href="#DejaVuSans-70" transform="translate(210.791016 0)"/>
     <use xlink:href="#DejaVuSans-6c" transform="translate(274.267578 0)"/>
     <use xlink:href="#DejaVuSans-65" transform="translate(302.050781 0)"/>
     <use xlink:href="#DejaVuSans-73" transform="translate(363.574219 0)"/>
     <use xlink:href="#DejaVuSans-20" transform="translate(415.673828 0)"/>
     <use xlink:href="#DejaVuSans-3d" transform="translate(447.460938 0)"/>
     <use xlink:href="#DejaVuSans-20" transform="translate(531.25 0)"/>
     <use xlink:href="#DejaVuSans-31" transform="translate(563.037109 0)"/>
     <use xlink:href="#DejaVuSans-34" transform="translate(626.660156 0)"/>
     <use xlink:href="#DejaVuSans-35" transform="translate(690.283203 0)"/>
     <use xlink:href="#DejaVuSans-39" transform="translate(753.90625 0)"/>
    </g>
    <!-- value = 0.724 -->
    <g transform="translate(975.586121 317.380261) scale(0.117187 -0.117187)">
     <use xlink:href="#DejaVuSans-76"/>
     <use xlink:href="#DejaVuSans-61" transform="translate(59.179688 0)"/>
     <use xlink:href="#DejaVuSans-6c" transform="translate(120.458984 0)"/>
     <use xlink:href="#DejaVuSans-75" transform="translate(148.242188 0)"/>
     <use xlink:href="#DejaVuSans-65" transform="translate(211.621094 0)"/>
     <use xlink:href="#DejaVuSans-20" transform="translate(273.144531 0)"/>
     <use xlink:href="#DejaVuSans-3d" transform="translate(304.931641 0)"/>
     <use xlink:href="#DejaVuSans-20" transform="translate(388.720703 0)"/>
     <use xlink:href="#DejaVuSans-30" transform="translate(420.507812 0)"/>
     <use xlink:href="#DejaVuSans-2e" transform="translate(484.130859 0)"/>
     <use xlink:href="#DejaVuSans-37" transform="translate(515.917969 0)"/>
     <use xlink:href="#DejaVuSans-32" transform="translate(579.541016 0)"/>
     <use xlink:href="#DejaVuSans-34" transform="translate(643.164062 0)"/>
    </g>
   </g>
   <g id="text_16">
    <!--   False -->
    <g transform="translate(877.5 225) scale(0.117187 -0.117187)">
     <defs>
      <path id="DejaVuSans-46" d="M 628 4666 
L 3309 4666 
L 3309 4134 
L 1259 4134 
L 1259 2759 
L 3109 2759 
L 3109 2228 
L 1259 2228 
L 1259 0 
L 628 0 
L 628 4666 
z
" transform="scale(0.015625)"/>
     </defs>
     <use xlink:href="#DejaVuSans-20"/>
     <use xlink:href="#DejaVuSans-20" transform="translate(31.787109 0)"/>
     <use xlink:href="#DejaVuSans-46" transform="translate(63.574219 0)"/>
     <use xlink:href="#DejaVuSans-61" transform="translate(111.96875 0)"/>
     <use xlink:href="#DejaVuSans-6c" transform="translate(173.248047 0)"/>
     <use xlink:href="#DejaVuSans-73" transform="translate(201.03125 0)"/>
     <use xlink:href="#DejaVuSans-65" transform="translate(253.130859 0)"/>
    </g>
   </g>
   <g id="patch_30">
    <path d="M 738 155.7 
Q 738 155.7 738 155.7 
" style="fill: none; stroke: #000000; stroke-linecap: round"/>
   </g>
   <g id="text_17">
    <g id="patch_31">
     <path d="M 675.528992 184.73302 
L 800.471008 184.73302 
Q 803.986633 184.73302 803.986633 181.217395 
L 803.986633 130.182605 
Q 803.986633 126.66698 800.471008 126.66698 
L 675.528992 126.66698 
Q 672.013367 126.66698 672.013367 130.182605 
L 672.013367 181.217395 
Q 672.013367 184.73302 675.528992 184.73302 
z
" style="fill: #f2c29f; stroke: #000000; stroke-linejoin: miter"/>
    </g>
    <!-- def &lt;= 0.5 -->
    <g transform="translate(705.749634 139.087024) scale(0.117187 -0.117187)">
     <use xlink:href="#DejaVuSans-64"/>
     <use xlink:href="#DejaVuSans-65" transform="translate(63.476562 0)"/>
     <use xlink:href="#DejaVuSans-66" transform="translate(125 0)"/>
     <use xlink:href="#DejaVuSans-20" transform="translate(160.205078 0)"/>
     <use xlink:href="#DejaVuSans-3c" transform="translate(191.992188 0)"/>
     <use xlink:href="#DejaVuSans-3d" transform="translate(275.78125 0)"/>
     <use xlink:href="#DejaVuSans-20" transform="translate(359.570312 0)"/>
     <use xlink:href="#DejaVuSans-30" transform="translate(391.357422 0)"/>
     <use xlink:href="#DejaVuSans-2e" transform="translate(454.980469 0)"/>
     <use xlink:href="#DejaVuSans-35" transform="translate(486.767578 0)"/>
    </g>
    <!-- squared_error = 0.25 -->
    <g transform="translate(675.528992 152.20946) scale(0.117187 -0.117187)">
     <use xlink:href="#DejaVuSans-73"/>
     <use xlink:href="#DejaVuSans-71" transform="translate(52.099609 0)"/>
     <use xlink:href="#DejaVuSans-75" transform="translate(115.576172 0)"/>
     <use xlink:href="#DejaVuSans-61" transform="translate(178.955078 0)"/>
     <use xlink:href="#DejaVuSans-72" transform="translate(240.234375 0)"/>
     <use xlink:href="#DejaVuSans-65" transform="translate(279.097656 0)"/>
     <use xlink:href="#DejaVuSans-64" transform="translate(340.621094 0)"/>
     <use xlink:href="#DejaVuSans-5f" transform="translate(404.097656 0)"/>
     <use xlink:href="#DejaVuSans-65" transform="translate(454.097656 0)"/>
     <use xlink:href="#DejaVuSans-72" transform="translate(515.621094 0)"/>
     <use xlink:href="#DejaVuSans-72" transform="translate(554.984375 0)"/>
     <use xlink:href="#DejaVuSans-6f" transform="translate(593.847656 0)"/>
     <use xlink:href="#DejaVuSans-72" transform="translate(655.029297 0)"/>
     <use xlink:href="#DejaVuSans-20" transform="translate(696.142578 0)"/>
     <use xlink:href="#DejaVuSans-3d" transform="translate(727.929688 0)"/>
     <use xlink:href="#DejaVuSans-20" transform="translate(811.71875 0)"/>
     <use xlink:href="#DejaVuSans-30" transform="translate(843.505859 0)"/>
     <use xlink:href="#DejaVuSans-2e" transform="translate(907.128906 0)"/>
     <use xlink:href="#DejaVuSans-32" transform="translate(938.916016 0)"/>
     <use xlink:href="#DejaVuSans-35" transform="translate(1002.539062 0)"/>
    </g>
    <!-- samples = 9942 -->
    <g transform="translate(690.097778 165.657825) scale(0.117187 -0.117187)">
     <use xlink:href="#DejaVuSans-73"/>
     <use xlink:href="#DejaVuSans-61" transform="translate(52.099609 0)"/>
     <use xlink:href="#DejaVuSans-6d" transform="translate(113.378906 0)"/>
     <use xlink:href="#DejaVuSans-70" transform="translate(210.791016 0)"/>
     <use xlink:href="#DejaVuSans-6c" transform="translate(274.267578 0)"/>
     <use xlink:href="#DejaVuSans-65" transform="translate(302.050781 0)"/>
     <use xlink:href="#DejaVuSans-73" transform="translate(363.574219 0)"/>
     <use xlink:href="#DejaVuSans-20" transform="translate(415.673828 0)"/>
     <use xlink:href="#DejaVuSans-3d" transform="translate(447.460938 0)"/>
     <use xlink:href="#DejaVuSans-20" transform="translate(531.25 0)"/>
     <use xlink:href="#DejaVuSans-39" transform="translate(563.037109 0)"/>
     <use xlink:href="#DejaVuSans-39" transform="translate(626.660156 0)"/>
     <use xlink:href="#DejaVuSans-34" transform="translate(690.283203 0)"/>
     <use xlink:href="#DejaVuSans-32" transform="translate(753.90625 0)"/>
    </g>
    <!-- value = 0.521 -->
    <g transform="translate(696.586121 178.780261) scale(0.117187 -0.117187)">
     <use xlink:href="#DejaVuSans-76"/>
     <use xlink:href="#DejaVuSans-61" transform="translate(59.179688 0)"/>
     <use xlink:href="#DejaVuSans-6c" transform="translate(120.458984 0)"/>
     <use xlink:href="#DejaVuSans-75" transform="translate(148.242188 0)"/>
     <use xlink:href="#DejaVuSans-65" transform="translate(211.621094 0)"/>
     <use xlink:href="#DejaVuSans-20" transform="translate(273.144531 0)"/>
     <use xlink:href="#DejaVuSans-3d" transform="translate(304.931641 0)"/>
     <use xlink:href="#DejaVuSans-20" transform="translate(388.720703 0)"/>
     <use xlink:href="#DejaVuSans-30" transform="translate(420.507812 0)"/>
     <use xlink:href="#DejaVuSans-2e" transform="translate(484.130859 0)"/>
     <use xlink:href="#DejaVuSans-35" transform="translate(515.917969 0)"/>
     <use xlink:href="#DejaVuSans-32" transform="translate(579.541016 0)"/>
     <use xlink:href="#DejaVuSans-31" transform="translate(643.164062 0)"/>
    </g>
   </g>
  </g>
 </g>
</svg>
