<?xml version="1.0" encoding="UTF-8" standalone="no"?>
<!DOCTYPE svg PUBLIC "-//W3C//DTD SVG 1.1//EN"
 "http://www.w3.org/Graphics/SVG/1.1/DTD/svg11.dtd">
<!-- Generated by graphviz version 12.2.1 (20241206.2353)
 -->
<!-- Pages: 1 -->
<svg width="1369pt" height="564pt"
 viewBox="0.00 0.00 1368.63 563.93" xmlns="http://www.w3.org/2000/svg" xmlns:xlink="http://www.w3.org/1999/xlink">
<g id="graph0" class="graph" transform="scale(1 1) rotate(0) translate(4 559.93)">
<polygon fill="white" stroke="none" points="-4,4 -4,-559.93 1364.63,-559.93 1364.63,4 -4,4"/>
<!-- 0 -->
<g id="node1" class="node">
<title>0</title>
<ellipse fill="none" stroke="black" cx="413.32" cy="-537.93" rx="39.07" ry="18"/>
<text text-anchor="middle" x="413.32" y="-532.88" font-family="Times,serif" font-size="14.00">module</text>
</g>
<!-- 1 -->
<g id="node2" class="node">
<title>1</title>
<ellipse fill="none" stroke="black" cx="175.32" cy="-465.93" rx="90.76" ry="18"/>
<text text-anchor="middle" x="175.32" y="-460.88" font-family="Times,serif" font-size="14.00">expression_statement</text>
</g>
<!-- 0&#45;&gt;1 -->
<g id="edge1" class="edge">
<title>0&#45;&gt;1</title>
<path fill="none" stroke="black" d="M381.22,-527.49C343.98,-516.54 281.78,-498.25 235.47,-484.62"/>
<polygon fill="black" stroke="black" points="236.7,-481.34 226.12,-481.87 234.72,-488.05 236.7,-481.34"/>
</g>
<!-- 6 -->
<g id="node7" class="node">
<title>6</title>
<ellipse fill="none" stroke="black" cx="413.32" cy="-465.93" rx="90.76" ry="18"/>
<text text-anchor="middle" x="413.32" y="-460.88" font-family="Times,serif" font-size="14.00">expression_statement</text>
</g>
<!-- 0&#45;&gt;6 -->
<g id="edge6" class="edge">
<title>0&#45;&gt;6</title>
<path fill="none" stroke="black" d="M413.32,-519.63C413.32,-512.34 413.32,-503.66 413.32,-495.47"/>
<polygon fill="black" stroke="black" points="416.82,-495.55 413.32,-485.55 409.82,-495.55 416.82,-495.55"/>
</g>
<!-- 11 -->
<g id="node12" class="node">
<title>11</title>
<ellipse fill="none" stroke="black" cx="765.32" cy="-465.93" rx="56.98" ry="18"/>
<text text-anchor="middle" x="765.32" y="-460.88" font-family="Times,serif" font-size="14.00">if_statement</text>
</g>
<!-- 0&#45;&gt;11 -->
<g id="edge11" class="edge">
<title>0&#45;&gt;11</title>
<path fill="none" stroke="black" d="M448.68,-529.9C509.29,-517.85 633.58,-493.13 707.12,-478.5"/>
<polygon fill="black" stroke="black" points="707.42,-482.01 716.55,-476.63 706.06,-475.15 707.42,-482.01"/>
</g>
<!-- 2 -->
<g id="node3" class="node">
<title>2</title>
<ellipse fill="none" stroke="black" cx="156.32" cy="-382.94" rx="52.89" ry="18"/>
<text text-anchor="middle" x="156.32" y="-377.89" font-family="Times,serif" font-size="14.00">assignment</text>
</g>
<!-- 1&#45;&gt;2 -->
<g id="edge2" class="edge">
<title>1&#45;&gt;2</title>
<path fill="none" stroke="black" d="M171.29,-447.75C168.88,-437.52 165.77,-424.26 163.01,-412.49"/>
<polygon fill="black" stroke="black" points="166.44,-411.78 160.75,-402.84 159.63,-413.38 166.44,-411.78"/>
</g>
<!-- 3 -->
<g id="node4" class="node">
<title>3</title>
<ellipse fill="none" stroke="black" cx="46.32" cy="-288.96" rx="46.32" ry="28.99"/>
<text text-anchor="middle" x="46.32" y="-292.16" font-family="Times,serif" font-size="14.00">identifier</text>
<text text-anchor="middle" x="46.32" y="-275.66" font-family="Times,serif" font-size="14.00">&#39;a&#39;</text>
</g>
<!-- 2&#45;&gt;3 -->
<g id="edge3" class="edge">
<title>2&#45;&gt;3</title>
<path fill="none" stroke="black" d="M136.9,-365.71C121.74,-353.03 100.26,-335.07 82.02,-319.82"/>
<polygon fill="black" stroke="black" points="84.45,-317.28 74.53,-313.55 79.96,-322.65 84.45,-317.28"/>
</g>
<!-- 4 -->
<g id="node5" class="node">
<title>4</title>
<ellipse fill="none" stroke="black" cx="137.32" cy="-288.96" rx="27" ry="28.99"/>
<text text-anchor="middle" x="137.32" y="-292.16" font-family="Times,serif" font-size="14.00">=</text>
<text text-anchor="middle" x="137.32" y="-275.66" font-family="Times,serif" font-size="14.00">&#39;=&#39;</text>
</g>
<!-- 2&#45;&gt;4 -->
<g id="edge4" class="edge">
<title>2&#45;&gt;4</title>
<path fill="none" stroke="black" d="M152.74,-364.64C150.65,-354.52 147.92,-341.31 145.34,-328.82"/>
<polygon fill="black" stroke="black" points="148.8,-328.23 143.35,-319.15 141.94,-329.65 148.8,-328.23"/>
</g>
<!-- 5 -->
<g id="node6" class="node">
<title>5</title>
<ellipse fill="none" stroke="black" cx="220.32" cy="-288.96" rx="37.83" ry="28.99"/>
<text text-anchor="middle" x="220.32" y="-292.16" font-family="Times,serif" font-size="14.00">integer</text>
<text text-anchor="middle" x="220.32" y="-275.66" font-family="Times,serif" font-size="14.00">&#39;10&#39;</text>
</g>
<!-- 2&#45;&gt;5 -->
<g id="edge5" class="edge">
<title>2&#45;&gt;5</title>
<path fill="none" stroke="black" d="M168.05,-365.07C175.97,-353.69 186.7,-338.27 196.37,-324.37"/>
<polygon fill="black" stroke="black" points="199.15,-326.5 201.99,-316.29 193.41,-322.5 199.15,-326.5"/>
</g>
<!-- 7 -->
<g id="node8" class="node">
<title>7</title>
<ellipse fill="none" stroke="black" cx="413.32" cy="-382.94" rx="52.89" ry="18"/>
<text text-anchor="middle" x="413.32" y="-377.89" font-family="Times,serif" font-size="14.00">assignment</text>
</g>
<!-- 6&#45;&gt;7 -->
<g id="edge7" class="edge">
<title>6&#45;&gt;7</title>
<path fill="none" stroke="black" d="M413.32,-447.75C413.32,-437.62 413.32,-424.54 413.32,-412.85"/>
<polygon fill="black" stroke="black" points="416.82,-412.88 413.32,-402.88 409.82,-412.88 416.82,-412.88"/>
</g>
<!-- 8 -->
<g id="node9" class="node">
<title>8</title>
<ellipse fill="none" stroke="black" cx="322.32" cy="-288.96" rx="46.32" ry="28.99"/>
<text text-anchor="middle" x="322.32" y="-292.16" font-family="Times,serif" font-size="14.00">identifier</text>
<text text-anchor="middle" x="322.32" y="-275.66" font-family="Times,serif" font-size="14.00">&#39;b&#39;</text>
</g>
<!-- 7&#45;&gt;8 -->
<g id="edge8" class="edge">
<title>7&#45;&gt;8</title>
<path fill="none" stroke="black" d="M397.05,-365.49C385.14,-353.46 368.61,-336.75 354.12,-322.1"/>
<polygon fill="black" stroke="black" points="356.9,-319.94 347.38,-315.29 351.93,-324.86 356.9,-319.94"/>
</g>
<!-- 9 -->
<g id="node10" class="node">
<title>9</title>
<ellipse fill="none" stroke="black" cx="413.32" cy="-288.96" rx="27" ry="28.99"/>
<text text-anchor="middle" x="413.32" y="-292.16" font-family="Times,serif" font-size="14.00">=</text>
<text text-anchor="middle" x="413.32" y="-275.66" font-family="Times,serif" font-size="14.00">&#39;=&#39;</text>
</g>
<!-- 7&#45;&gt;9 -->
<g id="edge9" class="edge">
<title>7&#45;&gt;9</title>
<path fill="none" stroke="black" d="M413.32,-364.64C413.32,-354.78 413.32,-341.99 413.32,-329.79"/>
<polygon fill="black" stroke="black" points="416.82,-329.9 413.32,-319.9 409.82,-329.9 416.82,-329.9"/>
</g>
<!-- 10 -->
<g id="node11" class="node">
<title>10</title>
<ellipse fill="none" stroke="black" cx="496.32" cy="-288.96" rx="37.83" ry="28.99"/>
<text text-anchor="middle" x="496.32" y="-292.16" font-family="Times,serif" font-size="14.00">integer</text>
<text text-anchor="middle" x="496.32" y="-275.66" font-family="Times,serif" font-size="14.00">&#39;5&#39;</text>
</g>
<!-- 7&#45;&gt;10 -->
<g id="edge10" class="edge">
<title>7&#45;&gt;10</title>
<path fill="none" stroke="black" d="M428.15,-365.49C439.15,-353.31 454.47,-336.34 467.8,-321.56"/>
<polygon fill="black" stroke="black" points="470.25,-324.06 474.36,-314.29 465.06,-319.37 470.25,-324.06"/>
</g>
<!-- 12 -->
<g id="node13" class="node">
<title>12</title>
<ellipse fill="none" stroke="black" cx="563.32" cy="-382.94" rx="27" ry="28.99"/>
<text text-anchor="middle" x="563.32" y="-386.14" font-family="Times,serif" font-size="14.00">if</text>
<text text-anchor="middle" x="563.32" y="-369.64" font-family="Times,serif" font-size="14.00">&#39;if&#39;</text>
</g>
<!-- 11&#45;&gt;12 -->
<g id="edge12" class="edge">
<title>11&#45;&gt;12</title>
<path fill="none" stroke="black" d="M719.57,-454.95C685.23,-446.37 637.72,-432.17 599.32,-411.93 597.37,-410.91 595.43,-409.78 593.5,-408.57"/>
<polygon fill="black" stroke="black" points="595.63,-405.79 585.42,-402.99 591.65,-411.55 595.63,-405.79"/>
</g>
<!-- 13 -->
<g id="node14" class="node">
<title>13</title>
<ellipse fill="none" stroke="black" cx="698.32" cy="-382.94" rx="89.74" ry="18"/>
<text text-anchor="middle" x="698.32" y="-377.89" font-family="Times,serif" font-size="14.00">comparison_operator</text>
</g>
<!-- 11&#45;&gt;13 -->
<g id="edge13" class="edge">
<title>11&#45;&gt;13</title>
<path fill="none" stroke="black" d="M751.43,-448.15C742.24,-437.04 730.01,-422.25 719.6,-409.67"/>
<polygon fill="black" stroke="black" points="722.45,-407.62 713.38,-402.14 717.05,-412.08 722.45,-407.62"/>
</g>
<!-- 17 -->
<g id="node18" class="node">
<title>17</title>
<ellipse fill="none" stroke="black" cx="833.32" cy="-382.94" rx="27" ry="28.99"/>
<text text-anchor="middle" x="833.32" y="-386.14" font-family="Times,serif" font-size="14.00">:</text>
<text text-anchor="middle" x="833.32" y="-369.64" font-family="Times,serif" font-size="14.00">&#39;:&#39;</text>
</g>
<!-- 11&#45;&gt;17 -->
<g id="edge17" class="edge">
<title>11&#45;&gt;17</title>
<path fill="none" stroke="black" d="M779.41,-448.15C787.78,-438.18 798.63,-425.25 808.4,-413.61"/>
<polygon fill="black" stroke="black" points="810.89,-416.1 814.64,-406.19 805.52,-411.6 810.89,-416.1"/>
</g>
<!-- 18 -->
<g id="node19" class="node">
<title>18</title>
<ellipse fill="none" stroke="black" cx="918.32" cy="-382.94" rx="31.39" ry="18"/>
<text text-anchor="middle" x="918.32" y="-377.89" font-family="Times,serif" font-size="14.00">block</text>
</g>
<!-- 11&#45;&gt;18 -->
<g id="edge18" class="edge">
<title>11&#45;&gt;18</title>
<path fill="none" stroke="black" d="M795.1,-450.23C816,-439.79 844.53,-425.32 869.32,-411.93 875.17,-408.77 881.37,-405.32 887.31,-401.95"/>
<polygon fill="black" stroke="black" points="888.71,-405.18 895.66,-397.18 885.24,-399.1 888.71,-405.18"/>
</g>
<!-- 24 -->
<g id="node25" class="node">
<title>24</title>
<ellipse fill="none" stroke="black" cx="1110.32" cy="-382.94" rx="52.89" ry="18"/>
<text text-anchor="middle" x="1110.32" y="-377.89" font-family="Times,serif" font-size="14.00">else_clause</text>
</g>
<!-- 11&#45;&gt;24 -->
<g id="edge24" class="edge">
<title>11&#45;&gt;24</title>
<path fill="none" stroke="black" d="M810.06,-454.43C873.36,-439.57 988.87,-412.45 1056.68,-396.53"/>
<polygon fill="black" stroke="black" points="1057.13,-400.02 1066.07,-394.33 1055.53,-393.2 1057.13,-400.02"/>
</g>
<!-- 14 -->
<g id="node15" class="node">
<title>14</title>
<ellipse fill="none" stroke="black" cx="598.32" cy="-288.96" rx="46.32" ry="28.99"/>
<text text-anchor="middle" x="598.32" y="-292.16" font-family="Times,serif" font-size="14.00">identifier</text>
<text text-anchor="middle" x="598.32" y="-275.66" font-family="Times,serif" font-size="14.00">&#39;a&#39;</text>
</g>
<!-- 13&#45;&gt;14 -->
<g id="edge14" class="edge">
<title>13&#45;&gt;14</title>
<path fill="none" stroke="black" d="M679.97,-365.07C666.53,-352.7 647.9,-335.56 631.83,-320.78"/>
<polygon fill="black" stroke="black" points="634.54,-318.52 624.81,-314.33 629.8,-323.67 634.54,-318.52"/>
</g>
<!-- 15 -->
<g id="node16" class="node">
<title>15</title>
<ellipse fill="none" stroke="black" cx="689.32" cy="-288.96" rx="27" ry="28.99"/>
<text text-anchor="middle" x="689.32" y="-292.16" font-family="Times,serif" font-size="14.00">&lt;</text>
<text text-anchor="middle" x="689.32" y="-275.66" font-family="Times,serif" font-size="14.00">&#39;&lt;&#39;</text>
</g>
<!-- 13&#45;&gt;15 -->
<g id="edge15" class="edge">
<title>13&#45;&gt;15</title>
<path fill="none" stroke="black" d="M696.62,-364.64C695.64,-354.6 694.36,-341.52 693.15,-329.12"/>
<polygon fill="black" stroke="black" points="696.67,-329.15 692.21,-319.53 689.7,-329.83 696.67,-329.15"/>
</g>
<!-- 16 -->
<g id="node17" class="node">
<title>16</title>
<ellipse fill="none" stroke="black" cx="780.32" cy="-288.96" rx="46.32" ry="28.99"/>
<text text-anchor="middle" x="780.32" y="-292.16" font-family="Times,serif" font-size="14.00">identifier</text>
<text text-anchor="middle" x="780.32" y="-275.66" font-family="Times,serif" font-size="14.00">&#39;b&#39;</text>
</g>
<!-- 13&#45;&gt;16 -->
<g id="edge16" class="edge">
<title>13&#45;&gt;16</title>
<path fill="none" stroke="black" d="M713.36,-365.07C723.77,-353.39 737.98,-337.45 750.63,-323.25"/>
<polygon fill="black" stroke="black" points="753.21,-325.62 757.25,-315.83 747.99,-320.96 753.21,-325.62"/>
</g>
<!-- 19 -->
<g id="node20" class="node">
<title>19</title>
<ellipse fill="none" stroke="black" cx="935.32" cy="-288.96" rx="90.76" ry="18"/>
<text text-anchor="middle" x="935.32" y="-283.91" font-family="Times,serif" font-size="14.00">expression_statement</text>
</g>
<!-- 18&#45;&gt;19 -->
<g id="edge19" class="edge">
<title>18&#45;&gt;19</title>
<path fill="none" stroke="black" d="M921.51,-364.64C923.94,-351.53 927.31,-333.25 930.12,-318.06"/>
<polygon fill="black" stroke="black" points="933.48,-319.14 931.86,-308.67 926.6,-317.87 933.48,-319.14"/>
</g>
<!-- 20 -->
<g id="node21" class="node">
<title>20</title>
<ellipse fill="none" stroke="black" cx="935.32" cy="-205.97" rx="52.89" ry="18"/>
<text text-anchor="middle" x="935.32" y="-200.92" font-family="Times,serif" font-size="14.00">assignment</text>
</g>
<!-- 19&#45;&gt;20 -->
<g id="edge20" class="edge">
<title>19&#45;&gt;20</title>
<path fill="none" stroke="black" d="M935.32,-270.78C935.32,-260.65 935.32,-247.56 935.32,-235.88"/>
<polygon fill="black" stroke="black" points="938.82,-235.91 935.32,-225.91 931.82,-235.91 938.82,-235.91"/>
</g>
<!-- 21 -->
<g id="node22" class="node">
<title>21</title>
<ellipse fill="none" stroke="black" cx="844.32" cy="-122.97" rx="46.32" ry="28.99"/>
<text text-anchor="middle" x="844.32" y="-126.17" font-family="Times,serif" font-size="14.00">identifier</text>
<text text-anchor="middle" x="844.32" y="-109.67" font-family="Times,serif" font-size="14.00">&#39;c&#39;</text>
</g>
<!-- 20&#45;&gt;21 -->
<g id="edge21" class="edge">
<title>20&#45;&gt;21</title>
<path fill="none" stroke="black" d="M917.34,-188.96C906.37,-179.21 892,-166.41 878.9,-154.76"/>
<polygon fill="black" stroke="black" points="881.46,-152.35 871.66,-148.31 876.81,-157.58 881.46,-152.35"/>
</g>
<!-- 22 -->
<g id="node23" class="node">
<title>22</title>
<ellipse fill="none" stroke="black" cx="935.32" cy="-122.97" rx="27" ry="28.99"/>
<text text-anchor="middle" x="935.32" y="-126.17" font-family="Times,serif" font-size="14.00">=</text>
<text text-anchor="middle" x="935.32" y="-109.67" font-family="Times,serif" font-size="14.00">&#39;=&#39;</text>
</g>
<!-- 20&#45;&gt;22 -->
<g id="edge22" class="edge">
<title>20&#45;&gt;22</title>
<path fill="none" stroke="black" d="M935.32,-187.79C935.32,-180.7 935.32,-172.17 935.32,-163.68"/>
<polygon fill="black" stroke="black" points="938.82,-163.79 935.32,-153.79 931.82,-163.79 938.82,-163.79"/>
</g>
<!-- 23 -->
<g id="node24" class="node">
<title>23</title>
<ellipse fill="none" stroke="black" cx="1026.32" cy="-122.97" rx="46.32" ry="28.99"/>
<text text-anchor="middle" x="1026.32" y="-126.17" font-family="Times,serif" font-size="14.00">identifier</text>
<text text-anchor="middle" x="1026.32" y="-109.67" font-family="Times,serif" font-size="14.00">&#39;a&#39;</text>
</g>
<!-- 20&#45;&gt;23 -->
<g id="edge23" class="edge">
<title>20&#45;&gt;23</title>
<path fill="none" stroke="black" d="M953.29,-188.96C964.26,-179.21 978.63,-166.41 991.73,-154.76"/>
<polygon fill="black" stroke="black" points="993.83,-157.58 998.97,-148.31 989.17,-152.35 993.83,-157.58"/>
</g>
<!-- 25 -->
<g id="node26" class="node">
<title>25</title>
<ellipse fill="none" stroke="black" cx="1073.32" cy="-288.96" rx="29.34" ry="28.99"/>
<text text-anchor="middle" x="1073.32" y="-292.16" font-family="Times,serif" font-size="14.00">else</text>
<text text-anchor="middle" x="1073.32" y="-275.66" font-family="Times,serif" font-size="14.00">&#39;else&#39;</text>
</g>
<!-- 24&#45;&gt;25 -->
<g id="edge25" class="edge">
<title>24&#45;&gt;25</title>
<path fill="none" stroke="black" d="M1103.36,-364.64C1099.07,-353.99 1093.41,-339.92 1088.16,-326.86"/>
<polygon fill="black" stroke="black" points="1091.43,-325.61 1084.45,-317.64 1084.93,-328.22 1091.43,-325.61"/>
</g>
<!-- 26 -->
<g id="node27" class="node">
<title>26</title>
<ellipse fill="none" stroke="black" cx="1147.32" cy="-288.96" rx="27" ry="28.99"/>
<text text-anchor="middle" x="1147.32" y="-292.16" font-family="Times,serif" font-size="14.00">:</text>
<text text-anchor="middle" x="1147.32" y="-275.66" font-family="Times,serif" font-size="14.00">&#39;:&#39;</text>
</g>
<!-- 24&#45;&gt;26 -->
<g id="edge26" class="edge">
<title>24&#45;&gt;26</title>
<path fill="none" stroke="black" d="M1117.27,-364.64C1121.64,-353.8 1127.42,-339.42 1132.75,-326.17"/>
<polygon fill="black" stroke="black" points="1135.84,-327.87 1136.32,-317.28 1129.34,-325.25 1135.84,-327.87"/>
</g>
<!-- 27 -->
<g id="node28" class="node">
<title>27</title>
<ellipse fill="none" stroke="black" cx="1223.32" cy="-288.96" rx="31.39" ry="18"/>
<text text-anchor="middle" x="1223.32" y="-283.91" font-family="Times,serif" font-size="14.00">block</text>
</g>
<!-- 24&#45;&gt;27 -->
<g id="edge27" class="edge">
<title>24&#45;&gt;27</title>
<path fill="none" stroke="black" d="M1130,-365.92C1148.53,-350.83 1176.43,-328.12 1196.89,-311.46"/>
<polygon fill="black" stroke="black" points="1198.99,-314.27 1204.54,-305.24 1194.57,-308.84 1198.99,-314.27"/>
</g>
<!-- 28 -->
<g id="node29" class="node">
<title>28</title>
<ellipse fill="none" stroke="black" cx="1223.32" cy="-205.97" rx="90.76" ry="18"/>
<text text-anchor="middle" x="1223.32" y="-200.92" font-family="Times,serif" font-size="14.00">expression_statement</text>
</g>
<!-- 27&#45;&gt;28 -->
<g id="edge28" class="edge">
<title>27&#45;&gt;28</title>
<path fill="none" stroke="black" d="M1223.32,-270.78C1223.32,-260.65 1223.32,-247.56 1223.32,-235.88"/>
<polygon fill="black" stroke="black" points="1226.82,-235.91 1223.32,-225.91 1219.82,-235.91 1226.82,-235.91"/>
</g>
<!-- 29 -->
<g id="node30" class="node">
<title>29</title>
<ellipse fill="none" stroke="black" cx="1223.32" cy="-122.97" rx="52.89" ry="18"/>
<text text-anchor="middle" x="1223.32" y="-117.92" font-family="Times,serif" font-size="14.00">assignment</text>
</g>
<!-- 28&#45;&gt;29 -->
<g id="edge29" class="edge">
<title>28&#45;&gt;29</title>
<path fill="none" stroke="black" d="M1223.32,-187.79C1223.32,-177.66 1223.32,-164.57 1223.32,-152.89"/>
<polygon fill="black" stroke="black" points="1226.82,-152.92 1223.32,-142.92 1219.82,-152.92 1226.82,-152.92"/>
</g>
<!-- 30 -->
<g id="node31" class="node">
<title>30</title>
<ellipse fill="none" stroke="black" cx="1132.32" cy="-28.99" rx="46.32" ry="28.99"/>
<text text-anchor="middle" x="1132.32" y="-32.19" font-family="Times,serif" font-size="14.00">identifier</text>
<text text-anchor="middle" x="1132.32" y="-15.69" font-family="Times,serif" font-size="14.00">&#39;c&#39;</text>
</g>
<!-- 29&#45;&gt;30 -->
<g id="edge30" class="edge">
<title>29&#45;&gt;30</title>
<path fill="none" stroke="black" d="M1207.05,-105.53C1195.14,-93.5 1178.61,-76.78 1164.12,-62.13"/>
<polygon fill="black" stroke="black" points="1166.9,-59.98 1157.38,-55.33 1161.93,-64.9 1166.9,-59.98"/>
</g>
<!-- 31 -->
<g id="node32" class="node">
<title>31</title>
<ellipse fill="none" stroke="black" cx="1223.32" cy="-28.99" rx="27" ry="28.99"/>
<text text-anchor="middle" x="1223.32" y="-32.19" font-family="Times,serif" font-size="14.00">=</text>
<text text-anchor="middle" x="1223.32" y="-15.69" font-family="Times,serif" font-size="14.00">&#39;=&#39;</text>
</g>
<!-- 29&#45;&gt;31 -->
<g id="edge31" class="edge">
<title>29&#45;&gt;31</title>
<path fill="none" stroke="black" d="M1223.32,-104.67C1223.32,-94.81 1223.32,-82.03 1223.32,-69.83"/>
<polygon fill="black" stroke="black" points="1226.82,-69.94 1223.32,-59.94 1219.82,-69.94 1226.82,-69.94"/>
</g>
<!-- 32 -->
<g id="node33" class="node">
<title>32</title>
<ellipse fill="none" stroke="black" cx="1314.32" cy="-28.99" rx="46.32" ry="28.99"/>
<text text-anchor="middle" x="1314.32" y="-32.19" font-family="Times,serif" font-size="14.00">identifier</text>
<text text-anchor="middle" x="1314.32" y="-15.69" font-family="Times,serif" font-size="14.00">&#39;b&#39;</text>
</g>
<!-- 29&#45;&gt;32 -->
<g id="edge32" class="edge">
<title>29&#45;&gt;32</title>
<path fill="none" stroke="black" d="M1239.58,-105.53C1251.49,-93.5 1268.02,-76.78 1282.52,-62.13"/>
<polygon fill="black" stroke="black" points="1284.7,-64.9 1289.25,-55.33 1279.73,-59.98 1284.7,-64.9"/>
</g>
</g>
</svg>
