<?xml version="1.0" encoding="UTF-8" standalone="no"?>
<!DOCTYPE svg PUBLIC "-//W3C//DTD SVG 1.1//EN"
 "http://www.w3.org/Graphics/SVG/1.1/DTD/svg11.dtd">
<!-- Generated by graphviz version 12.2.1 (20241206.2353)
 -->
<!-- Pages: 1 -->
<svg width="1081pt" height="470pt"
 viewBox="0.00 0.00 1080.63 469.95" xmlns="http://www.w3.org/2000/svg" xmlns:xlink="http://www.w3.org/1999/xlink">
<g id="graph0" class="graph" transform="scale(1 1) rotate(0) translate(4 465.95)">
<polygon fill="white" stroke="none" points="-4,4 -4,-465.95 1076.63,-465.95 1076.63,4 -4,4"/>
<!-- 0 -->
<g id="node1" class="node">
<title>0</title>
<ellipse fill="none" stroke="black" cx="413.32" cy="-443.95" rx="39.07" ry="18"/>
<text text-anchor="middle" x="413.32" y="-438.9" font-family="Times,serif" font-size="14.00">module</text>
</g>
<!-- 1 -->
<g id="node2" class="node">
<title>1</title>
<ellipse fill="none" stroke="black" cx="175.32" cy="-371.95" rx="90.76" ry="18"/>
<text text-anchor="middle" x="175.32" y="-366.9" font-family="Times,serif" font-size="14.00">expression_statement</text>
</g>
<!-- 0&#45;&gt;1 -->
<g id="edge1" class="edge">
<title>0&#45;&gt;1</title>
<path fill="none" stroke="black" d="M381.22,-433.51C343.98,-422.56 281.78,-404.26 235.47,-390.64"/>
<polygon fill="black" stroke="black" points="236.7,-387.35 226.12,-387.89 234.72,-394.07 236.7,-387.35"/>
</g>
<!-- 6 -->
<g id="node7" class="node">
<title>6</title>
<ellipse fill="none" stroke="black" cx="413.32" cy="-371.95" rx="90.76" ry="18"/>
<text text-anchor="middle" x="413.32" y="-366.9" font-family="Times,serif" font-size="14.00">expression_statement</text>
</g>
<!-- 0&#45;&gt;6 -->
<g id="edge6" class="edge">
<title>0&#45;&gt;6</title>
<path fill="none" stroke="black" d="M413.32,-425.64C413.32,-418.35 413.32,-409.67 413.32,-401.48"/>
<polygon fill="black" stroke="black" points="416.82,-401.57 413.32,-391.57 409.82,-401.57 416.82,-401.57"/>
</g>
<!-- 11 -->
<g id="node12" class="node">
<title>11</title>
<ellipse fill="none" stroke="black" cx="689.32" cy="-371.95" rx="56.98" ry="18"/>
<text text-anchor="middle" x="689.32" y="-366.9" font-family="Times,serif" font-size="14.00">if_statement</text>
</g>
<!-- 0&#45;&gt;11 -->
<g id="edge11" class="edge">
<title>0&#45;&gt;11</title>
<path fill="none" stroke="black" d="M447.16,-434.36C494.02,-422.48 579.2,-400.88 635.02,-386.72"/>
<polygon fill="black" stroke="black" points="635.81,-390.13 644.65,-384.28 634.09,-383.34 635.81,-390.13"/>
</g>
<!-- 2 -->
<g id="node3" class="node">
<title>2</title>
<ellipse fill="none" stroke="black" cx="156.32" cy="-288.96" rx="52.89" ry="18"/>
<text text-anchor="middle" x="156.32" y="-283.91" font-family="Times,serif" font-size="14.00">assignment</text>
</g>
<!-- 1&#45;&gt;2 -->
<g id="edge2" class="edge">
<title>1&#45;&gt;2</title>
<path fill="none" stroke="black" d="M171.29,-353.77C168.88,-343.53 165.77,-330.28 163.01,-318.5"/>
<polygon fill="black" stroke="black" points="166.44,-317.8 160.75,-308.86 159.63,-319.4 166.44,-317.8"/>
</g>
<!-- 3 -->
<g id="node4" class="node">
<title>3</title>
<ellipse fill="none" stroke="black" cx="46.32" cy="-194.97" rx="46.32" ry="28.99"/>
<text text-anchor="middle" x="46.32" y="-198.17" font-family="Times,serif" font-size="14.00">identifier</text>
<text text-anchor="middle" x="46.32" y="-181.67" font-family="Times,serif" font-size="14.00">&#39;a&#39;</text>
</g>
<!-- 2&#45;&gt;3 -->
<g id="edge3" class="edge">
<title>2&#45;&gt;3</title>
<path fill="none" stroke="black" d="M136.9,-271.72C121.74,-259.05 100.26,-241.09 82.02,-225.83"/>
<polygon fill="black" stroke="black" points="84.45,-223.3 74.53,-219.57 79.96,-228.67 84.45,-223.3"/>
</g>
<!-- 4 -->
<g id="node5" class="node">
<title>4</title>
<ellipse fill="none" stroke="black" cx="137.32" cy="-194.97" rx="27" ry="28.99"/>
<text text-anchor="middle" x="137.32" y="-198.17" font-family="Times,serif" font-size="14.00">=</text>
<text text-anchor="middle" x="137.32" y="-181.67" font-family="Times,serif" font-size="14.00">&#39;=&#39;</text>
</g>
<!-- 2&#45;&gt;4 -->
<g id="edge4" class="edge">
<title>2&#45;&gt;4</title>
<path fill="none" stroke="black" d="M152.74,-270.66C150.65,-260.54 147.92,-247.33 145.34,-234.84"/>
<polygon fill="black" stroke="black" points="148.8,-234.25 143.35,-225.17 141.94,-235.67 148.8,-234.25"/>
</g>
<!-- 5 -->
<g id="node6" class="node">
<title>5</title>
<ellipse fill="none" stroke="black" cx="220.32" cy="-194.97" rx="37.83" ry="28.99"/>
<text text-anchor="middle" x="220.32" y="-198.17" font-family="Times,serif" font-size="14.00">integer</text>
<text text-anchor="middle" x="220.32" y="-181.67" font-family="Times,serif" font-size="14.00">&#39;10&#39;</text>
</g>
<!-- 2&#45;&gt;5 -->
<g id="edge5" class="edge">
<title>2&#45;&gt;5</title>
<path fill="none" stroke="black" d="M168.05,-271.09C175.97,-259.71 186.7,-244.29 196.37,-230.38"/>
<polygon fill="black" stroke="black" points="199.15,-232.52 201.99,-222.31 193.41,-228.52 199.15,-232.52"/>
</g>
<!-- 7 -->
<g id="node8" class="node">
<title>7</title>
<ellipse fill="none" stroke="black" cx="413.32" cy="-288.96" rx="52.89" ry="18"/>
<text text-anchor="middle" x="413.32" y="-283.91" font-family="Times,serif" font-size="14.00">assignment</text>
</g>
<!-- 6&#45;&gt;7 -->
<g id="edge7" class="edge">
<title>6&#45;&gt;7</title>
<path fill="none" stroke="black" d="M413.32,-353.77C413.32,-343.64 413.32,-330.55 413.32,-318.87"/>
<polygon fill="black" stroke="black" points="416.82,-318.9 413.32,-308.9 409.82,-318.9 416.82,-318.9"/>
</g>
<!-- 8 -->
<g id="node9" class="node">
<title>8</title>
<ellipse fill="none" stroke="black" cx="322.32" cy="-194.97" rx="46.32" ry="28.99"/>
<text text-anchor="middle" x="322.32" y="-198.17" font-family="Times,serif" font-size="14.00">identifier</text>
<text text-anchor="middle" x="322.32" y="-181.67" font-family="Times,serif" font-size="14.00">&#39;b&#39;</text>
</g>
<!-- 7&#45;&gt;8 -->
<g id="edge8" class="edge">
<title>7&#45;&gt;8</title>
<path fill="none" stroke="black" d="M397.05,-271.51C385.14,-259.48 368.61,-242.76 354.12,-228.12"/>
<polygon fill="black" stroke="black" points="356.9,-225.96 347.38,-221.31 351.93,-230.88 356.9,-225.96"/>
</g>
<!-- 9 -->
<g id="node10" class="node">
<title>9</title>
<ellipse fill="none" stroke="black" cx="413.32" cy="-194.97" rx="27" ry="28.99"/>
<text text-anchor="middle" x="413.32" y="-198.17" font-family="Times,serif" font-size="14.00">=</text>
<text text-anchor="middle" x="413.32" y="-181.67" font-family="Times,serif" font-size="14.00">&#39;=&#39;</text>
</g>
<!-- 7&#45;&gt;9 -->
<g id="edge9" class="edge">
<title>7&#45;&gt;9</title>
<path fill="none" stroke="black" d="M413.32,-270.66C413.32,-260.8 413.32,-248.01 413.32,-235.81"/>
<polygon fill="black" stroke="black" points="416.82,-235.92 413.32,-225.92 409.82,-235.92 416.82,-235.92"/>
</g>
<!-- 10 -->
<g id="node11" class="node">
<title>10</title>
<ellipse fill="none" stroke="black" cx="496.32" cy="-194.97" rx="37.83" ry="28.99"/>
<text text-anchor="middle" x="496.32" y="-198.17" font-family="Times,serif" font-size="14.00">integer</text>
<text text-anchor="middle" x="496.32" y="-181.67" font-family="Times,serif" font-size="14.00">&#39;5&#39;</text>
</g>
<!-- 7&#45;&gt;10 -->
<g id="edge10" class="edge">
<title>7&#45;&gt;10</title>
<path fill="none" stroke="black" d="M428.15,-271.51C439.15,-259.33 454.47,-242.35 467.8,-227.58"/>
<polygon fill="black" stroke="black" points="470.25,-230.08 474.36,-220.31 465.06,-225.39 470.25,-230.08"/>
</g>
<!-- 12 -->
<g id="node13" class="node">
<title>12</title>
<ellipse fill="none" stroke="black" cx="554.32" cy="-288.96" rx="27" ry="28.99"/>
<text text-anchor="middle" x="554.32" y="-292.16" font-family="Times,serif" font-size="14.00">if</text>
<text text-anchor="middle" x="554.32" y="-275.66" font-family="Times,serif" font-size="14.00">&#39;if&#39;</text>
</g>
<!-- 11&#45;&gt;12 -->
<g id="edge12" class="edge">
<title>11&#45;&gt;12</title>
<path fill="none" stroke="black" d="M659.11,-356.45C639.1,-346.45 612.55,-332.39 590.32,-317.95 588.47,-316.75 586.61,-315.48 584.74,-314.18"/>
<polygon fill="black" stroke="black" points="586.93,-311.44 576.8,-308.34 582.79,-317.08 586.93,-311.44"/>
</g>
<!-- 13 -->
<g id="node14" class="node">
<title>13</title>
<ellipse fill="none" stroke="black" cx="689.32" cy="-288.96" rx="89.74" ry="18"/>
<text text-anchor="middle" x="689.32" y="-283.91" font-family="Times,serif" font-size="14.00">comparison_operator</text>
</g>
<!-- 11&#45;&gt;13 -->
<g id="edge13" class="edge">
<title>11&#45;&gt;13</title>
<path fill="none" stroke="black" d="M689.32,-353.77C689.32,-343.64 689.32,-330.55 689.32,-318.87"/>
<polygon fill="black" stroke="black" points="692.82,-318.9 689.32,-308.9 685.82,-318.9 692.82,-318.9"/>
</g>
<!-- 17 -->
<g id="node18" class="node">
<title>17</title>
<ellipse fill="none" stroke="black" cx="824.32" cy="-288.96" rx="27" ry="28.99"/>
<text text-anchor="middle" x="824.32" y="-292.16" font-family="Times,serif" font-size="14.00">:</text>
<text text-anchor="middle" x="824.32" y="-275.66" font-family="Times,serif" font-size="14.00">&#39;:&#39;</text>
</g>
<!-- 11&#45;&gt;17 -->
<g id="edge17" class="edge">
<title>11&#45;&gt;17</title>
<path fill="none" stroke="black" d="M719.53,-356.45C739.53,-346.45 766.08,-332.39 788.32,-317.95 790.16,-316.75 792.02,-315.48 793.89,-314.18"/>
<polygon fill="black" stroke="black" points="795.84,-317.08 801.83,-308.34 791.7,-311.44 795.84,-317.08"/>
</g>
<!-- 18 -->
<g id="node19" class="node">
<title>18</title>
<ellipse fill="none" stroke="black" cx="917.32" cy="-288.96" rx="31.39" ry="18"/>
<text text-anchor="middle" x="917.32" y="-283.91" font-family="Times,serif" font-size="14.00">block</text>
</g>
<!-- 11&#45;&gt;18 -->
<g id="edge18" class="edge">
<title>11&#45;&gt;18</title>
<path fill="none" stroke="black" d="M732.12,-359.68C767.1,-350.01 817.57,-334.95 860.32,-317.95 868.34,-314.76 876.8,-310.89 884.67,-307.07"/>
<polygon fill="black" stroke="black" points="886.2,-310.22 893.58,-302.63 883.07,-303.96 886.2,-310.22"/>
</g>
<!-- 14 -->
<g id="node15" class="node">
<title>14</title>
<ellipse fill="none" stroke="black" cx="598.32" cy="-194.97" rx="46.32" ry="28.99"/>
<text text-anchor="middle" x="598.32" y="-198.17" font-family="Times,serif" font-size="14.00">identifier</text>
<text text-anchor="middle" x="598.32" y="-181.67" font-family="Times,serif" font-size="14.00">&#39;a&#39;</text>
</g>
<!-- 13&#45;&gt;14 -->
<g id="edge14" class="edge">
<title>13&#45;&gt;14</title>
<path fill="none" stroke="black" d="M672.62,-271.09C660.68,-259.01 644.22,-242.38 629.84,-227.84"/>
<polygon fill="black" stroke="black" points="632.68,-225.74 623.16,-221.09 627.71,-230.66 632.68,-225.74"/>
</g>
<!-- 15 -->
<g id="node16" class="node">
<title>15</title>
<ellipse fill="none" stroke="black" cx="689.32" cy="-194.97" rx="27" ry="28.99"/>
<text text-anchor="middle" x="689.32" y="-198.17" font-family="Times,serif" font-size="14.00">&lt;</text>
<text text-anchor="middle" x="689.32" y="-181.67" font-family="Times,serif" font-size="14.00">&#39;&lt;&#39;</text>
</g>
<!-- 13&#45;&gt;15 -->
<g id="edge15" class="edge">
<title>13&#45;&gt;15</title>
<path fill="none" stroke="black" d="M689.32,-270.66C689.32,-260.8 689.32,-248.01 689.32,-235.81"/>
<polygon fill="black" stroke="black" points="692.82,-235.92 689.32,-225.92 685.82,-235.92 692.82,-235.92"/>
</g>
<!-- 16 -->
<g id="node17" class="node">
<title>16</title>
<ellipse fill="none" stroke="black" cx="780.32" cy="-194.97" rx="46.32" ry="28.99"/>
<text text-anchor="middle" x="780.32" y="-198.17" font-family="Times,serif" font-size="14.00">identifier</text>
<text text-anchor="middle" x="780.32" y="-181.67" font-family="Times,serif" font-size="14.00">&#39;b&#39;</text>
</g>
<!-- 13&#45;&gt;16 -->
<g id="edge16" class="edge">
<title>13&#45;&gt;16</title>
<path fill="none" stroke="black" d="M706.01,-271.09C717.96,-259.01 734.41,-242.38 748.79,-227.84"/>
<polygon fill="black" stroke="black" points="750.92,-230.66 755.47,-221.09 745.95,-225.74 750.92,-230.66"/>
</g>
<!-- 19 -->
<g id="node20" class="node">
<title>19</title>
<ellipse fill="none" stroke="black" cx="935.32" cy="-194.97" rx="90.76" ry="18"/>
<text text-anchor="middle" x="935.32" y="-189.92" font-family="Times,serif" font-size="14.00">expression_statement</text>
</g>
<!-- 18&#45;&gt;19 -->
<g id="edge19" class="edge">
<title>18&#45;&gt;19</title>
<path fill="none" stroke="black" d="M920.7,-270.66C923.27,-257.55 926.84,-239.27 929.82,-224.08"/>
<polygon fill="black" stroke="black" points="933.17,-225.17 931.65,-214.68 926.3,-223.82 933.17,-225.17"/>
</g>
<!-- 20 -->
<g id="node21" class="node">
<title>20</title>
<ellipse fill="none" stroke="black" cx="935.32" cy="-111.98" rx="52.89" ry="18"/>
<text text-anchor="middle" x="935.32" y="-106.93" font-family="Times,serif" font-size="14.00">assignment</text>
</g>
<!-- 19&#45;&gt;20 -->
<g id="edge20" class="edge">
<title>19&#45;&gt;20</title>
<path fill="none" stroke="black" d="M935.32,-176.8C935.32,-166.67 935.32,-153.58 935.32,-141.9"/>
<polygon fill="black" stroke="black" points="938.82,-141.93 935.32,-131.93 931.82,-141.93 938.82,-141.93"/>
</g>
<!-- 21 -->
<g id="node22" class="node">
<title>21</title>
<ellipse fill="none" stroke="black" cx="844.32" cy="-28.99" rx="46.32" ry="28.99"/>
<text text-anchor="middle" x="844.32" y="-32.19" font-family="Times,serif" font-size="14.00">identifier</text>
<text text-anchor="middle" x="844.32" y="-15.69" font-family="Times,serif" font-size="14.00">&#39;c&#39;</text>
</g>
<!-- 20&#45;&gt;21 -->
<g id="edge21" class="edge">
<title>20&#45;&gt;21</title>
<path fill="none" stroke="black" d="M917.34,-94.98C906.37,-85.22 892,-72.43 878.9,-60.77"/>
<polygon fill="black" stroke="black" points="881.46,-58.36 871.66,-54.33 876.81,-63.59 881.46,-58.36"/>
</g>
<!-- 22 -->
<g id="node23" class="node">
<title>22</title>
<ellipse fill="none" stroke="black" cx="935.32" cy="-28.99" rx="27" ry="28.99"/>
<text text-anchor="middle" x="935.32" y="-32.19" font-family="Times,serif" font-size="14.00">=</text>
<text text-anchor="middle" x="935.32" y="-15.69" font-family="Times,serif" font-size="14.00">&#39;=&#39;</text>
</g>
<!-- 20&#45;&gt;22 -->
<g id="edge22" class="edge">
<title>20&#45;&gt;22</title>
<path fill="none" stroke="black" d="M935.32,-93.81C935.32,-86.72 935.32,-78.19 935.32,-69.7"/>
<polygon fill="black" stroke="black" points="938.82,-69.81 935.32,-59.81 931.82,-69.81 938.82,-69.81"/>
</g>
<!-- 23 -->
<g id="node24" class="node">
<title>23</title>
<ellipse fill="none" stroke="black" cx="1026.32" cy="-28.99" rx="46.32" ry="28.99"/>
<text text-anchor="middle" x="1026.32" y="-32.19" font-family="Times,serif" font-size="14.00">identifier</text>
<text text-anchor="middle" x="1026.32" y="-15.69" font-family="Times,serif" font-size="14.00">&#39;a&#39;</text>
</g>
<!-- 20&#45;&gt;23 -->
<g id="edge23" class="edge">
<title>20&#45;&gt;23</title>
<path fill="none" stroke="black" d="M953.29,-94.98C964.26,-85.22 978.63,-72.43 991.73,-60.77"/>
<polygon fill="black" stroke="black" points="993.83,-63.59 998.97,-54.33 989.17,-58.36 993.83,-63.59"/>
</g>
</g>
</svg>
